<svg width="619" height="454" viewBox="0 0 619 454" fill="none" xmlns="http://www.w3.org/2000/svg">
<path d="M269.049 97.8055C248.213 22.2202 154.318 -2.12916 100.508 54.3602C99.7356 55.1708 98.9636 55.9962 98.1916 56.8349C21.0476 140.695 57.4916 347.349 218.49 399.728C379.49 452.107 546.952 356.459 556.36 270.956C565.768 185.454 491.49 158.587 376.22 182.496C311.094 196.004 282.021 144.86 269.049 97.8055Z" fill="#00816A" fill-opacity="0.2"/>
<path d="M402.979 110.735C381.439 114.241 375.469 133.325 392.101 146.865C397.598 151.34 405.45 155.059 416.633 156.913C459.239 163.981 481.847 145.131 464.77 120.691C454.23 105.607 424.327 107.259 402.979 110.735Z" fill="#00816A" fill-opacity="0.2"/>
<path d="M59.5137 263.459C46.123 246.226 26.5084 250.122 22.5844 271.207C21.2884 278.175 21.7831 286.847 25.5084 297.555C39.7004 338.345 67.0737 349.169 80.355 322.475C88.5524 305.998 72.7857 280.538 59.5137 263.459Z" fill="#00816A" fill-opacity="0.2"/>
<path d="M571.544 280.894C569.56 291.282 578.138 298.641 587.856 294.638C591.07 293.314 594.31 290.763 597.192 286.279C608.175 269.197 602.614 254.541 587.322 256.045C577.886 256.974 573.511 270.599 571.544 280.894Z" fill="#00816A" fill-opacity="0.2"/>
<path d="M517.087 171.272C527.44 173.433 534.943 164.981 531.107 155.194C529.838 151.961 527.342 148.677 522.907 145.717C506.014 134.446 491.267 139.758 492.51 155.072C493.279 164.524 506.827 169.13 517.087 171.272Z" fill="#00816A" fill-opacity="0.2"/>
<path d="M265.452 60.1065C273.65 66.7892 284.2 62.7398 285.298 52.2852C285.66 48.8292 284.955 44.7665 282.38 40.0985C272.568 22.3172 257.032 20.2465 251.088 34.4145C247.42 43.1598 257.33 53.4838 265.452 60.1065Z" fill="#00816A" fill-opacity="0.2"/>
<path d="M597.212 332.862C613.651 316.335 626.17 297.662 613.716 294.75C601.251 291.834 580.316 324.381 576.668 354.002L573.018 363.782C576.054 342.241 568.672 316.002 557.864 314.921C547.127 313.846 553.627 330.867 562.155 345.422C568.647 356.502 570.358 365.243 570.787 369.761L553.543 415.951C558.252 381.826 546.559 340.422 529.46 338.711C512.42 337.006 522.734 364.013 536.267 387.109C546.495 404.561 549.246 418.366 549.95 425.578L546.512 434.787C548.016 435.635 549.523 436.473 551.036 437.301L571.551 382.346C575.508 379.391 581.518 375.822 590.074 372.927C606.055 367.521 622.118 358.923 613.3 352.698C605.65 347.295 587.664 357.694 575.275 372.37L582.368 353.366C585.568 347.861 590.118 339.994 597.212 332.862Z" fill="#005F4E"/>
<path d="M79.0295 117.265C81.1615 97.3059 79.5015 78.0152 69.5681 82.7726C59.6268 87.5352 63.1108 120.677 76.6295 142.538L79.4495 151.073C69.8761 134.97 50.7748 121.327 42.9335 126.427C35.1428 131.494 48.6828 139.421 62.2575 144.598C72.5895 148.539 78.4508 153.487 81.1735 156.291L94.4935 196.606C79.2601 171.149 49.0868 149.647 36.6815 157.715C24.3201 165.755 45.8041 178.333 67.3428 186.547C83.6188 192.757 92.9081 200.543 97.2681 205.007L99.9241 213.046C101.391 212.805 102.855 212.554 104.317 212.294L88.4708 164.331C89.5361 160.213 91.6468 154.575 95.8335 148.019C103.651 135.775 109.803 121.342 100.527 121.914C92.4761 122.41 86.0028 139.089 85.5935 155.623L80.1135 139.037C79.2948 133.615 78.1095 125.879 79.0295 117.265Z" fill="#005F4E"/>
<path d="M486.246 387.759C486.454 388.891 486.697 390.123 486.98 391.436V391.44C489.94 405.201 497.206 427.731 513.556 432.16C513.556 432.16 504.657 385.755 536.377 373.669C568.097 361.583 564.589 350.075 562.776 329.591C560.962 309.107 553.953 305.2 575.962 286.012C597.972 266.825 593.762 238.245 593.762 238.245C593.762 238.245 572.934 270.877 550.686 271.633C528.44 272.392 524.544 291.384 525.492 305.508C526.44 319.629 507.546 321.228 497.322 329.419C487.1 337.612 485.173 380.629 485.173 380.629C485.173 380.629 485.454 383.441 486.246 387.759Z" fill="#73C5B5"/>
<path d="M486.246 387.759C486.454 388.891 486.697 390.123 486.979 391.437C489.259 384.531 492.469 378.731 495.471 374.281C502.587 363.738 512.607 355.078 521.619 351.679C535.969 346.273 542.977 332.198 544.334 306.043C545.121 290.861 561.003 281.893 561.167 281.806C561.631 281.549 561.801 280.961 561.543 280.498C561.285 280.031 560.699 279.861 560.235 280.119C559.542 280.502 543.253 289.679 542.409 305.942C541.098 331.227 534.477 344.779 520.941 349.881C511.433 353.463 501.313 362.182 493.874 373.202C491.245 377.097 488.462 382.001 486.246 387.759Z" fill="#00715D"/>
<path d="M135.144 431.907H157.433C145.389 429.917 115.529 417.098 112.867 391.391C109.495 358.833 97.8999 359.241 78.3652 355.835C58.8292 352.431 53.4479 357.99 41.0439 332.713C28.6412 307.435 0.966553 304.251 0.966553 304.251C0.966553 304.251 26.1892 331.771 21.3626 352.687C16.5346 373.602 33.2612 381.955 46.6546 384.585C60.0492 387.213 56.8386 405.213 61.9279 416.774C64.2519 422.05 73.7586 427.519 83.4106 431.907H135.144Z" fill="#00715D"/>
<path d="M86.8645 399.858C87.8378 409.607 93.4445 421.205 101.863 430.875C102.158 431.215 102.466 431.559 102.78 431.907H105.316C104.591 431.143 103.903 430.389 103.264 429.655C95.2112 420.403 89.6352 408.915 88.7098 399.673C87.2405 384.959 75.8698 374.931 51.8392 367.162C37.8912 362.654 33.4845 345.625 33.4445 345.45C33.3205 344.954 32.8152 344.651 32.3192 344.775C31.8205 344.899 31.5165 345.403 31.6405 345.899C31.8245 346.641 36.3258 364.099 51.2658 368.93C74.4978 376.439 85.4765 385.978 86.8645 399.858Z" fill="#005F4E"/>
<path d="M147.165 371.483C146.693 373.065 146.159 374.787 145.555 376.617L145.553 376.621C139.216 395.798 126.216 428.101 102.208 431.907C102.208 431.907 121.209 365.793 77.8161 343.677C34.4228 321.558 41.1961 305.679 46.9321 276.737C52.6668 247.794 63.2668 243.299 34.8188 212.543C6.37078 181.787 16.7695 141.663 16.7695 141.663C16.7695 141.663 41.4668 191.417 73.0881 195.917C104.708 200.417 107.347 228.11 103.824 248.113C100.3 268.114 127.008 273.295 140.332 286.555C153.657 299.813 149.792 361.478 149.792 361.478C149.792 361.478 148.957 365.446 147.165 371.483Z" fill="#73C5B5"/>
<path d="M147.165 371.483C146.693 373.064 146.159 374.787 145.555 376.616C143.361 366.414 139.676 357.647 136.076 350.836C127.547 334.703 114.583 320.808 102.248 314.574C82.6093 304.655 74.776 283.5 76.86 245.978C78.0706 224.199 56.7906 208.964 56.572 208.815C55.9493 208.376 55.7973 207.512 56.236 206.891C56.676 206.264 57.5386 206.112 58.1613 206.551C59.0906 207.204 80.9173 222.8 79.6213 246.13C77.6053 282.402 84.968 302.752 103.493 312.112C116.508 318.684 129.603 332.678 138.521 349.543C141.672 355.503 144.888 362.926 147.165 371.483Z" fill="#00715D"/>
<path d="M164.377 416.361C164.452 421.387 164.542 426.617 164.652 431.907H213.13C213.224 426.117 213.294 420.566 213.348 415.361C213.493 401.25 213.509 389.637 213.498 382.419C213.493 377.299 213.472 374.397 213.472 374.397L164.037 373.873C164.037 373.873 164.037 378.143 164.074 385.129C164.106 392.891 164.193 404.007 164.377 416.361Z" fill="#18315B"/>
<path d="M164.074 385.129C164.106 392.891 164.193 404.007 164.377 416.361C179.606 417.523 196.301 417.534 213.348 415.361C213.493 401.25 213.509 389.637 213.498 382.419L164.074 385.129Z" fill="#000B29"/>
<path d="M103.281 405.214C103.335 413.115 103.429 422.168 103.586 431.908H152.07C152.189 426.204 152.286 420.571 152.365 415.187C152.531 403.634 152.618 393.234 152.662 385.755C152.699 378.398 152.699 373.872 152.699 373.872L103.242 374.398C103.242 374.398 103.205 379.64 103.215 388.463C103.215 393.13 103.237 398.791 103.281 405.214Z" fill="#18315B"/>
<path d="M103.216 388.464C103.216 393.13 103.237 398.79 103.281 405.214C113.125 408.116 130.75 412.63 152.364 415.188C152.532 403.634 152.618 393.233 152.661 385.755L103.216 388.464Z" fill="#000B29"/>
<path d="M184.488 113.773C184.488 113.773 192.278 106.271 192.253 98.8614C192.226 91.4521 187.189 93.6414 184.488 86.7374C181.786 79.8321 173.754 75.6228 169.35 76.4654C164.946 77.3068 155.648 60.1308 143.036 63.1614C130.424 66.1921 131.522 82.3588 126.089 84.7161C120.657 87.0734 122.173 96.6721 125.036 98.8614C127.898 101.051 129.109 109.848 130.721 109.649C132.332 109.452 184.488 113.773 184.488 113.773Z" fill="#18315B"/>
<path d="M132.055 113.597C132.055 113.597 127.157 107.067 123.515 112.467C119.873 117.867 125.023 133.817 133.939 129.924L132.055 113.597Z" fill="#F97853"/>
<path d="M131.992 124.994C131.663 124.994 131.36 124.777 131.267 124.443C129.884 119.519 124.783 117.523 124.732 117.503C124.344 117.355 124.148 116.921 124.296 116.533C124.443 116.143 124.878 115.947 125.266 116.094C125.504 116.185 131.127 118.366 132.718 124.037C132.83 124.438 132.596 124.854 132.196 124.966C132.128 124.985 132.059 124.994 131.992 124.994Z" fill="#EA5143"/>
<path d="M126.842 122.514C126.702 122.514 126.561 122.475 126.434 122.394C126.085 122.168 125.984 121.702 126.209 121.352C126.248 121.294 127.149 119.918 129.037 119.072C129.416 118.902 129.864 119.072 130.033 119.452C130.204 119.832 130.033 120.278 129.653 120.448C128.193 121.1 127.482 122.158 127.477 122.168C127.333 122.392 127.09 122.514 126.842 122.514Z" fill="#EA5143"/>
<path d="M182.532 113.597C182.532 113.597 187.429 107.067 191.072 112.467C194.713 117.867 189.564 133.817 180.648 129.924L182.532 113.597Z" fill="#F97853"/>
<path d="M182.594 124.994C182.924 124.994 183.226 124.777 183.32 124.443C184.702 119.519 189.804 117.523 189.854 117.503C190.242 117.355 190.438 116.921 190.29 116.533C190.144 116.143 189.709 115.947 189.321 116.094C189.082 116.185 183.46 118.366 181.869 124.037C181.757 124.438 181.99 124.854 182.39 124.966C182.458 124.985 182.528 124.994 182.594 124.994Z" fill="#EA5143"/>
<path d="M187.744 122.514C187.884 122.514 188.026 122.475 188.152 122.394C188.502 122.168 188.603 121.702 188.378 121.352C188.339 121.294 187.438 119.918 185.55 119.072C185.171 118.902 184.723 119.072 184.554 119.452C184.383 119.832 184.554 120.278 184.934 120.448C186.394 121.1 187.104 122.158 187.11 122.168C187.254 122.392 187.496 122.514 187.744 122.514Z" fill="#EA5143"/>
<path d="M169.35 143.452V159.313C169.35 159.313 164.62 167.392 158.222 167.941C151.832 168.498 146.154 160.986 146.154 160.986V144.566L169.35 143.452Z" fill="#FFA681"/>
<path d="M169.35 143.451V150.489C165.058 155.253 157.434 156.442 146.154 154.777V144.566L169.35 143.451Z" fill="#F97853"/>
<path d="M186.073 102.716C185.78 108.88 185.192 116.588 184.016 122.752C183.722 124.289 183.39 125.736 183.021 127.032C179.684 138.718 171.334 158.764 147.96 150.413C137.636 146.729 132.85 135.23 130.718 123.536C129.272 115.593 129.053 107.568 129.158 101.834C129.272 95.9785 132.466 90.6291 137.561 87.7438C151.358 79.9211 165.916 82.8371 175.501 86.5225C182.156 89.0771 186.412 95.6091 186.073 102.716Z" fill="#FFA681"/>
<path d="M156.808 132.122C172.47 129.434 169.67 138.603 169.57 138.931V138.937L169.564 138.942C168.503 139.953 167.422 140.802 166.347 141.382C160.279 144.661 159.622 144.166 157.227 144.271C154.792 144.389 151.434 143.666 148.023 141.761C146.962 141.165 145.376 140.013 143.638 138.427C143.638 138.427 141.178 130.015 156.808 132.122ZM130.72 123.534C130.72 123.534 132.988 137.047 135.131 141.974C137.278 146.899 143.13 147.827 145.327 151.991C148.462 157.927 153.24 162.631 161.1 159.765C167.64 157.379 167.344 154.037 171.007 151.45C177.284 147.017 180.395 142.141 180.648 138.098C180.9 134.057 184.018 122.751 184.018 122.751L180.648 122.513C180.648 122.513 178.728 126.489 175.904 130.87C173.071 124.646 159.415 129.171 159.415 129.171L156.808 130.015L154.131 129.171C154.131 129.171 140.314 124.837 137.586 131.365C135.914 128.809 134.555 125.933 133.939 122.887L130.72 123.534Z" fill="#18315B"/>
<path d="M147.395 115.667C147.395 117.36 146.523 118.732 145.447 118.732C144.37 118.732 143.498 117.36 143.498 115.667C143.498 113.974 144.37 112.602 145.447 112.602C146.523 112.602 147.395 113.974 147.395 115.667Z" fill="#18315B"/>
<path d="M170.566 115.667C170.566 117.36 169.694 118.732 168.617 118.732C167.541 118.732 166.668 117.36 166.668 115.667C166.668 113.974 167.541 112.602 168.617 112.602C169.694 112.602 170.566 113.974 170.566 115.667Z" fill="#18315B"/>
<path d="M176.29 105.571C176.29 105.571 168.235 102.388 162.035 105.067L162.654 108.515C162.654 108.515 171.756 107.746 176.343 109.604C176.752 108.276 176.814 106.935 176.29 105.571Z" fill="#18315B"/>
<path d="M137.995 105.587C137.995 105.587 146.108 102.38 152.356 105.079L151.731 108.553C151.731 108.553 142.562 107.779 137.942 109.649C137.528 108.312 137.467 106.961 137.995 105.587Z" fill="#18315B"/>
<path d="M157.555 128.516C158.826 128.516 160.087 128.021 160.282 127.941C160.667 127.784 160.851 127.345 160.694 126.96C160.538 126.573 160.098 126.389 159.713 126.546C159.033 126.821 157.398 127.256 156.691 126.832C156.554 126.749 156.367 126.588 156.319 126.129C156.047 123.498 156.769 114.678 156.775 114.589C156.81 114.176 156.501 113.812 156.086 113.777C155.67 113.741 155.307 114.052 155.274 114.466C155.243 114.834 154.534 123.516 154.821 126.285C154.929 127.328 155.475 127.861 155.917 128.125C156.399 128.413 156.978 128.516 157.555 128.516Z" fill="#F97853"/>
<path d="M147.948 133.63C148.52 136.509 150.422 141.804 156.827 141.804C163.248 141.804 165.048 136.965 165.668 133.63H147.948Z" fill="white"/>
<path d="M186.073 102.716C185.78 108.88 185.192 116.588 184.016 122.752L180.648 122.513C180.648 122.513 181.464 117.309 181.841 113.919C182.217 110.527 182.857 104.189 179.964 103.399C177.077 102.615 178.772 95.3841 174.756 92.2495C170.74 89.1068 161.817 86.3415 155.894 89.9895C149.972 93.6281 143.236 91.6161 140.508 92.2495C137.772 92.8748 134.065 96.6428 135.066 100.161C136.076 103.672 133.062 105.813 132.332 109.452C131.601 113.092 133.936 122.888 133.936 122.888L130.718 123.536C129.272 115.593 129.053 107.568 129.158 101.835C129.272 95.9788 132.466 90.6295 137.561 87.7441C151.358 79.9215 165.916 82.8375 175.501 86.5228C182.156 89.0775 186.412 95.6095 186.073 102.716Z" fill="#18315B"/>
<path d="M223.716 398.232C208.47 402.093 193.223 404.59 177.966 405.74C177.274 405.789 176.588 405.84 175.896 405.886C173.799 406.029 171.702 406.146 169.606 406.237C159.228 406.684 148.847 406.509 138.467 405.708C136.374 405.548 134.283 405.364 132.188 405.148C131.52 405.084 130.852 405.013 130.18 404.936C117.786 403.592 105.396 401.354 92.9922 398.232C92.8682 386.806 93.0095 350.684 93.7109 311.51C93.7922 306.802 93.8829 302.05 93.9869 297.292C95.0855 245.664 97.2069 193.257 101.02 188.008C104.676 182.984 115.696 176.598 126.231 170.84C126.859 170.496 127.488 170.153 128.112 169.814C130.482 168.528 132.798 167.28 134.975 166.097C139.643 163.557 143.668 161.298 146.156 159.554V160.989C146.156 160.989 151.828 168.497 158.219 167.942C164.047 167.441 168.483 160.71 169.236 159.504C171.984 161.44 176.922 164.108 182.644 167.132C184.238 167.976 185.883 168.84 187.564 169.73C188.183 170.056 188.804 170.385 189.43 170.718C201.079 176.898 213.642 183.865 217.412 189.042C217.694 189.426 217.963 190.068 218.218 190.949C220.45 198.502 221.834 223.573 222.678 253.93C222.682 254.038 222.684 254.149 222.688 254.26C222.724 255.486 222.755 256.724 222.786 257.968C222.792 258.129 222.796 258.293 222.799 258.458C223.075 269.106 223.283 280.317 223.444 291.582C223.458 292.477 223.474 293.37 223.484 294.264C223.488 294.714 223.494 295.157 223.498 295.608C223.535 297.826 223.558 300.044 223.578 302.253C223.602 303.881 223.622 305.508 223.635 307.138C224.055 347.854 223.884 386.261 223.716 398.232Z" fill="#00715D"/>
<path d="M222.785 257.967C219.116 251.975 215.177 245.859 211.467 240.448C211.457 240.435 211.447 240.421 211.44 240.408C209.881 238.136 208.365 235.992 206.924 234.033C206.9 233.995 206.876 233.963 206.849 233.932C206.399 233.317 205.952 232.719 205.516 232.137C205.445 232.037 205.392 231.933 205.357 231.823L205.355 231.819C205.237 231.425 205.368 230.989 205.713 230.725C206.161 230.387 206.796 230.475 207.132 230.921C211.588 236.825 217.288 245.315 222.677 253.931C222.681 254.039 222.684 254.149 222.688 254.26C222.725 255.487 222.756 256.723 222.785 257.967Z" fill="#00715D"/>
<path d="M217.568 188.209C217.568 188.209 240.562 230.336 254.578 251.684C254.578 251.684 262.548 244.361 272.915 234.567C284.154 223.945 299.527 206.193 299.527 206.193L308.034 216.283C308.034 216.283 273.495 278.436 258.003 286.247C242.511 294.059 213.963 238.771 213.963 238.771L217.568 188.209Z" fill="#00715D"/>
<path d="M120.214 354.235H120.176C119.602 354.214 119.154 353.733 119.174 353.158C120.38 319.139 102.739 308.117 102.56 308.01C102.07 307.713 101.908 307.075 102.204 306.583C102.498 306.093 103.135 305.93 103.628 306.223C103.824 306.341 108.487 309.174 113.004 316.433C117.127 323.059 121.904 334.823 121.251 353.233C121.232 353.794 120.77 354.235 120.214 354.235Z" fill="#00715D"/>
<path d="M195.471 322.185C194.934 322.185 194.478 321.771 194.435 321.226C193.877 314.062 196.237 308.837 199.225 302.221C200.098 300.285 201.002 298.285 201.927 296.041C207.725 281.978 204.811 265.898 204.781 265.738C204.675 265.173 205.047 264.63 205.613 264.525C206.178 264.418 206.721 264.79 206.826 265.355C206.954 266.037 209.882 282.206 203.85 296.833C202.913 299.109 202.001 301.126 201.121 303.077C198.143 309.669 195.993 314.433 196.509 321.065C196.554 321.638 196.126 322.138 195.554 322.182C195.526 322.185 195.498 322.185 195.471 322.185Z" fill="#00715D"/>
<path d="M134.974 166.097C135.418 169.446 136.07 173.791 136.782 178.727C137.001 180.191 137.218 181.713 137.439 183.274C138.162 188.371 138.91 193.918 139.546 199.526C139.718 201.031 139.879 202.542 140.031 204.047C140.591 209.599 141.017 215.115 141.169 220.243C141.218 221.794 141.238 223.31 141.229 224.781C141.218 228.695 141.002 232.291 140.526 235.369C140.223 237.314 139.955 239.214 139.718 241.073C139.521 242.614 139.345 244.129 139.187 245.619C138.582 251.403 138.278 256.79 138.193 261.866C138.167 263.407 138.162 264.918 138.177 266.398C138.223 272.162 138.551 277.533 139.026 282.645C139.167 284.177 139.325 285.681 139.486 287.167C140.107 292.754 140.865 298.073 141.578 303.333C141.785 304.839 141.986 306.339 142.183 307.839C142.491 310.243 142.785 312.649 143.037 315.069C143.305 317.634 143.477 320.635 143.557 323.965C143.598 325.419 143.618 326.941 143.623 328.513C143.643 333.487 143.517 338.999 143.285 344.763C143.223 346.27 143.158 347.794 143.083 349.337C142.825 354.69 142.486 360.197 142.107 365.633C141.997 367.165 141.886 368.685 141.769 370.199C141.35 375.858 140.885 381.37 140.415 386.498C140.274 388.054 140.133 389.574 139.991 391.05C139.45 396.693 138.925 401.709 138.465 405.71C148.847 406.509 159.229 406.685 169.606 406.235C169.847 401.977 170.51 395.106 171.162 387.018C171.282 385.538 171.398 384.013 171.515 382.457C171.903 377.313 172.258 371.817 172.49 366.27C172.555 364.749 172.611 363.223 172.651 361.702C172.807 356.166 172.813 350.665 172.575 345.507C172.505 343.941 172.414 342.409 172.293 340.919C172.171 339.394 172.026 337.907 171.849 336.473C171.349 332.422 171.157 328.531 171.182 324.682C171.187 323.157 171.226 321.641 171.298 320.121C171.535 314.847 172.111 309.562 172.778 303.95C172.954 302.458 173.141 300.943 173.329 299.398C173.93 294.406 174.557 289.111 175.051 283.317C175.182 281.831 175.299 280.311 175.41 278.755C175.753 273.785 175.986 268.445 176.022 262.625C176.031 261.125 176.026 259.593 176.006 258.027C175.95 252.99 175.738 247.601 175.329 241.794C175.294 241.281 175.258 240.759 175.218 240.235C175.142 239.219 175.077 238.193 175.031 237.167C174.763 231.873 174.834 226.427 175.133 220.997C175.213 219.471 175.314 217.945 175.43 216.419C175.85 210.983 176.461 205.598 177.169 200.435C177.375 198.899 177.593 197.378 177.814 195.883C178.663 190.225 179.578 184.901 180.417 180.142C180.694 178.575 180.962 177.07 181.215 175.635C181.786 172.422 182.281 169.558 182.645 167.133C176.921 164.106 171.985 161.439 169.237 159.505C168.483 160.711 164.049 167.441 158.218 167.941C151.827 168.497 146.154 160.989 146.154 160.989V159.555C143.669 161.298 139.642 163.555 134.974 166.097Z" fill="white"/>
<path d="M136.782 178.727C137 180.192 137.217 181.712 137.44 183.273C143.173 183.404 149.908 182.545 158.021 180.671C166.71 178.671 174.374 179.02 180.417 180.141C180.694 178.575 180.962 177.069 181.214 175.635C174.668 174.427 166.408 174.079 157.001 176.247C148.993 178.089 142.325 178.939 136.782 178.727Z" fill="#E3E3E3"/>
<path d="M139.546 199.526C139.718 201.031 139.88 202.542 140.032 204.047C145.18 203.911 151.101 203.052 158.021 201.45C165.21 199.794 171.708 199.752 177.168 200.435C177.376 198.899 177.593 197.379 177.814 195.883C171.894 195.151 164.846 195.211 157.001 197.02C150.282 198.571 144.502 199.419 139.546 199.526Z" fill="#E3E3E3"/>
<path d="M141.168 220.243C141.219 221.794 141.239 223.31 141.228 224.779C146.093 224.551 151.631 223.705 158.021 222.229C164.336 220.773 170.115 220.566 175.132 220.995C175.213 219.47 175.313 217.945 175.431 216.419C170.035 215.974 163.816 216.227 157.001 217.798C151.004 219.182 145.755 220.006 141.168 220.243Z" fill="#E3E3E3"/>
<path d="M139.188 245.618C144.533 245.558 150.716 244.69 158.021 243.007C164.417 241.533 170.268 241.339 175.329 241.794C175.294 241.279 175.258 240.758 175.218 240.234C175.142 239.218 175.077 238.193 175.032 237.166C169.726 236.767 163.649 237.041 157.001 238.577C150.357 240.111 144.638 240.951 139.718 241.073C139.521 242.613 139.345 244.129 139.188 245.618Z" fill="#E3E3E3"/>
<path d="M138.177 266.397C143.749 266.442 150.252 265.579 158.021 263.786C164.725 262.239 170.813 262.093 176.021 262.623C176.032 261.123 176.026 259.591 176.006 258.027C170.48 257.517 164.064 257.729 157.001 259.355C149.66 261.047 143.446 261.901 138.193 261.866C138.168 263.407 138.162 264.918 138.177 266.397Z" fill="#E3E3E3"/>
<path d="M139.026 282.644C139.167 284.175 139.325 285.68 139.486 287.167C144.759 287.08 150.853 286.216 158.021 284.564C164.31 283.115 170.065 282.892 175.051 283.316C175.182 281.831 175.299 280.311 175.41 278.755C170.014 278.31 163.805 278.562 157.001 280.134C150.049 281.735 144.098 282.59 139.026 282.644Z" fill="#E3E3E3"/>
<path d="M141.577 303.332C141.784 304.839 141.987 306.339 142.184 307.839C146.816 307.551 152.04 306.723 158.021 305.344C163.376 304.106 168.343 303.767 172.777 303.95C172.955 302.459 173.141 300.943 173.328 299.398C168.439 299.175 162.947 299.539 157 300.914C151.176 302.251 146.063 303.071 141.577 303.332Z" fill="#E3E3E3"/>
<path d="M143.557 323.964C143.597 325.419 143.617 326.939 143.623 328.511C147.892 328.152 152.656 327.359 158.021 326.116C162.745 325.029 167.165 324.636 171.181 324.681C171.187 323.156 171.227 321.64 171.297 320.119C166.937 320.073 162.139 320.503 157.001 321.691C152.02 322.837 147.553 323.6 143.557 323.964Z" fill="#E3E3E3"/>
<path d="M143.083 349.336C147.488 348.997 152.424 348.184 158.021 346.896C163.291 345.683 168.185 345.335 172.576 345.507C172.505 343.94 172.415 342.409 172.293 340.92C167.671 340.788 162.532 341.192 157 342.465C151.903 343.641 147.352 344.416 143.284 344.763C143.224 346.269 143.159 347.795 143.083 349.336Z" fill="#E3E3E3"/>
<path d="M141.769 370.199C146.502 369.933 151.862 369.094 158.021 367.674C163.26 366.466 168.125 366.114 172.49 366.27C172.556 364.749 172.612 363.223 172.652 361.702C167.938 361.541 162.68 361.935 157.001 363.243C151.408 364.537 146.468 365.339 142.108 365.633C141.997 367.165 141.885 368.685 141.769 370.199Z" fill="#E3E3E3"/>
<path d="M139.991 391.049C145.15 390.917 151.08 390.053 158.02 388.451C162.735 387.365 167.15 386.966 171.162 387.018C171.283 385.537 171.399 384.011 171.515 382.455C167.095 382.39 162.224 382.814 157 384.021C150.671 385.481 145.174 386.314 140.415 386.497C140.274 388.053 140.132 389.574 139.991 391.049Z" fill="#E3E3E3"/>
<path d="M175.895 405.887C176.587 405.841 177.274 405.791 177.966 405.74C182.058 381.684 179.699 346.369 178.819 335.548C177.911 324.312 179.658 309.864 183.614 295.92C186.686 285.089 184.802 259.976 183.291 239.8C182.867 234.137 182.462 228.787 182.226 224.391C181.451 210.185 186.595 183.895 189.429 170.72C188.803 170.387 188.181 170.057 187.565 169.729C184.726 182.773 179.395 209.66 180.203 224.503C180.447 228.917 180.851 234.277 181.275 239.951C182.775 259.971 184.645 284.883 181.674 295.365C177.653 309.536 175.879 324.243 176.81 335.709C177.683 346.547 180.058 382.081 175.895 405.887Z" fill="#00715D"/>
<path d="M133.979 308C136.383 322.793 135.626 332.401 134.747 343.521C134.465 347.117 134.171 350.831 133.963 354.932C133.322 367.805 131.145 393.727 130.179 404.937C130.853 405.013 131.519 405.084 132.191 405.149C133.155 393.939 135.338 367.952 135.985 355.033C136.187 350.963 136.479 347.259 136.762 343.683C137.646 332.431 138.415 322.712 135.97 307.677C135.45 304.449 134.894 301.176 134.343 297.917C131.619 281.796 128.801 265.125 130.135 257.139C130.458 255.188 130.873 252.975 131.317 250.631C133.125 240.992 135.383 228.999 134.671 218.591C133.963 208.276 129.735 180.343 128.114 169.815C127.487 170.153 126.861 170.497 126.23 170.84C127.922 181.849 131.969 208.709 132.655 218.728C133.347 228.877 131.119 240.735 129.331 250.256C128.887 252.611 128.467 254.833 128.139 256.805C126.755 265.125 129.473 281.215 132.353 298.255C132.903 301.509 133.454 304.777 133.979 308Z" fill="#00715D"/>
<path d="M94.213 205.163C94.213 205.163 73.6303 273.802 68.533 298.263C63.4356 322.725 63.0423 373.577 63.0423 373.577C63.0423 373.577 54.0436 392.255 53.8303 400.569C53.6036 409.43 58.257 416.481 57.7263 422.281C57.1943 428.079 64.2556 424.931 62.261 413.186C60.2663 401.438 65.925 390.801 68.3676 391.141C70.8103 391.482 66.3463 403.967 68.5156 408.466C70.6836 412.965 73.4903 404.225 76.2823 398.921C79.1796 393.415 79.0103 381.402 77.6916 372.826C76.373 364.25 91.9183 312.161 91.993 297.067L111.678 230.547C111.678 230.547 105.176 202.779 94.213 205.163Z" fill="#FFA681"/>
<path d="M114.2 228.877C113.503 233.288 111.063 240.86 107.911 250.388V250.393C107.643 251.196 107.37 252.016 107.098 252.849C107.082 252.884 107.067 252.924 107.058 252.964C106.268 255.335 105.446 257.813 104.596 260.381C104.591 260.396 104.587 260.411 104.582 260.427C101.09 271.025 97.2258 283.149 93.9818 295.608C92.8658 299.872 91.8258 304.181 90.9005 308.475C89.7191 313.957 88.7191 319.423 87.9858 324.773C85.3538 344.045 80.3218 368.457 80.3218 368.457C72.9418 371.488 61.4018 367.487 61.4018 367.487C61.4018 367.487 61.1045 332.331 62.7511 318.671C64.7871 301.781 67.3791 289.757 70.5911 275.956C79.4325 237.969 94.9925 200.803 99.2618 190.947C99.6005 190.159 99.8671 189.547 100.055 189.124H103.728C110.956 193.715 116.084 216.995 114.2 228.877Z" fill="#00715D"/>
<path d="M60.8027 360.447L61.3814 368.537C61.3814 368.537 72.3534 372.102 80.5761 369.59L82.7507 362.375C74.8321 362.795 67.5161 362.599 60.8027 360.447Z" fill="#005F4E"/>
<path d="M107.911 250.388V250.393C107.911 250.509 107.891 250.625 107.851 250.743C107.603 251.424 107.349 252.127 107.097 252.849C107.081 252.884 107.067 252.924 107.057 252.965C106.248 255.257 105.425 257.753 104.596 260.381C104.592 260.396 104.587 260.412 104.581 260.427C100.283 274.087 95.912 291.273 93.9014 302.251C93.9214 300.044 93.9467 297.825 93.9827 295.608C92.8654 299.872 91.8254 304.181 90.9014 308.475C91.3147 304.449 92.4667 298.416 94.0374 291.583C97.2107 277.749 102.08 260.619 105.951 250.049C106.143 249.525 106.723 249.256 107.248 249.448C107.659 249.6 107.911 249.979 107.911 250.388Z" fill="#00715D"/>
<path d="M476.095 431.907H524.715C524.555 428.535 524.395 425.302 524.237 422.25C523.391 405.602 522.671 394.266 522.671 394.266L483.129 396.022L479.852 396.17L474.036 396.431C474.036 396.431 474.597 406.567 475.469 421.417C475.664 424.702 475.873 428.219 476.095 431.907Z" fill="#18315B"/>
<path d="M479.853 396.17L474.037 396.43C474.037 396.43 474.598 406.567 475.471 421.417C490.662 422.683 507.249 423.198 524.238 422.25C523.39 405.601 522.67 394.265 522.67 394.265L483.13 396.022L479.853 396.17Z" fill="#000B29"/>
<path d="M485.146 431.907C484.258 416.497 483.529 403.333 483.129 396.023L479.85 396.171C480.249 403.447 480.974 416.55 481.861 431.907H485.146Z" fill="#000B29"/>
<path d="M461.832 431.907C462.081 427.733 462.316 423.773 462.53 420.125C463.368 405.981 463.894 396.431 463.894 396.431L457.581 396.15L454.308 396.001L415.253 394.266C415.253 394.266 414.824 401.022 414.238 411.761C413.926 417.483 413.572 424.342 413.21 431.907H461.832Z" fill="#18315B"/>
<path d="M414.238 411.76C424.838 414.252 441.932 417.751 462.532 420.124C463.369 405.979 463.894 396.431 463.894 396.431L457.582 396.149L454.309 396.001L415.254 394.265C415.254 394.265 414.824 401.021 414.238 411.76Z" fill="#000B29"/>
<path d="M455.572 431.907C456.458 416.537 457.184 403.422 457.581 396.15L454.308 396.002C453.908 403.307 453.178 416.482 452.288 431.907H455.572Z" fill="#000B29"/>
<path d="M529.731 401.844C519.827 404.57 509.924 406.626 500.02 408.008C496.576 408.49 493.135 408.894 489.693 409.21C485.052 409.641 480.412 409.929 475.773 410.074C468.101 410.31 460.429 410.142 452.755 409.573C437.919 408.488 423.085 405.897 408.245 401.844C408.107 388.009 408.315 338.394 409.353 290.54C409.404 288.393 409.451 286.246 409.504 284.108C409.511 283.654 409.525 283.202 409.536 282.748C409.544 282.254 409.559 281.76 409.572 281.269C409.605 279.75 409.647 278.238 409.683 276.732C409.759 273.657 409.84 270.609 409.928 267.592C409.981 265.786 410.036 263.992 410.089 262.214C410.099 261.845 410.112 261.48 410.123 261.112C410.16 259.94 410.197 258.773 410.233 257.614V257.61C410.248 257.252 410.257 256.892 410.271 256.533C410.305 255.464 410.341 254.401 410.375 253.35C410.409 252.453 410.439 251.569 410.469 250.681C411.619 218.4 413.299 192.937 415.704 189.349C419.784 183.262 433.68 175.184 444.857 168.608C448.839 166.269 453.593 163.836 456.316 162.032C460.285 165.228 463.165 168.114 469.049 167.916C475.633 167.69 477.256 163.732 479.765 160.337C481.299 161.332 485.191 164.525 487.213 165.71C488.944 166.733 490.819 167.814 492.775 168.94C495.8 170.672 499.016 172.509 502.201 174.384C506.923 177.164 511.577 180.03 515.437 182.769C519.293 185.508 522.355 188.125 523.869 190.394C526.053 193.674 527.469 214.909 528.379 242.856C528.417 243.833 528.443 244.824 528.481 245.821C528.483 245.942 528.483 246.064 528.483 246.189C528.521 247.204 528.551 248.245 528.575 249.286C528.665 252.432 528.749 255.645 528.836 258.912C528.853 259.6 528.869 260.296 528.88 260.988C528.893 261.509 528.911 262.034 528.915 262.548C528.944 263.892 528.975 265.24 529.004 266.6C529.011 266.872 529.015 267.145 529.021 267.417C529.095 271.002 529.165 274.64 529.229 278.305C529.251 279.377 529.267 280.452 529.284 281.528C530.113 331.838 529.923 386.978 529.731 401.844Z" fill="#00715D"/>
<path d="M529.284 281.527L513.6 297.437L498.988 282.623L484.38 297.437L469.714 282.562L455.042 297.437L440.28 282.465L425.514 297.437L409.572 281.27C409.605 279.75 409.645 278.238 409.682 276.731C409.758 273.658 409.84 270.61 409.928 267.591L425.514 251.783L440.28 266.758L455.042 251.783L469.714 266.658L484.38 251.783L498.988 266.597L513.6 251.783L529.021 267.417C529.094 271.002 529.165 274.639 529.229 278.305C529.25 279.378 529.266 280.451 529.284 281.527Z" fill="#008971"/>
<path d="M502.212 363.523H502.207C481.208 363.431 463.284 353.875 451.945 345.875C439.683 337.222 432.249 328.455 432.177 328.369C431.817 327.941 431.872 327.303 432.299 326.943C432.727 326.586 433.364 326.641 433.723 327.067C433.795 327.153 441.092 335.753 453.156 344.257C464.247 352.074 481.763 361.413 502.216 361.502C502.775 361.503 503.225 361.959 503.223 362.517C503.22 363.073 502.768 363.523 502.212 363.523Z" fill="#00715D"/>
<path d="M489.113 351.102C471.233 347.588 455.407 333.894 454.688 333.265C454.268 332.898 454.225 332.26 454.592 331.84C454.96 331.42 455.597 331.378 456.019 331.744C456.204 331.906 474.829 348.012 493.808 349.744C494.373 349.79 494.775 350.286 494.724 350.842C494.673 351.397 494.181 351.806 493.627 351.756C492.112 351.618 490.605 351.396 489.113 351.102Z" fill="#00715D"/>
<path d="M453.305 195.703C452.829 195.703 452.405 195.366 452.313 194.88C452.209 194.332 452.569 193.804 453.117 193.7C478.719 188.842 486.437 172.371 486.51 172.206C486.741 171.698 487.339 171.471 487.847 171.702C488.357 171.931 488.582 172.53 488.351 173.038C488.029 173.754 480.118 190.634 453.494 195.684C453.43 195.698 453.366 195.703 453.305 195.703Z" fill="#00715D"/>
<path d="M422.067 240.039V240.046C422.043 240.156 421.992 240.267 421.928 240.368C421.545 240.983 421.145 241.619 420.745 242.267C420.725 242.303 420.703 242.335 420.685 242.375C419.405 244.444 418.071 246.706 416.696 249.095C416.693 249.112 416.687 249.122 416.672 249.135C414.525 252.896 412.301 256.972 410.123 261.112C410.16 259.94 410.197 258.774 410.233 257.615V257.611C410.248 257.251 410.257 256.892 410.271 256.532C413.783 250.012 417.284 243.914 420.221 239.29C420.524 238.815 421.145 238.68 421.619 238.976C421.985 239.215 422.153 239.639 422.067 240.039Z" fill="#00715D"/>
<path d="M551.078 202.59C551.078 202.59 583.818 192.067 593.506 170.583C596.309 164.361 573.222 101.189 573.222 101.189L562.081 101.729C562.081 101.729 565.255 123.646 567.181 136.058C568.763 146.262 571.321 158.454 572.183 162.47C572.371 163.341 572.477 163.825 572.477 163.825C571.93 163.919 571.382 164.025 570.823 164.135C555.527 167.243 535.997 177.206 535.997 177.206L551.078 202.59Z" fill="#FFA681"/>
<path d="M580.701 169.879C581.166 170.218 581.831 170.117 582.166 169.649C582.517 169.174 582.41 168.518 581.935 168.185C579.554 166.454 575.958 164.423 572.183 162.47C572.371 163.341 572.477 163.825 572.477 163.825C571.93 163.919 571.382 164.025 570.823 164.135C574.667 166.11 578.345 168.167 580.701 169.879Z" fill="#F97853"/>
<path d="M500.983 173.689C500.983 173.689 491.079 196.929 516.291 209.868C533.739 218.823 573.486 195.444 573.486 195.444L559.315 165.357C559.315 165.357 522.95 180.357 500.983 173.689Z" fill="#00715D"/>
<path d="M567.519 65.6721C566.533 66.3641 566.734 70.6321 567.167 74.6521C567.03 74.6721 566.887 74.6961 566.745 74.7214C565.573 69.3561 563.239 60.2294 561.243 61.9721C559.937 63.1121 561.687 70.9801 562.879 75.6867C562.633 75.7627 562.385 75.8414 562.139 75.9214C560.635 70.3334 557.397 59.5721 555.241 61.6654C553.802 63.0614 556.563 72.5361 558.098 77.3707C557.882 77.4547 557.674 77.5374 557.469 77.6187C556.002 72.9294 552.87 64.0587 550.722 66.1427C548.778 68.0294 554.349 81.4401 554.349 81.4401L555.809 86.7041C555.809 86.7041 554.073 87.4534 551.365 84.3894C548.657 81.3267 545.418 80.7867 547.666 85.2187C550.21 90.2281 553.973 93.8201 555.629 97.3641C557.285 100.908 562.495 102.08 562.495 102.08L572.958 101.575C572.958 101.575 574.989 83.8907 571.085 75.4614C570.414 70.4494 569.235 64.4681 567.519 65.6721Z" fill="#FFA681"/>
<path d="M438.066 106.454C438.066 124.276 449.038 136.556 466.852 136.556C484.673 136.556 497.096 123.353 497.096 105.532C497.096 100.617 496.294 96.0277 494.753 91.9677C494.661 91.725 494.57 91.4837 494.473 91.249C494.284 90.7877 494.088 90.3263 493.874 89.8797C493.565 89.193 493.217 88.5197 492.854 87.869C488.212 79.521 479.894 74.213 468.718 74.213C447.352 74.213 438.066 88.633 438.066 106.454Z" fill="#18315B"/>
<path d="M442.067 114.128C442.067 114.128 437.116 107.527 433.435 112.986C429.753 118.444 434.959 134.567 443.972 130.631L442.067 114.128Z" fill="#F97853"/>
<path d="M442.003 125.648C441.671 125.648 441.364 125.427 441.269 125.092C439.873 120.115 434.716 118.096 434.664 118.076C434.272 117.926 434.075 117.487 434.223 117.094C434.372 116.702 434.811 116.503 435.204 116.651C435.445 116.743 441.128 118.948 442.737 124.68C442.851 125.086 442.613 125.506 442.208 125.619C442.141 125.639 442.072 125.648 442.003 125.648Z" fill="#EA5143"/>
<path d="M436.798 123.141C436.657 123.141 436.513 123.102 436.385 123.019C436.033 122.791 435.931 122.321 436.158 121.966C436.195 121.907 437.107 120.515 439.017 119.662C439.398 119.49 439.851 119.662 440.023 120.046C440.194 120.43 440.023 120.881 439.639 121.053C438.162 121.713 437.445 122.781 437.438 122.791C437.293 123.018 437.047 123.141 436.798 123.141Z" fill="#EA5143"/>
<path d="M493.089 114.128C493.089 114.128 498.041 107.527 501.722 112.986C505.403 118.444 500.198 134.567 491.185 130.631L493.089 114.128Z" fill="#F97853"/>
<path d="M493.154 125.648C493.486 125.648 493.792 125.427 493.887 125.092C495.283 120.115 500.44 118.096 500.492 118.076C500.884 117.926 501.082 117.487 500.932 117.094C500.784 116.702 500.346 116.503 499.952 116.651C499.711 116.743 494.028 118.948 492.419 124.68C492.306 125.086 492.542 125.506 492.947 125.619C493.015 125.639 493.084 125.648 493.154 125.648Z" fill="#EA5143"/>
<path d="M498.358 123.141C498.499 123.141 498.643 123.102 498.77 123.019C499.123 122.791 499.225 122.321 498.997 121.966C498.959 121.907 498.049 120.515 496.139 119.662C495.758 119.49 495.305 119.662 495.133 120.046C494.961 120.43 495.133 120.881 495.517 121.053C496.994 121.713 497.711 122.781 497.718 122.791C497.863 123.018 498.109 123.141 498.358 123.141Z" fill="#EA5143"/>
<path d="M479.765 144.305V160.339C479.765 160.339 474.984 168.504 468.516 169.06C462.057 169.623 456.317 162.029 456.317 162.029V145.432L479.765 144.305Z" fill="#FFA681"/>
<path d="M479.765 144.306V151.419C475.425 156.234 467.72 157.436 456.317 155.754V145.432L479.765 144.306Z" fill="#F97853"/>
<path d="M496.67 103.129C496.372 109.36 495.778 117.152 494.59 123.381C494.294 124.936 493.958 126.398 493.586 127.709C490.21 139.521 481.771 159.782 458.143 151.344C447.708 147.618 442.871 135.996 440.716 124.174C439.254 116.146 439.032 108.034 439.14 102.237C439.254 96.3198 442.483 90.9118 447.632 87.9945C461.579 80.0878 476.295 83.0358 485.983 86.7611C492.708 89.3425 497.012 95.9465 496.67 103.129Z" fill="#FFA681"/>
<path d="M457.447 116.221C457.447 117.933 456.566 119.319 455.476 119.319C454.39 119.319 453.507 117.933 453.507 116.221C453.507 114.509 454.39 113.122 455.476 113.122C456.566 113.122 457.447 114.509 457.447 116.221Z" fill="#18315B"/>
<path d="M480.669 116.156C480.669 117.868 479.787 119.255 478.699 119.255C477.611 119.255 476.728 117.868 476.728 116.156C476.728 114.444 477.611 113.058 478.699 113.058C479.787 113.058 480.669 114.444 480.669 116.156Z" fill="#18315B"/>
<path d="M485.121 105.507C485.121 105.507 478.905 103.049 474.118 105.117L474.597 107.78C474.597 107.78 481.622 107.185 485.161 108.62C485.479 107.595 485.525 106.56 485.121 105.507Z" fill="#18315B"/>
<path d="M448.902 105.507C448.902 105.507 455.118 103.049 459.905 105.117L459.428 107.78C459.428 107.78 452.402 107.185 448.862 108.62C448.545 107.595 448.498 106.56 448.902 105.507Z" fill="#18315B"/>
<path d="M467.843 129.207C469.128 129.207 470.403 128.707 470.6 128.627C470.988 128.467 471.175 128.023 471.017 127.634C470.859 127.244 470.413 127.058 470.024 127.216C469.336 127.495 467.685 127.934 466.969 127.506C466.831 127.422 466.643 127.259 466.593 126.795C466.319 124.136 467.047 115.22 467.055 115.131C467.089 114.711 466.777 114.344 466.359 114.31C465.937 114.274 465.572 114.587 465.537 115.006C465.507 115.378 464.789 124.152 465.08 126.952C465.188 128.007 465.741 128.546 466.187 128.812C466.675 129.104 467.26 129.207 467.843 129.207Z" fill="#F97853"/>
<path d="M457.615 133.075C458.881 137.469 462.48 141.854 467.439 141.914C472.392 141.854 475.991 137.469 477.257 133.075H457.615Z" fill="white"/>
<path d="M467.014 146.689C468.986 146.689 470.657 145.691 470.727 145.648C471.087 145.431 471.203 144.963 470.985 144.603C470.766 144.243 470.298 144.128 469.938 144.345C469.926 144.353 468.55 145.165 467.014 145.165C465.605 145.165 464.257 144.357 464.242 144.349C463.883 144.129 463.415 144.239 463.194 144.597C462.974 144.955 463.085 145.424 463.442 145.645C463.51 145.688 465.153 146.689 467.014 146.689Z" fill="#F97853"/>
<path d="M495.863 114.263H492.411C492.792 110.797 493.339 104.693 490.494 103.819C481.499 101.056 493.155 94.7 489.095 91.5307C485.035 88.3547 474.93 89.716 467.902 89.488C460.832 89.26 449.467 89.36 446.711 89.9987C443.946 90.6307 445.46 95.2227 446.474 98.7787C447.495 102.328 443.084 106.26 442.346 109.939C442.134 110.993 442.178 112.563 442.347 114.263H439.47C439.128 109.785 439.076 105.617 439.139 102.237C439.254 96.3187 442.483 90.912 447.631 87.9947C461.578 80.088 476.294 83.036 485.983 86.7614C492.708 89.3427 497.011 95.9467 496.668 103.129C496.506 106.543 496.254 110.425 495.863 114.263Z" fill="#18315B"/>
<path d="M455.13 109.292C451.116 109.292 447.852 112.557 447.852 116.571C447.852 120.584 451.116 123.849 455.13 123.849C459.144 123.849 462.409 120.584 462.409 116.571C462.409 112.557 459.144 109.292 455.13 109.292ZM455.13 125.193C450.376 125.193 446.506 121.325 446.506 116.571C446.506 111.816 450.376 107.948 455.13 107.948C459.884 107.948 463.753 111.816 463.753 116.571C463.753 121.325 459.884 125.193 455.13 125.193Z" fill="white"/>
<path d="M478.699 109.292C474.685 109.292 471.421 112.557 471.421 116.571C471.421 120.584 474.685 123.849 478.699 123.849C482.713 123.849 485.978 120.584 485.978 116.571C485.978 112.557 482.713 109.292 478.699 109.292ZM478.699 125.193C473.945 125.193 470.075 121.325 470.075 116.571C470.075 111.816 473.945 107.948 478.699 107.948C483.453 107.948 487.322 111.816 487.322 116.571C487.322 121.325 483.453 125.193 478.699 125.193Z" fill="white"/>
<path d="M447.964 113.793C447.793 113.793 447.622 113.729 447.492 113.598C447.452 113.56 443.536 109.76 438.396 110.958C438.036 111.042 437.673 110.818 437.589 110.457C437.505 110.096 437.729 109.734 438.092 109.649C443.968 108.278 448.258 112.465 448.438 112.645C448.701 112.906 448.704 113.332 448.44 113.596C448.31 113.728 448.137 113.793 447.964 113.793Z" fill="white"/>
<path d="M486.023 113.793C485.803 113.793 485.589 113.686 485.459 113.488C485.257 113.178 485.343 112.762 485.655 112.558C485.911 112.39 492.013 108.454 497.206 109.309C497.571 109.37 497.819 109.716 497.759 110.082C497.699 110.448 497.355 110.696 496.987 110.636C492.314 109.866 486.449 113.646 486.389 113.684C486.275 113.758 486.15 113.793 486.023 113.793Z" fill="white"/>
<path d="M470.55 114.634C470.535 114.612 468.938 112.454 466.839 112.454C464.759 112.454 463.316 114.608 463.302 114.631L462.176 113.896C462.25 113.782 464.023 111.108 466.839 111.108C469.634 111.108 471.559 113.735 471.639 113.847L470.55 114.634Z" fill="white"/>
<path d="M419.226 238.772C419.226 238.772 410.144 256.36 399.446 270.293C396.29 274.404 392.997 278.193 389.752 281.121C384.492 285.869 379.364 288.353 375.186 286.245C359.696 278.436 325.158 216.283 325.158 216.283L333.664 206.195C333.664 206.195 349.034 223.945 360.276 234.568C370.642 244.363 378.614 251.687 378.614 251.687C380.049 249.503 381.578 247.109 383.168 244.576C384.858 241.887 386.612 239.04 388.397 236.113C401.341 214.861 415.704 189.349 415.704 189.349L419.226 238.772Z" fill="#FFA681"/>
<path d="M399.447 270.293C396.291 274.404 392.997 278.194 389.752 281.121L383.168 244.576C384.859 241.886 386.612 239.041 388.397 236.113L399.447 270.293Z" fill="#F97853"/>
<path d="M415.705 189.349L384.659 238.176L395.078 281.121L420.769 239.289C420.769 239.289 423.885 210.672 415.705 189.349" fill="#00715D"/>
<path d="M376.668 431.907C374.452 419.619 372.265 405.762 370.279 392.303C369.844 389.326 369.417 386.377 368.996 383.465C367.404 372.322 365.98 361.785 364.839 353.043C364.403 349.721 364.012 346.655 363.656 343.919C362.548 335.191 361.897 329.77 361.897 329.77L312.872 331.623L263.696 329.77C263.696 329.77 262.429 340.497 260.4 356.049C260.029 358.879 259.633 361.866 259.217 364.982C258.125 373.145 256.877 382.157 255.535 391.386C255.515 391.521 255.495 391.657 255.475 391.791C255.053 394.667 254.628 397.563 254.187 400.459C254.181 400.499 254.177 400.535 254.167 400.575V400.581C253.115 407.579 252.012 414.569 250.891 421.293C250.429 424.067 249.963 426.794 249.492 429.449C249.347 430.275 249.2 431.095 249.055 431.907H376.668Z" fill="#00715D"/>
<path d="M274.997 344.495C274.997 347.047 272.929 349.116 270.377 349.116C267.825 349.116 265.755 347.047 265.755 344.495C265.755 341.943 267.825 339.874 270.377 339.874C272.929 339.874 274.997 341.943 274.997 344.495Z" fill="#00715D"/>
<path d="M286.463 362.395C286.463 364.947 284.394 367.017 281.843 367.017C279.291 367.017 277.222 364.947 277.222 362.395C277.222 359.843 279.291 357.774 281.843 357.774C284.394 357.774 286.463 359.843 286.463 362.395Z" fill="#00715D"/>
<path d="M309.022 353.154C309.022 355.706 306.953 357.774 304.401 357.774C301.85 357.774 299.781 355.706 299.781 353.154C299.781 350.602 301.85 348.533 304.401 348.533C306.953 348.533 309.022 350.602 309.022 353.154Z" fill="#00715D"/>
<path d="M273.417 381.406C273.417 383.958 271.349 386.027 268.797 386.027C266.245 386.027 264.175 383.958 264.175 381.406C264.175 378.854 266.245 376.786 268.797 376.786C271.349 376.786 273.417 378.854 273.417 381.406Z" fill="#00715D"/>
<path d="M301.606 379.431C301.606 381.983 299.538 384.051 296.986 384.051C294.434 384.051 292.365 381.983 292.365 379.431C292.365 376.879 294.434 374.809 296.986 374.809C299.538 374.809 301.606 376.879 301.606 379.431Z" fill="#00715D"/>
<path d="M263.406 360.383C263.406 362.788 261.572 364.767 259.218 364.981C259.632 361.865 260.028 358.88 260.4 356.049C262.158 356.705 263.406 358.395 263.406 360.383Z" fill="#00715D"/>
<path d="M347.544 406.577C347.544 409.129 345.475 411.198 342.923 411.198C340.371 411.198 338.302 409.129 338.302 406.577C338.302 404.026 340.371 401.957 342.923 401.957C345.475 401.957 347.544 404.026 347.544 406.577Z" fill="#00715D"/>
<path d="M345.361 381.406C345.361 383.958 343.291 386.027 340.741 386.027C338.189 386.027 336.119 383.958 336.119 381.406C336.119 378.854 338.189 376.786 340.741 376.786C343.291 376.786 345.361 378.854 345.361 381.406Z" fill="#00715D"/>
<path d="M370.279 392.303C369.723 392.539 369.107 392.668 368.465 392.668C365.916 392.668 363.847 390.599 363.847 388.049C363.847 385.497 365.916 383.429 368.465 383.429C368.645 383.429 368.821 383.44 368.996 383.464C369.417 386.376 369.844 389.327 370.279 392.303Z" fill="#00715D"/>
<path d="M349.982 425.023C349.982 427.575 347.912 429.645 345.36 429.645C342.808 429.645 340.74 427.575 340.74 425.023C340.74 422.471 342.808 420.403 345.36 420.403C347.912 420.403 349.982 422.471 349.982 425.023Z" fill="#00715D"/>
<path d="M369.746 417.647C369.746 420.199 367.677 422.269 365.125 422.269C362.573 422.269 360.503 420.199 360.503 417.647C360.503 415.097 362.573 413.027 365.125 413.027C367.677 413.027 369.746 415.097 369.746 417.647Z" fill="#00715D"/>
<path d="M328.62 431.907C327.789 430.693 326.396 429.893 324.812 429.893C323.228 429.893 321.834 430.693 321.004 431.907H328.62Z" fill="#00715D"/>
<path d="M270.376 410.594C270.376 413.146 268.307 415.216 265.755 415.216C263.204 415.216 261.135 413.146 261.135 410.594C261.135 408.044 263.204 405.974 265.755 405.974C268.307 405.974 270.376 408.044 270.376 410.594Z" fill="#00715D"/>
<path d="M258.185 396C258.185 398.346 256.437 400.284 254.166 400.576C254.177 400.535 254.182 400.5 254.186 400.46C254.628 397.564 255.053 394.668 255.474 391.792C257.073 392.524 258.185 394.132 258.185 396Z" fill="#00715D"/>
<path d="M252.784 425.019C252.784 427.108 251.396 428.872 249.492 429.448C249.963 426.794 250.429 424.067 250.891 421.292C252.037 422.134 252.784 423.491 252.784 425.019Z" fill="#00715D"/>
<path d="M281.842 426.975C281.842 429.527 279.773 431.597 277.221 431.597C274.67 431.597 272.601 429.527 272.601 426.975C272.601 424.423 274.67 422.355 277.221 422.355C279.773 422.355 281.842 424.423 281.842 426.975Z" fill="#00715D"/>
<path d="M306.227 423.356C306.227 425.908 304.158 427.978 301.606 427.978C299.055 427.978 296.986 425.908 296.986 423.356C296.986 420.804 299.055 418.736 301.606 418.736C304.158 418.736 306.227 420.804 306.227 423.356Z" fill="#00715D"/>
<path d="M288.83 400.639C288.83 403.191 286.762 405.261 284.21 405.261C281.658 405.261 279.589 403.191 279.589 400.639C279.589 398.087 281.658 396.018 284.21 396.018C286.762 396.018 288.83 398.087 288.83 400.639Z" fill="#00715D"/>
<path d="M313.642 396.018C313.642 398.57 311.574 400.64 309.022 400.64C306.47 400.64 304.401 398.57 304.401 396.018C304.401 393.468 306.47 391.398 309.022 391.398C311.574 391.398 313.642 393.468 313.642 396.018Z" fill="#00715D"/>
<path d="M324.811 371.636C324.811 374.188 322.743 376.258 320.191 376.258C317.639 376.258 315.57 374.188 315.57 371.636C315.57 369.084 317.639 367.016 320.191 367.016C322.743 367.016 324.811 369.084 324.811 371.636Z" fill="#00715D"/>
<path d="M364.839 353.043C364.517 353.119 364.187 353.153 363.847 353.153C361.291 353.153 359.227 351.083 359.227 348.533C359.227 346.048 361.191 344.015 363.656 343.919C364.012 346.655 364.403 349.721 364.839 353.043Z" fill="#00715D"/>
<path d="M340.741 353.154C340.741 355.706 338.672 357.774 336.12 357.774C333.568 357.774 331.498 355.706 331.498 353.154C331.498 350.602 333.568 348.533 336.12 348.533C338.672 348.533 340.741 350.602 340.741 353.154Z" fill="#00715D"/>
<path d="M357.664 369.622C357.664 372.173 355.595 374.242 353.043 374.242C350.491 374.242 348.421 372.173 348.421 369.622C348.421 367.07 350.491 365.001 353.043 365.001C355.595 365.001 357.664 367.07 357.664 369.622Z" fill="#00715D"/>
<path d="M329.432 410.594C329.432 413.146 327.363 415.216 324.811 415.216C322.259 415.216 320.191 413.146 320.191 410.594C320.191 408.044 322.259 405.974 324.811 405.974C327.363 405.974 329.432 408.044 329.432 410.594Z" fill="#00715D"/>
<path d="M364.879 330.983C339.016 347.867 291.528 346.545 261.688 330.983C264.539 313.227 268.292 295.451 267.486 271.817C267.395 269.227 267.284 266.651 267.155 264.102C267.039 261.882 266.908 259.678 266.768 257.498C264.194 218.182 257.484 186.037 260.782 181.883C262.219 180.065 264.619 178.101 267.58 176.091C268.742 175.299 269.986 174.498 271.298 173.697C274.394 171.807 277.836 169.903 281.294 168.05C289.495 163.671 297.822 159.607 301.995 156.833C306.134 158.635 309.431 159.622 312.983 159.603C313.078 159.603 313.183 159.603 313.288 159.593C313.383 159.603 313.49 159.603 313.584 159.603C317.136 159.622 320.432 158.635 324.576 156.833C328.45 159.407 335.74 162.999 343.18 166.918C348.646 169.798 354.192 172.855 358.511 175.821C361.338 177.761 363.646 179.663 365.059 181.447C366.692 183.507 366.007 192.535 364.608 205.913C363.226 219.074 361.156 236.455 359.904 255.559C359.558 260.865 359.272 266.301 359.082 271.817C358.28 295.451 362.027 313.227 364.879 330.983Z" fill="#008B73"/>
<path d="M349.063 311.346H349.059C328.232 311.255 310.455 301.778 299.211 293.843C287.049 285.263 279.679 276.568 279.605 276.482C279.249 276.058 279.304 275.426 279.728 275.07C280.151 274.712 280.784 274.767 281.139 275.191C281.211 275.275 288.447 283.806 300.412 292.238C311.412 299.991 328.783 309.254 349.067 309.342C349.62 309.344 350.068 309.795 350.065 310.348C350.063 310.9 349.613 311.346 349.063 311.346Z" fill="#00715D"/>
<path d="M335.275 299.223C317.541 295.737 301.845 282.156 301.133 281.532C300.716 281.168 300.673 280.535 301.037 280.119C301.403 279.701 302.035 279.661 302.452 280.024C302.636 280.185 321.108 296.157 339.931 297.875C340.491 297.92 340.888 298.413 340.839 298.964C340.788 299.515 340.301 299.921 339.748 299.871C338.248 299.735 336.753 299.513 335.275 299.223Z" fill="#00715D"/>
<path d="M309.021 207.479C308.549 207.479 308.129 207.145 308.038 206.663C307.934 206.119 308.291 205.595 308.835 205.493C334.226 200.674 341.879 184.341 341.953 184.175C342.181 183.671 342.774 183.447 343.279 183.675C343.783 183.903 344.007 184.497 343.779 185.001C343.458 185.711 335.613 202.451 309.209 207.461C309.146 207.474 309.082 207.479 309.021 207.479Z" fill="#00715D"/>
<path d="M343.177 166.918C338.138 178.414 325.748 190.318 309.636 187.534C294.034 184.838 286.633 176.584 281.293 168.05C289.497 163.668 297.822 159.61 301.994 156.832C306.134 158.634 309.43 159.62 312.981 159.604C313.077 159.604 313.184 159.604 313.286 159.594C313.382 159.604 313.49 159.604 313.586 159.604C317.136 159.62 320.433 158.634 324.578 156.832C328.449 159.406 335.741 162.999 343.177 166.918Z" fill="#FFA681"/>
<path d="M329.708 157.674C329.263 157.669 328.908 158.026 328.906 158.466C328.902 159.111 328.638 174.307 314.998 175.485C302.346 176.585 297.107 164.473 295.49 159.449C295.395 159.153 295.123 158.955 294.812 158.955H294.663C294.176 158.955 293.832 159.43 293.986 159.891C295.711 165.075 301.227 177.594 314.116 177.135C314.451 177.122 314.791 177.102 315.134 177.073C330.231 175.77 330.499 158.647 330.5 158.475C330.503 158.035 330.148 157.677 329.708 157.674Z" fill="white"/>
<path d="M339.35 76.9063C339.35 76.9063 351.542 95.789 350.206 115.457C348.87 135.125 352.002 157.83 334.404 156.832C316.804 155.834 285.412 163.888 275.434 148.57C265.457 133.25 339.35 76.9063 339.35 76.9063Z" fill="#18315B"/>
<path d="M343.868 111.626C343.868 111.626 347.032 140.135 333.506 147.986C319.976 155.835 310.186 147.071 310.186 147.071C310.186 147.071 338.7 107.332 343.868 111.626Z" fill="#000B29"/>
<path d="M287.676 111.494C287.676 111.494 282.818 105.018 279.206 110.372C275.594 115.728 280.701 131.547 289.544 127.686L287.676 111.494Z" fill="#F97853"/>
<path d="M287.613 122.797C287.287 122.797 286.987 122.581 286.893 122.252C285.524 117.368 280.464 115.388 280.413 115.369C280.028 115.221 279.835 114.79 279.98 114.405C280.127 114.02 280.557 113.825 280.943 113.97C281.179 114.06 286.755 116.224 288.333 121.848C288.444 122.245 288.212 122.658 287.815 122.769C287.748 122.788 287.68 122.797 287.613 122.797Z" fill="#EA5143"/>
<path d="M282.506 120.337C282.367 120.337 282.227 120.298 282.102 120.218C281.755 119.994 281.655 119.532 281.878 119.185C281.915 119.128 282.811 117.762 284.683 116.924C285.058 116.754 285.502 116.924 285.671 117.301C285.839 117.678 285.671 118.12 285.294 118.288C283.846 118.937 283.142 119.984 283.135 119.994C282.993 120.217 282.751 120.337 282.506 120.337Z" fill="#EA5143"/>
<path d="M337.736 111.494C337.736 111.494 342.593 105.018 346.205 110.372C349.817 115.728 344.71 131.547 335.868 127.686L337.736 111.494Z" fill="#F97853"/>
<path d="M337.798 122.797C338.125 122.797 338.425 122.581 338.517 122.252C339.887 117.368 344.946 115.388 344.998 115.369C345.382 115.221 345.577 114.79 345.431 114.405C345.285 114.02 344.854 113.825 344.469 113.97C344.231 114.06 338.657 116.224 337.078 121.848C336.967 122.245 337.199 122.658 337.597 122.769C337.663 122.788 337.731 122.797 337.798 122.797Z" fill="#EA5143"/>
<path d="M342.905 120.337C343.044 120.337 343.184 120.298 343.309 120.218C343.656 119.994 343.757 119.532 343.533 119.185C343.496 119.128 342.6 117.762 340.728 116.924C340.353 116.754 339.909 116.924 339.741 117.301C339.573 117.678 339.741 118.12 340.117 118.288C341.566 118.937 342.269 119.984 342.276 119.994C342.42 120.217 342.66 120.337 342.905 120.337Z" fill="#EA5143"/>
<path d="M324.663 141.103V156.834C324.663 156.834 319.971 164.846 313.628 165.39C307.289 165.943 301.657 158.492 301.657 158.492V142.208L324.663 141.103Z" fill="#FFA681"/>
<path d="M324.663 141.102V148.082C320.407 152.806 312.848 154.479 301.66 152.827L301.657 142.207L324.663 141.102Z" fill="#F97853"/>
<path d="M341.247 100.702C340.957 106.816 340.374 114.46 339.207 120.573C338.917 122.097 338.587 123.533 338.221 124.818C334.91 136.409 326.63 156.286 303.449 148.008C293.211 144.353 288.466 132.949 286.35 121.35C284.915 113.474 284.699 105.514 284.803 99.8277C284.915 94.021 288.083 88.7157 293.137 85.853C306.819 78.0957 321.258 80.9877 330.763 84.6424C337.362 87.1757 341.585 93.6557 341.247 100.702Z" fill="#FFA681"/>
<path d="M302.497 112.417C302.497 114.096 301.631 115.457 300.563 115.457C299.497 115.457 298.631 114.096 298.631 112.417C298.631 110.738 299.497 109.377 300.563 109.377C301.631 109.377 302.497 110.738 302.497 112.417Z" fill="#18315B"/>
<path d="M326.367 112.417C326.367 114.096 325.502 115.457 324.434 115.457C323.367 115.457 322.502 114.096 322.502 112.417C322.502 110.738 323.367 109.377 324.434 109.377C325.502 109.377 326.367 110.738 326.367 112.417Z" fill="#18315B"/>
<path d="M296.735 103.365C298.342 102.912 301.583 102.137 305.004 102.127C305.904 102.124 306.594 102.924 306.434 103.811L306.43 103.833C306.303 104.54 305.671 105.041 304.952 105.007C302.624 104.899 296.515 105.227 293.63 106.395C293.571 105.893 293.868 105.344 294.288 104.857C294.924 104.119 295.796 103.631 296.735 103.365Z" fill="#18315B"/>
<path d="M327.967 103.428C326.362 102.974 323.119 102.198 319.699 102.189C318.798 102.186 318.109 102.986 318.269 103.872L318.273 103.896C318.399 104.602 319.033 105.102 319.75 105.069C322.078 104.961 328.187 105.289 331.073 106.457C331.131 105.956 330.834 105.406 330.415 104.92C329.778 104.18 328.906 103.693 327.967 103.428Z" fill="#18315B"/>
<path d="M312.965 126.289C312.393 126.289 311.819 126.188 311.34 125.901C310.904 125.64 310.36 125.11 310.253 124.077C309.969 121.33 310.672 112.721 310.703 112.356C310.736 111.944 311.096 111.637 311.508 111.672C311.92 111.705 312.225 112.066 312.192 112.478C312.185 112.566 311.469 121.314 311.74 123.924C311.787 124.377 311.972 124.538 312.108 124.618C312.809 125.04 314.431 124.609 315.105 124.336C315.487 124.178 315.924 124.364 316.079 124.745C316.235 125.128 316.052 125.564 315.671 125.72C315.476 125.798 314.225 126.289 312.965 126.289Z" fill="#F97853"/>
<path d="M303.475 131.008C304.04 133.851 305.917 139.08 312.244 139.08C318.585 139.08 320.364 134.301 320.975 131.008H303.475Z" fill="white"/>
<path d="M312.153 143.441C310.328 143.441 308.716 142.459 308.648 142.416C308.296 142.2 308.188 141.739 308.405 141.388C308.621 141.037 309.08 140.929 309.432 141.144C309.445 141.152 310.761 141.947 312.153 141.947C313.66 141.947 315.009 141.149 315.024 141.14C315.377 140.929 315.836 141.043 316.048 141.396C316.261 141.748 316.149 142.207 315.796 142.42C315.726 142.463 314.088 143.441 312.153 143.441Z" fill="#F97853"/>
<path d="M344.256 99.4844C344.015 100.166 343.35 100.602 342.458 100.862C342.523 102.511 342.35 104.492 342.187 106.394C341.266 117.194 338.54 119.091 337.924 116.42C337.518 114.647 337.543 104.475 337.738 101.158C335.604 101.018 333.78 100.662 333.78 100.662L331.275 90.1751L330.398 100.531C326.64 101.839 317.872 99.7444 317.872 99.7444L314.932 89.4084L313.114 99.3538C307.476 102.099 300.432 100.271 300.432 100.271L298.814 89.5431L295.076 100.271C295.076 100.271 283.051 104.584 282.922 100.271C282.84 97.7604 284.679 90.6911 286.232 85.2151C287.926 79.2431 291.85 74.1978 297.155 71.3511C312.071 63.3458 327.843 67.6044 333.254 70.8364C344.728 77.6844 344.256 99.4844 344.256 99.4844Z" fill="#18315B"/>
<path d="M289.543 77.7053C289.543 77.7053 279.645 89.4786 276.387 110.508C273.131 131.536 268.622 147.072 281.293 154.015C295.007 161.531 293.819 146.117 293.622 141.928C293.425 137.74 281.759 126.289 289.543 94.0413C292.057 83.6306 289.543 77.7053 289.543 77.7053Z" fill="#18315B"/>
<path d="M287.23 121.159V121.184C287.234 121.339 287.245 122.176 287.305 123.484C287.336 124.296 287.385 125.283 287.461 126.405C287.926 133.489 289.305 145.724 293.353 149.968C294.952 151.647 298.032 152.488 301.66 152.828V147.263C297.837 145.448 294.856 142.467 292.546 138.8C291.118 135.709 288.658 130.869 287.506 123.259L287.23 121.159Z" fill="#000B29"/>
<path d="M341.427 128.04C341.427 129.008 340.642 129.791 339.676 129.791C338.708 129.791 337.924 129.008 337.924 128.04C337.924 127.074 338.708 126.29 339.676 126.29C340.642 126.29 341.427 127.074 341.427 128.04Z" fill="white"/>
<path d="M377.107 259.936C372.148 274.133 349.937 273.1 324.641 265.338C324.605 265.328 324.569 265.314 324.532 265.304C324.452 265.281 324.376 265.254 324.296 265.232L320.816 264.122C320.336 263.964 319.853 263.805 319.373 263.641C316.647 262.729 313.901 261.741 311.144 260.694C302.107 257.262 292.997 253.193 284.409 248.853L284.468 248.704L287.055 241.985L287.939 239.698C287.939 239.698 334.833 244.808 358.412 239.878C358.813 239.796 359.203 239.712 359.585 239.622C359.493 239.098 359.464 238.565 359.316 238.066C346.823 195.533 360.487 187.378 365.059 181.445C365.059 181.445 386.468 233.133 377.107 259.936" fill="#008B73"/>
<path d="M369.465 246.771C369.326 246.838 369.174 246.87 369.029 246.87C368.66 246.87 368.302 246.665 368.129 246.31C366.342 242.651 360.276 240.474 358.413 239.878C358.814 239.795 359.204 239.711 359.586 239.622C359.493 239.098 359.404 238.578 359.317 238.066C361.686 238.849 367.876 241.235 369.925 245.434C370.168 245.927 369.961 246.527 369.465 246.771Z" fill="#00715D"/>
<path d="M303.783 244.989C294.212 244.989 286.44 244.44 285.763 244.391C285.212 244.351 284.799 243.871 284.839 243.32C284.879 242.769 285.357 242.359 285.908 242.396C286.261 242.42 321.439 244.909 335.309 239.284C335.819 239.076 336.403 239.321 336.611 239.835C336.817 240.345 336.572 240.928 336.06 241.136C328.383 244.249 314.875 244.989 303.783 244.989Z" fill="#00715D"/>
<path d="M320.816 264.123H320.819C328.844 261.909 336.14 259.753 340.352 258.403C346.202 256.527 351.042 250.615 353.24 245.589C353.46 245.083 354.051 244.852 354.558 245.076C355.064 245.296 355.294 245.885 355.074 246.392C352.694 251.827 347.408 258.24 340.963 260.311C337.906 261.291 333.236 262.689 327.84 264.229C325.54 264.887 323.095 264.849 320.816 264.123Z" fill="#00715D"/>
<path d="M342.449 257.246C269.975 281.657 247.679 265.682 247.679 265.682C242.8 221.559 260.78 181.882 260.78 181.882C266.092 190.641 272.097 205.929 272.097 205.929L273.684 239.749L273.564 240.689L273.507 241.133L273.208 243.445L273.2 243.493C273.355 243.525 273.511 243.558 273.668 243.593C295.591 248.218 335.684 243.049 335.684 243.049L342.449 257.246Z" fill="#008B73"/>
<path d="M273.667 243.593C269.754 246.871 266.038 250.651 262.726 254.994C262.393 255.434 261.763 255.519 261.323 255.183C260.883 254.85 260.799 254.225 261.13 253.785C261.133 253.785 261.133 253.781 261.133 253.781C264.855 248.891 269.075 244.706 273.507 241.133L273.207 243.446L273.201 243.493C273.354 243.525 273.511 243.559 273.667 243.593Z" fill="#00715D"/>
<path d="M335.684 243.049C335.684 243.049 343.709 224.822 355.906 226.445L359.586 239.624C352.908 242.458 351.932 253.909 342.45 257.245L335.684 243.049Z" fill="#FFA681"/>
<path d="M287.94 239.699C287.94 239.699 282.873 227.806 269.537 224.352C256.203 220.9 247.707 227.184 246.811 229.556C245.916 231.928 251.84 229.662 251.84 229.662C251.84 229.662 247.981 230.754 245.768 234.38C243.555 238.004 251.156 234.094 251.156 234.094C251.156 234.094 245.705 236.482 245.012 238.696C244.319 240.911 251.508 237.17 252.86 237.24C252.86 237.24 246.44 239.792 246.484 242.078C246.527 244.363 253.857 240.636 259.332 240.931C264.807 241.227 273.2 243.494 273.2 243.494C277.68 244.346 281.961 244.976 285.835 245.156L287.94 239.699Z" fill="#FFA681"/>
<path d="M416.714 39.6797C413.326 39.6797 410.571 42.4357 410.571 45.8237C410.571 49.2104 413.326 51.9664 416.714 51.9664C420.1 51.9664 422.856 49.2104 422.856 45.8237C422.856 42.4357 420.1 39.6797 416.714 39.6797ZM416.714 54.7744C411.778 54.7744 407.762 50.7597 407.762 45.8237C407.762 40.8877 411.778 36.8717 416.714 36.8717C421.65 36.8717 425.666 40.8877 425.666 45.8237C425.666 50.7597 421.65 54.7744 416.714 54.7744Z" fill="#00715D"/>
<path d="M494.814 24.4708C491.426 24.4708 488.671 27.2268 488.671 30.6134C488.671 34.0014 491.426 36.7574 494.814 36.7574C498.2 36.7574 500.956 34.0014 500.956 30.6134C500.956 27.2268 498.2 24.4708 494.814 24.4708ZM494.814 39.5654C489.878 39.5654 485.862 35.5508 485.862 30.6134C485.862 25.6788 489.878 21.6628 494.814 21.6628C499.75 21.6628 503.766 25.6788 503.766 30.6134C503.766 35.5508 499.75 39.5654 494.814 39.5654Z" fill="#008B73"/>
<path d="M505.874 68.6553C505.099 68.6553 504.47 68.0259 504.47 67.2513V61.0579C504.47 60.2833 505.099 59.6539 505.874 59.6539C506.648 59.6539 507.278 60.2833 507.278 61.0579V67.2513C507.278 68.0259 506.648 68.6553 505.874 68.6553Z" fill="#00715D"/>
<path d="M505.874 79.4922C505.099 79.4922 504.47 78.8629 504.47 78.0882V71.8949C504.47 71.1202 505.099 70.4922 505.874 70.4922C506.648 70.4922 507.278 71.1202 507.278 71.8949V78.0882C507.278 78.8629 506.648 79.4922 505.874 79.4922Z" fill="#00715D"/>
<path d="M514.565 70.9766H509.003C508.228 70.9766 507.599 70.3486 507.599 69.5726C507.599 68.7966 508.228 68.1686 509.003 68.1686H514.565C515.341 68.1686 515.971 68.7966 515.971 69.5726C515.971 70.3486 515.341 70.9766 514.565 70.9766Z" fill="#00715D"/>
<path d="M502.745 70.9766H497.182C496.406 70.9766 495.777 70.3486 495.777 69.5726C495.777 68.7966 496.406 68.1686 497.182 68.1686H502.745C503.52 68.1686 504.149 68.7966 504.149 69.5726C504.149 70.3486 503.52 70.9766 502.745 70.9766Z" fill="#00715D"/>
<path d="M458.591 31.1426C457.816 31.1426 457.187 30.5132 457.187 29.7386V23.5452C457.187 22.7706 457.816 22.1426 458.591 22.1426C459.367 22.1426 459.995 22.7706 459.995 23.5452V29.7386C459.995 30.5132 459.367 31.1426 458.591 31.1426Z" fill="#005F4E"/>
<path d="M458.591 41.9785C457.816 41.9785 457.187 41.3492 457.187 40.5745V34.3825C457.187 33.6065 457.816 32.9785 458.591 32.9785C459.367 32.9785 459.995 33.6065 459.995 34.3825V40.5745C459.995 41.3492 459.367 41.9785 458.591 41.9785Z" fill="#005F4E"/>
<path d="M467.283 33.4648H461.72C460.945 33.4648 460.316 32.8355 460.316 32.0608C460.316 31.2848 460.945 30.6568 461.72 30.6568H467.283C468.059 30.6568 468.688 31.2848 468.688 32.0608C468.688 32.8355 468.059 33.4648 467.283 33.4648Z" fill="#005F4E"/>
<path d="M455.462 33.4648H449.899C449.123 33.4648 448.494 32.8355 448.494 32.0608C448.494 31.2848 449.123 30.6568 449.899 30.6568H455.462C456.237 30.6568 456.866 31.2848 456.866 32.0608C456.866 32.8355 456.237 33.4648 455.462 33.4648Z" fill="#005F4E"/>
<path d="M99.5663 23.1085C99.5663 26.4965 102.322 29.2512 105.709 29.2512C109.097 29.2512 111.853 26.4965 111.853 23.1085C111.853 19.7205 109.097 16.9659 105.709 16.9659C102.322 16.9659 99.5663 19.7205 99.5663 23.1085ZM96.7583 23.1085C96.7583 18.1725 100.773 14.1565 105.709 14.1565C110.645 14.1565 114.661 18.1725 114.661 23.1085C114.661 28.0445 110.645 32.0605 105.709 32.0605C100.773 32.0605 96.7583 28.0445 96.7583 23.1085" fill="#00715D"/>
<path d="M63.6173 57.2287C63.6173 60.6167 66.3733 63.3713 69.76 63.3713C73.148 63.3713 75.904 60.6167 75.904 57.2287C75.904 53.8407 73.148 51.086 69.76 51.086C66.3733 51.086 63.6173 53.8407 63.6173 57.2287ZM60.8093 57.2287C60.8093 52.2927 64.8253 48.2767 69.76 48.2767C74.696 48.2767 78.712 52.2927 78.712 57.2287C78.712 62.1647 74.696 66.1807 69.76 66.1807C64.8253 66.1807 60.8093 62.1647 60.8093 57.2287" fill="#00715D"/>
<path d="M42.1979 69.791C42.9739 69.791 43.6019 69.163 43.6019 68.387V62.195C43.6019 61.419 42.9739 60.791 42.1979 60.791C41.4219 60.791 40.7939 61.419 40.7939 62.195V68.387C40.7939 69.163 41.4219 69.791 42.1979 69.791Z" fill="#00715D"/>
<path d="M42.1979 80.627C42.9739 80.627 43.6019 79.999 43.6019 79.223V73.031C43.6019 72.255 42.9739 71.627 42.1979 71.627C41.4219 71.627 40.7939 72.255 40.7939 73.031V79.223C40.7939 79.999 41.4219 80.627 42.1979 80.627Z" fill="#00715D"/>
<path d="M33.5058 72.1133H39.0685C39.8431 72.1133 40.4725 71.4839 40.4725 70.7093C40.4725 69.9333 39.8431 69.3053 39.0685 69.3053H33.5058C32.7298 69.3053 32.1018 69.9333 32.1018 70.7093C32.1018 71.4839 32.7298 72.1133 33.5058 72.1133Z" fill="#00715D"/>
<path d="M45.3269 72.1133H50.8895C51.6655 72.1133 52.2935 71.4839 52.2935 70.7093C52.2935 69.9333 51.6655 69.3053 50.8895 69.3053H45.3269C44.5509 69.3053 43.9229 69.9333 43.9229 70.7093C43.9229 71.4839 44.5509 72.1133 45.3269 72.1133Z" fill="#00715D"/>
<path d="M74.5534 22.1904C75.3281 22.1904 75.9574 21.5611 75.9574 20.7864V14.5944C75.9574 13.8184 75.3281 13.1904 74.5534 13.1904C73.7774 13.1904 73.1494 13.8184 73.1494 14.5944V20.7864C73.1494 21.5611 73.7774 22.1904 74.5534 22.1904Z" fill="#005F4E"/>
<path d="M74.5534 33.0273C75.3281 33.0273 75.9574 32.398 75.9574 31.6233V25.4313C75.9574 24.6553 75.3281 24.0273 74.5534 24.0273C73.7774 24.0273 73.1494 24.6553 73.1494 25.4313V31.6233C73.1494 32.398 73.7774 33.0273 74.5534 33.0273Z" fill="#005F4E"/>
<path d="M65.8613 24.5127H71.4239C72.1986 24.5127 72.8279 23.8834 72.8279 23.1087C72.8279 22.3327 72.1986 21.7047 71.4239 21.7047H65.8613C65.0853 21.7047 64.4573 22.3327 64.4573 23.1087C64.4573 23.8834 65.0853 24.5127 65.8613 24.5127Z" fill="#005F4E"/>
<path d="M77.6823 24.5127H83.245C84.0197 24.5127 84.649 23.8834 84.649 23.1087C84.649 22.3327 84.0197 21.7047 83.245 21.7047H77.6823C76.9063 21.7047 76.2783 22.3327 76.2783 23.1087C76.2783 23.8834 76.9063 24.5127 77.6823 24.5127Z" fill="#005F4E"/>
<path d="M342.253 23.7513C342.091 23.7686 341.923 23.7459 341.762 23.6779C340.058 22.9593 339.058 22.6233 339.049 22.6206C338.526 22.4459 338.245 21.8819 338.418 21.3593C338.594 20.8366 339.158 20.5553 339.679 20.7286C339.723 20.7433 340.753 21.0886 342.537 21.8406C343.045 22.0553 343.282 22.6406 343.067 23.1473C342.922 23.4939 342.603 23.7153 342.253 23.7513Z" fill="#00816A" fill-opacity="0.2"/>
<path d="M393.065 77.23C393.744 79.0393 394.378 80.9046 394.953 82.7753C395.096 83.238 395.545 83.5233 396.01 83.474C396.073 83.4673 396.137 83.454 396.2 83.4353C396.725 83.274 397.022 82.7153 396.86 82.19C396.273 80.2806 395.625 78.3766 394.933 76.53C394.74 76.0153 394.168 75.754 393.649 75.9473C393.134 76.1406 392.872 76.714 393.065 77.23Z" fill="#00816A" fill-opacity="0.2"/>
<path d="M396.507 88.4236C396.964 90.297 397.377 92.2263 397.735 94.1556C397.829 94.6716 398.307 95.0196 398.819 94.9663C398.844 94.9623 398.869 94.9596 398.897 94.9543C399.437 94.8543 399.796 94.3343 399.696 93.793C399.331 91.8263 398.911 89.861 398.444 87.9516C398.313 87.417 397.773 87.089 397.24 87.2196C396.704 87.349 396.376 87.889 396.507 88.4236Z" fill="#00816A" fill-opacity="0.2"/>
<path d="M400.712 118.533C401.207 118.481 401.595 118.067 401.603 117.557C401.634 115.557 401.62 113.549 401.56 111.591C401.544 111.04 401.083 110.608 400.534 110.624C399.975 110.644 399.551 111.101 399.568 111.651C399.626 113.58 399.639 115.557 399.61 117.527C399.602 118.077 400.04 118.531 400.591 118.539C400.631 118.54 400.672 118.537 400.712 118.533Z" fill="#00816A" fill-opacity="0.2"/>
<path d="M399.505 98.83C398.959 98.9007 398.573 99.402 398.644 99.9474C398.761 100.849 398.868 101.759 398.963 102.654C399.072 103.687 399.169 104.741 399.252 105.786C399.293 106.334 399.773 106.745 400.323 106.702C400.332 106.701 400.341 106.699 400.351 106.699C400.885 106.642 401.281 106.169 401.239 105.63C401.155 104.566 401.057 103.495 400.945 102.445C400.851 101.534 400.741 100.607 400.621 99.69C400.552 99.1527 400.065 98.7714 399.529 98.8274C399.521 98.8287 399.512 98.8287 399.505 98.83Z" fill="#00816A" fill-opacity="0.2"/>
<path d="M390.841 71.8126C391.023 72.2166 391.439 72.4419 391.856 72.3966C391.959 72.3873 392.06 72.3606 392.159 72.3153C392.661 72.0899 392.887 71.5019 392.661 70.9993C391.849 69.1819 390.971 67.3726 390.047 65.6179C389.791 65.1313 389.189 64.9433 388.701 65.2006C388.213 65.4566 388.027 66.0593 388.283 66.5459C389.185 68.2633 390.045 70.0353 390.841 71.8126Z" fill="#00816A" fill-opacity="0.2"/>
<path d="M347.057 26.1563C348.769 27.031 350.497 27.983 352.195 28.9883C352.385 29.1003 352.599 29.143 352.805 29.1216C353.108 29.0896 353.392 28.919 353.56 28.6376C353.84 28.163 353.684 27.5523 353.209 27.271C351.477 26.247 349.713 25.2736 347.965 24.3803C347.475 24.1296 346.873 24.3243 346.624 24.815C346.373 25.3043 346.568 25.9056 347.057 26.1563Z" fill="#00816A" fill-opacity="0.2"/>
<path d="M361.915 35.5449C362.126 35.7063 362.382 35.7689 362.626 35.7436C362.889 35.7156 363.141 35.5849 363.314 35.3569C363.647 34.9196 363.563 34.2943 363.126 33.9609C361.547 32.7556 359.913 31.5809 358.267 30.4703C357.81 30.1636 357.191 30.2836 356.883 30.7396C356.574 31.1956 356.695 31.8156 357.153 32.1236C358.766 33.2116 360.369 34.3636 361.915 35.5449Z" fill="#00816A" fill-opacity="0.2"/>
<path d="M378.669 51.8686C378.889 52.1446 379.227 52.2713 379.553 52.2366C379.736 52.2179 379.917 52.1473 380.071 52.0233C380.5 51.6793 380.571 51.0526 380.225 50.6219C378.987 49.0753 377.68 47.5433 376.343 46.0713C375.972 45.6633 375.341 45.6326 374.933 46.0046C374.527 46.3739 374.496 47.0046 374.865 47.4126C376.177 48.8539 377.456 50.3539 378.669 51.8686Z" fill="#00816A" fill-opacity="0.2"/>
<path d="M370.793 43.1998C371.013 43.4144 371.31 43.5064 371.594 43.4771C371.818 43.4531 372.034 43.3544 372.204 43.1798C372.588 42.7851 372.578 42.1544 372.184 41.7704C370.765 40.3904 369.281 39.0318 367.77 37.7291C367.354 37.3691 366.724 37.4171 366.366 37.8344C366.005 38.2518 366.052 38.8811 366.47 39.2398C367.949 40.5158 369.404 41.8478 370.793 43.1998Z" fill="#00816A" fill-opacity="0.2"/>
<path d="M385.393 61.453C385.6 61.793 385.979 61.965 386.349 61.925C386.492 61.9103 386.633 61.865 386.764 61.785C387.235 61.4983 387.381 60.8836 387.095 60.4143C386.06 58.7196 384.957 57.0356 383.816 55.409C383.501 54.9583 382.88 54.849 382.428 55.165C381.976 55.4823 381.868 56.1036 382.185 56.5543C383.301 58.1463 384.38 59.7943 385.393 61.453Z" fill="#00816A" fill-opacity="0.2"/>
<path d="M342.233 16.9307L346.596 0.769331L293.133 1.22933L342.233 16.9307Z" fill="#008B73"/>
<path d="M293.134 1.22722L339.639 20.8312L339.762 20.8846L341.762 24.1992L342.234 16.9299L293.134 1.22722Z" fill="#00715D"/>
<path d="M341.762 24.1992L337.427 23.5152L339.762 20.8846L341.762 24.1992Z" fill="#00715D"/>
<path d="M333.91 18.4182L339.763 20.8848L327.71 34.4648L293.133 1.23018L333.91 18.4182Z" fill="#008B73"/>
<path d="M588.074 442.083V443.056C588.074 448.676 583.517 453.232 577.894 453.232H49.9637C44.3424 453.232 39.7891 448.676 39.7891 443.056V442.083C39.7891 436.464 44.3424 431.907 49.9637 431.907H577.894C583.517 431.907 588.074 436.464 588.074 442.083Z" fill="#005F4E"/>
<path d="M588.074 442.083V442.569H39.7891V442.083C39.7891 436.464 44.3424 431.907 49.9637 431.907H577.894C583.517 431.907 588.074 436.464 588.074 442.083Z" fill="#00715D"/>
<path d="M394.725 399.895H228.879C224.916 399.895 221.703 396.683 221.703 392.72V305.951C221.703 301.988 224.916 298.776 228.879 298.776H394.725C398.688 298.776 401.9 301.988 401.9 305.951V392.72C401.9 396.683 398.688 399.895 394.725 399.895Z" fill="#18315B"/>
<path d="M325.755 431.593H297.847V399.779H325.755V431.593Z" fill="#000B29"/>
<path d="M325.341 350.574C325.341 358.223 319.14 364.426 311.491 364.426C303.841 364.426 297.64 358.223 297.64 350.574C297.64 342.926 303.841 336.723 311.491 336.723C319.14 336.723 325.341 342.926 325.341 350.574Z" fill="#1D567E"/>
<path d="M347.348 431.594H275.364V429.168C275.364 424.275 279.33 420.307 284.224 420.307H338.486C343.38 420.307 347.348 424.275 347.348 429.168V431.594Z" fill="#18315B"/>
</svg>
