<svg width="2556" height="1444" viewBox="0 0 2556 1444" fill="none" xmlns="http://www.w3.org/2000/svg">
<path d="M99.03 1437.4C99.63 1426.9 -147.52 1111.65 140.3 820.59C270.23 689.2 490 760.39 455.24 376.56C425.22 45.1599 943.67 -149.57 1265.87 146.31C1474.04 337.48 1684.78 82.45 2015.04 227.15C2345.29 371.85 2127.82 765.14 2263.34 802.2C2530.29 875.2 2662.87 1196.44 2450.04 1433.83L99.03 1437.4Z" fill="#EBF3FA"/>
<path d="M1211.78 671.19C1210.38 668.3 1208.84 665.37 1207.19 662.48L1211.84 659.84C1213.54 662.83 1215.14 665.87 1216.59 668.86L1211.78 671.19ZM1202.06 654.06C1200.29 651.34 1198.4 648.61 1196.44 645.94L1200.75 642.77C1202.77 645.52 1204.72 648.33 1206.54 651.13L1202.06 654.06ZM670.89 713.02C667.51 713.38 664.11 713.67 660.78 713.86L660.47 708.52C663.71 708.33 667.03 708.05 670.32 707.7L670.89 713.02ZM680.94 711.69L680.12 706.41C683.34 705.91 686.62 705.33 689.87 704.68L690.92 709.92C687.59 710.58 684.24 711.18 680.94 711.69ZM650.63 714.2C647.23 714.23 643.81 714.16 640.47 714.01L640.72 708.67C643.96 708.82 647.28 708.88 650.59 708.86L650.63 714.2ZM700.81 707.72L699.54 702.53C702.71 701.76 705.93 700.9 709.12 699.98L710.6 705.12C707.34 706.05 704.05 706.93 700.81 707.72ZM630.34 713.25C626.96 712.9 623.57 712.46 620.26 711.92L621.12 706.64C624.33 707.16 627.61 707.6 630.89 707.93L630.34 713.25ZM720.27 702.14L718.6 697.06C721.7 696.04 724.85 694.94 727.97 693.79L729.82 698.81C726.65 699.98 723.43 701.1 720.27 702.14ZM739.24 695.15L737.22 690.2C740.25 688.96 743.32 687.65 746.35 686.29L748.53 691.17C745.45 692.55 742.33 693.89 739.24 695.15ZM610.26 709.98C606.93 709.23 603.62 708.36 600.4 707.41L601.92 702.28C605.02 703.2 608.23 704.03 611.44 704.76L610.26 709.98ZM1190.38 638.15C1188.31 635.63 1186.13 633.11 1183.92 630.67L1187.88 627.07C1190.16 629.58 1192.39 632.16 1194.52 634.76L1190.38 638.15ZM757.69 686.9L755.35 682.09C758.29 680.66 761.28 679.16 764.23 677.62L766.71 682.36C763.72 683.92 760.68 685.45 757.69 686.9ZM590.73 704.2C587.54 703.02 584.36 701.72 581.29 700.33L583.49 695.46C586.45 696.79 589.51 698.05 592.58 699.18L590.73 704.2ZM775.59 677.55L772.98 672.88C775.84 671.28 778.74 669.61 781.59 667.91L784.33 672.5C781.43 674.23 778.49 675.93 775.59 677.55ZM1177.08 623.52C1174.76 621.21 1172.34 618.92 1169.9 616.72L1173.48 612.75C1175.98 615.01 1178.46 617.36 1180.85 619.73L1177.08 623.52ZM572.14 695.81C569.15 694.19 566.19 692.45 563.34 690.63L566.22 686.13C568.95 687.88 571.8 689.56 574.68 691.11L572.14 695.81ZM792.93 667.23L790.07 662.71C792.84 660.96 795.64 659.14 798.42 657.29L801.39 661.74C798.58 663.61 795.73 665.46 792.93 667.23ZM809.71 656.04L806.64 651.66C809.32 649.78 812.04 647.82 814.73 645.85L817.9 650.16C815.18 652.16 812.43 654.14 809.71 656.04ZM554.96 684.8C552.24 682.75 549.58 680.58 547.04 678.34L550.58 674.33C553.01 676.48 555.57 678.56 558.18 680.53L554.96 684.8ZM1162.4 610.26C1159.86 608.18 1157.24 606.14 1154.6 604.18L1157.79 599.89C1160.5 601.9 1163.19 604 1165.79 606.13L1162.4 610.26ZM825.94 644.1L822.68 639.86L823.47 639.25C825.88 637.39 828.28 635.56 830.67 633.77L833.87 638.05C831.5 639.83 829.12 641.64 826.73 643.49L825.94 644.1ZM1146.52 598.47C1143.8 596.64 1140.99 594.85 1138.18 593.15L1140.95 588.57C1143.84 590.31 1146.71 592.15 1149.51 594.02L1146.52 598.47ZM539.65 671.29C537.29 668.85 535 666.28 532.84 663.67L536.97 660.27C539.04 662.78 541.23 665.23 543.5 667.57L539.65 671.29ZM841.92 632.15L838.8 627.81C841.53 625.85 844.3 623.89 847.03 622.01L850.07 626.41C847.36 628.27 844.62 630.21 841.92 632.15ZM1129.6 588.23C1126.72 586.67 1123.75 585.15 1120.79 583.73L1123.11 578.91C1126.15 580.37 1129.19 581.93 1132.14 583.53L1129.6 588.23ZM858.32 620.83L855.37 616.37C858.19 614.51 861.04 612.67 863.84 610.91L866.69 615.44C863.93 617.18 861.11 618.99 858.32 620.83ZM526.66 655.52C524.72 652.74 522.86 649.84 521.15 646.9L525.77 644.2C527.42 647.01 529.19 649.79 531.05 652.46L526.66 655.52ZM875.18 610.22L872.43 605.63C875.31 603.9 878.24 602.2 881.14 600.55L883.78 605.2C880.92 606.83 878.03 608.52 875.18 610.22ZM1111.78 579.65C1108.75 578.37 1105.66 577.14 1102.59 576.01L1104.44 570.99C1107.59 572.15 1110.77 573.41 1113.87 574.73L1111.78 579.65ZM892.5 600.4L889.97 595.69C892.93 594.1 895.94 592.54 898.92 591.04L901.32 595.82C898.39 597.29 895.42 598.83 892.5 600.4ZM1093.23 572.81C1090.1 571.82 1086.91 570.9 1083.73 570.06L1085.1 564.89C1088.36 565.75 1091.64 566.7 1094.84 567.72L1093.23 572.81ZM910.27 591.46L907.99 586.62C911.04 585.19 914.13 583.79 917.18 582.45L919.32 587.35C916.33 588.67 913.28 590.05 910.27 591.46ZM516.33 637.87C514.86 634.82 513.48 631.67 512.25 628.5L517.23 626.56C518.41 629.6 519.73 632.62 521.14 635.55L516.33 637.87ZM1074.11 567.75C1070.91 567.06 1067.64 566.44 1064.39 565.9L1065.27 560.63C1068.6 561.18 1071.95 561.82 1075.23 562.53L1074.11 567.75ZM928.5 583.52L926.51 578.56C929.64 577.3 932.81 576.08 935.94 574.94L937.78 579.96C934.7 581.08 931.58 582.28 928.5 583.52ZM1054.6 564.5C1051.34 564.11 1048.03 563.79 1044.75 563.55L1045.14 558.22C1048.5 558.47 1051.89 558.79 1055.23 559.19L1054.6 564.5ZM947.15 576.68L945.47 571.6C948.68 570.54 951.93 569.52 955.12 568.59L956.63 573.72C953.49 574.64 950.31 575.64 947.15 576.68ZM1034.87 563.05C1031.61 562.96 1028.28 562.93 1024.97 562.98L1024.89 557.63C1028.27 557.58 1031.68 557.6 1035.02 557.7L1034.87 563.05ZM966.2 571.08L964.87 565.9C968.13 565.06 971.44 564.27 974.71 563.56L975.85 568.78C972.65 569.49 969.4 570.26 966.2 571.08ZM1015.08 563.34C1011.81 563.53 1008.49 563.79 1005.21 564.11L1004.68 558.79C1008.03 558.46 1011.43 558.19 1014.77 558L1015.08 563.34ZM985.58 566.85L984.63 561.59C987.96 560.99 991.32 560.45 994.63 559.99L995.37 565.29C992.13 565.74 988.84 566.27 985.58 566.85ZM508.92 618.84C507.94 615.62 507.07 612.29 506.33 608.96L511.55 607.8C512.26 611 513.1 614.19 514.04 617.29L508.92 618.84ZM504.47 598.93C504.29 597.7 504.12 596.47 503.98 595.24C503.72 593.1 503.51 590.93 503.35 588.79L508.68 588.39C508.84 590.45 509.04 592.55 509.29 594.6C509.43 595.79 509.59 596.97 509.77 598.15L504.47 598.93ZM508.27 578.55L502.92 578.59C502.9 575.23 502.98 571.8 503.18 568.4L508.52 568.71C508.33 572 508.25 575.31 508.27 578.55ZM509.4 558.89L504.09 558.25C504.49 554.97 504.99 551.63 505.59 548.33L510.88 549.13L510.84 549.34C510.28 552.48 509.79 555.71 509.4 558.89ZM512.86 539.44L507.64 538.26C508.38 534.97 509.21 531.66 510.08 528.43L515.24 529.83C514.39 532.99 513.59 536.22 512.86 539.44ZM695.79 512.38C692.26 512.72 688.77 512.8 685.4 512.65L685.65 507.31C688.76 507.46 692 507.37 695.28 507.06L695.79 512.38ZM706 510.76L704.85 505.54C707.95 504.86 711.11 503.98 714.22 502.93L715.93 508C712.63 509.11 709.29 510.04 706 510.76ZM675.03 511.31C671.52 510.54 668.14 509.46 665.01 508.08L667.16 503.18C669.97 504.41 673 505.39 676.17 506.08L675.03 511.31ZM725.5 504.22L723.3 499.35C726.24 498.02 729.16 496.52 731.99 494.9L734.65 499.54C731.67 501.25 728.6 502.82 725.5 504.22ZM743.31 494.04L740.23 489.66C742.89 487.79 745.49 485.77 747.95 483.68L751.42 487.75C748.84 489.96 746.11 492.07 743.31 494.04ZM518.05 520.34L512.96 518.71C513.99 515.5 515.1 512.27 516.26 509.13L521.27 510.98C520.14 514.05 519.06 517.2 518.05 520.34ZM655.84 502.77C653 500.66 650.4 498.22 648.12 495.5L652.21 492.06C654.23 494.46 656.53 496.62 659.03 498.48L655.84 502.77ZM758.91 480.72L755.07 477C757.34 474.65 759.5 472.18 761.49 469.66L765.69 472.97C763.58 475.64 761.3 478.24 758.91 480.72ZM524.91 501.78L519.98 499.7C521.29 496.59 522.69 493.48 524.13 490.45L528.96 492.75C527.56 495.72 526.19 498.75 524.91 501.78ZM642.25 486.71C640.68 483.72 639.34 480.45 638.27 477.01L643.38 475.42C644.35 478.55 645.57 481.51 646.99 484.22L642.25 486.71ZM771.62 464.57L767.09 461.72C768.83 458.96 770.41 456.11 771.8 453.23L776.62 455.56C775.14 458.61 773.46 461.64 771.62 464.57ZM533.43 483.93L528.72 481.41C530.31 478.44 531.99 475.47 533.71 472.58L538.3 475.32C536.62 478.14 534.98 481.04 533.43 483.93ZM635.94 466.88C635.8 465.95 635.66 465 635.55 464.04C635.26 461.65 635.06 459.15 634.97 456.6L640.31 456.39C640.4 458.79 640.59 461.15 640.86 463.39C640.97 464.29 641.09 465.17 641.23 466.05L635.94 466.88ZM780.56 446.01L775.51 444.27C776.56 441.21 777.44 438.07 778.1 434.94L783.33 436.05C782.61 439.39 781.68 442.74 780.56 446.01ZM543.56 466.94L539.1 464C540.95 461.2 542.89 458.4 544.88 455.67L549.2 458.82C547.26 461.48 545.36 464.21 543.56 466.94ZM640.35 446.59L635.01 446.38C635.14 442.96 635.39 439.54 635.76 436.22L641.08 436.8C640.72 440 640.47 443.3 640.35 446.59ZM784.85 425.83L779.52 425.37C779.79 422.18 779.88 418.92 779.76 415.7L785.1 415.51C785.23 418.94 785.14 422.42 784.85 425.83ZM555.21 450.96L551.04 447.62C553.14 445 555.33 442.39 557.56 439.86L561.57 443.39C559.41 445.85 557.26 448.4 555.21 450.96ZM568.28 436.1L564.43 432.39C566.77 429.96 569.19 427.56 571.63 425.25L575.31 429.13C572.93 431.39 570.56 433.73 568.28 436.1ZM642.49 427.11L637.23 426.14C637.85 422.79 638.6 419.44 639.47 416.19L644.64 417.57C643.81 420.68 643.08 423.89 642.49 427.11ZM778.57 406.29C777.85 403.2 776.78 400.23 775.41 397.48L780.2 395.1C781.76 398.23 782.96 401.58 783.78 405.08L778.57 406.29ZM582.64 422.47L579.13 418.43C581.67 416.23 584.29 414.05 586.93 411.96L590.25 416.15C587.68 418.2 585.12 420.33 582.64 422.47ZM647.54 408.22L642.5 406.43C643.64 403.23 644.92 400.04 646.31 396.95L651.19 399.15C649.85 402.1 648.63 405.15 647.54 408.22ZM770.28 389.67C768.31 387.33 766.01 385.15 763.46 383.18L766.72 378.94C769.58 381.14 772.16 383.59 774.38 386.22L770.28 389.67ZM598.15 410.17L595.01 405.84C597.74 403.86 600.54 401.92 603.35 400.07L606.3 404.53C603.56 406.34 600.81 408.24 598.15 410.17ZM614.68 399.26L611.93 394.67C614.82 392.94 617.78 391.25 620.74 389.65L623.29 394.35C620.39 395.92 617.5 397.57 614.68 399.26ZM655.56 390.4L650.88 387.82C652.32 385.2 653.89 382.6 655.53 380.06C653.77 380.68 652.01 381.32 650.27 381.98L648.37 376.98C651.53 375.78 654.75 374.64 657.94 373.6L659.6 378.68C658.71 378.97 657.81 379.27 656.92 379.58L660.63 382.04C658.82 384.75 657.12 387.57 655.56 390.4ZM755.4 378.11C752.66 376.7 749.68 375.44 746.54 374.36L748.27 369.3C751.65 370.46 754.87 371.82 757.84 373.35L755.4 378.11ZM632.09 389.83L629.75 385.02C632.78 383.55 635.88 382.12 638.97 380.79L641.09 385.7C638.08 387 635.05 388.39 632.09 389.83ZM737.19 371.78C734.12 371.12 730.88 370.59 727.56 370.2L728.17 364.89C731.66 365.29 735.07 365.85 738.31 366.55L737.19 371.78ZM669.07 375.82L668.01 371.97C667.44 372.67 666.89 373.37 666.34 374.07L662.12 370.79C664.18 368.14 666.38 365.51 668.68 362.97L672.65 366.55C671.58 367.74 670.52 368.95 669.5 370.17C672.18 369.46 674.87 368.81 677.52 368.22L678.67 373.44C675.49 374.15 672.26 374.95 669.07 375.82ZM717.79 369.49C714.6 369.39 711.29 369.4 707.96 369.54L707.75 364.2C711.21 364.06 714.64 364.04 717.96 364.15L717.79 369.49ZM688.37 371.58L687.5 366.3C690.89 365.74 694.28 365.29 697.59 364.94L698.15 370.26C694.94 370.6 691.66 371.04 688.37 371.58ZM679.48 359.49L675.76 355.65C678.16 353.33 680.69 351.03 683.3 348.82L686.76 352.89C684.25 355.02 681.8 357.25 679.48 359.49ZM694.45 346.73L691.23 342.46C693.88 340.46 696.66 338.48 699.5 336.57L702.49 341.01C699.73 342.86 697.03 344.79 694.45 346.73ZM710.81 335.71L708.05 331.13C710.89 329.42 713.86 327.72 716.86 326.09L719.41 330.79C716.48 332.39 713.58 334.04 710.81 335.71ZM728.23 326.26L725.89 321.46C728.87 320.01 731.96 318.57 735.08 317.2L737.24 322.09C734.18 323.44 731.15 324.84 728.23 326.26ZM746.4 318.26L744.43 313.29C747.51 312.06 750.7 310.86 753.9 309.71L755.71 314.74C752.56 315.87 749.43 317.05 746.4 318.26ZM765.12 311.54L763.48 306.45C766.65 305.43 769.91 304.43 773.15 303.49L774.64 308.62C771.45 309.55 768.25 310.53 765.12 311.54ZM784.25 305.99L782.91 300.81C786.14 299.97 789.45 299.17 792.74 298.42L793.93 303.63C790.69 304.37 787.43 305.17 784.25 305.99ZM803.69 301.54L802.64 296.3C805.97 295.63 809.32 295.01 812.6 294.46L813.5 299.73C810.26 300.28 806.96 300.89 803.69 301.54ZM833.17 297.05C833.14 297.05 829.5 297.35 823.35 298.2L822.62 292.9C828.97 292.02 832.64 291.72 832.75 291.71L833.17 297.05Z" fill="#00715D"/>
<path d="M859.17 885.97H646.45V1432.22H859.17V885.97Z" fill="#36AD98"/>
<path d="M1190.09 707.43H977.37V1432.22H1190.09V707.43Z" fill="#36AD98"/>
<path d="M1511.18 514.73H1278.26V1432.21H1511.18V514.73Z" fill="#36AD98"/>
<path d="M1806.89 387.72H1594.17V1432.22H1806.89V387.72Z" fill="#36AD98"/>
<path d="M1511.18 820.49L1958.26 604.06L1758.87 1029.07L1725.16 836.24L1511.18 820.49Z" fill="#F77D48"/>
<path d="M1408.33 675.6C1397.39 630.65 1424.97 585.34 1469.92 574.4C1514.87 563.46 1560.18 591.03 1571.12 635.99C1582.06 680.94 1554.49 726.25 1509.53 737.19C1464.57 748.13 1419.27 720.55 1408.33 675.6Z" fill="#FFB93E"/>
<path d="M1508 730.92C1488.19 735.74 1467.69 732.56 1450.28 721.96C1432.86 711.36 1420.62 694.61 1415.8 674.81C1410.98 655 1414.16 634.5 1424.76 617.08C1435.36 599.66 1452.1 587.42 1471.91 582.6C1491.72 577.78 1512.22 580.96 1529.64 591.56C1547.06 602.16 1559.3 618.9 1564.12 638.71C1568.94 658.52 1565.76 679.02 1555.16 696.44C1544.56 713.85 1527.81 726.1 1508 730.92ZM1472.99 587.02C1434.54 596.38 1410.86 635.27 1420.22 673.73C1429.58 712.18 1468.47 735.85 1506.93 726.5C1545.38 717.14 1569.06 678.25 1559.7 639.79C1550.34 601.33 1511.44 577.66 1472.99 587.02Z" fill="#FFA412"/>
<path d="M1505.41 675.8C1505.21 674.15 1504.8 672.73 1504.19 671.54C1503.57 670.34 1502.68 669.3 1501.5 668.41C1500.32 667.52 1498.85 666.75 1497.08 666.08C1495.31 665.42 1493.17 664.82 1490.67 664.29C1486.36 663.34 1482.42 662.28 1478.86 661.1C1475.29 659.92 1472.18 658.44 1469.53 656.66C1466.87 654.87 1464.71 652.67 1463.05 650.05C1461.38 647.43 1460.32 644.2 1459.85 640.36C1459.45 637.03 1459.67 633.92 1460.52 631.04C1461.37 628.16 1462.77 625.56 1464.71 623.26C1466.66 620.96 1469.08 618.98 1471.98 617.34C1474.88 615.7 1478.21 614.47 1481.97 613.66L1480.45 601.08L1490.57 599.85L1492.12 612.6C1495.8 612.63 1499.21 613.19 1502.34 614.28C1505.47 615.37 1508.21 616.95 1510.55 619.01C1512.9 621.07 1514.82 623.61 1516.32 626.63C1517.82 629.65 1518.81 633.12 1519.28 637.03L1501 639.25C1500.43 634.55 1498.96 631.16 1496.59 629.08C1494.22 627 1491.28 626.18 1487.78 626.6C1485.88 626.83 1484.28 627.29 1482.97 627.99C1481.66 628.68 1480.62 629.55 1479.85 630.57C1479.08 631.6 1478.55 632.76 1478.28 634.07C1478.01 635.38 1477.96 636.75 1478.14 638.2C1478.32 639.65 1478.69 640.94 1479.25 642.06C1479.81 643.19 1480.67 644.18 1481.83 645.06C1482.98 645.93 1484.47 646.71 1486.28 647.38C1488.1 648.05 1490.32 648.71 1492.97 649.34C1497.25 650.37 1501.16 651.49 1504.71 652.69C1508.26 653.89 1511.36 655.39 1514.02 657.2C1516.68 659.01 1518.84 661.22 1520.51 663.84C1522.18 666.46 1523.24 669.67 1523.7 673.47C1524.12 676.92 1523.89 680.09 1523.02 682.97C1522.15 685.86 1520.74 688.44 1518.79 690.7C1516.84 692.96 1514.39 694.89 1511.43 696.48C1508.48 698.07 1505.12 699.27 1501.37 700.08L1502.79 711.78L1492.73 713L1491.32 701.36C1487.78 701.43 1484.3 701.08 1480.89 700.3C1477.48 699.52 1474.37 698.18 1471.57 696.27C1468.77 694.36 1466.41 691.82 1464.48 688.63C1462.55 685.45 1461.31 681.5 1460.74 676.8L1479.02 674.59C1479.36 677.37 1480.03 679.65 1481.03 681.41C1482.03 683.18 1483.26 684.54 1484.7 685.5C1486.14 686.46 1487.72 687.06 1489.45 687.31C1491.17 687.56 1492.89 687.58 1494.62 687.37C1496.6 687.13 1498.31 686.66 1499.75 685.97C1501.18 685.28 1502.35 684.42 1503.26 683.4C1504.16 682.38 1504.79 681.22 1505.15 679.92C1505.49 678.62 1505.58 677.25 1505.41 675.8Z" fill="#FFA412"/>
<path d="M1988.25 492.645C2020.11 460.782 2020.11 409.123 1988.25 377.26C1956.38 345.398 1904.72 345.398 1872.86 377.26C1841 409.123 1841 460.782 1872.86 492.645C1904.72 524.508 1956.38 524.507 1988.25 492.645Z" fill="#FFB93E"/>
<path d="M1933.53 510.18C1913.69 510.96 1894.73 503.97 1880.15 490.49C1865.57 477.01 1857.11 458.66 1856.33 438.82C1855.55 418.98 1862.54 400.02 1876.02 385.44C1889.5 370.86 1907.85 362.4 1927.69 361.62C1947.53 360.84 1966.48 367.83 1981.07 381.31C1995.65 394.79 2004.11 413.14 2004.89 432.98C2005.67 452.82 1998.68 471.78 1985.2 486.36C1971.72 500.94 1953.37 509.4 1933.53 510.18ZM1927.87 366.06C1889.36 367.57 1859.26 400.14 1860.77 438.65C1862.28 477.16 1894.85 507.26 1933.36 505.75C1971.87 504.23 2001.97 471.67 2000.46 433.16C1998.94 394.64 1966.38 364.54 1927.87 366.06Z" fill="#FFA412"/>
<path d="M1941.69 457.06C1941.82 455.45 1941.7 454.02 1941.35 452.75C1940.99 451.49 1940.34 450.32 1939.39 449.24C1938.44 448.16 1937.18 447.14 1935.62 446.17C1934.06 445.2 1932.13 444.22 1929.84 443.23C1925.91 441.49 1922.35 439.72 1919.18 437.91C1916 436.1 1913.32 434.08 1911.13 431.87C1908.94 429.65 1907.3 427.13 1906.22 424.31C1905.14 421.49 1904.74 418.2 1905.04 414.44C1905.3 411.18 1906.11 408.26 1907.48 405.67C1908.85 403.08 1910.68 400.87 1912.98 399.05C1915.28 397.23 1917.98 395.81 1921.07 394.8C1924.16 393.79 1927.57 393.26 1931.31 393.21L1932.28 380.91L1942.18 381.69L1941.2 394.16C1944.71 394.9 1947.85 396.09 1950.63 397.74C1953.41 399.39 1955.71 401.42 1957.56 403.84C1959.4 406.26 1960.75 409.06 1961.6 412.23C1962.45 415.4 1962.72 418.9 1962.42 422.73L1944.54 421.32C1944.9 416.72 1944.15 413.2 1942.29 410.76C1940.43 408.32 1937.79 406.96 1934.36 406.69C1932.5 406.54 1930.88 406.68 1929.5 407.09C1928.12 407.5 1926.96 408.12 1926.02 408.95C1925.08 409.78 1924.36 410.8 1923.85 411.99C1923.34 413.18 1923.03 414.49 1922.92 415.91C1922.81 417.33 1922.91 418.63 1923.23 419.81C1923.55 420.99 1924.18 422.11 1925.11 423.17C1926.04 424.23 1927.31 425.25 1928.91 426.25C1930.51 427.24 1932.51 428.3 1934.92 429.41C1938.8 431.22 1942.32 433.04 1945.48 434.87C1948.63 436.7 1951.31 438.73 1953.5 440.97C1955.69 443.21 1957.33 445.74 1958.41 448.56C1959.49 451.39 1959.89 454.65 1959.6 458.37C1959.33 461.74 1958.51 464.72 1957.12 467.31C1955.73 469.9 1953.89 472.09 1951.59 473.87C1949.29 475.66 1946.58 477.02 1943.45 477.97C1940.32 478.92 1936.89 479.42 1933.15 479.47L1932.25 490.91L1922.41 490.13L1923.31 478.75C1919.91 478.13 1916.66 477.13 1913.56 475.72C1910.45 474.32 1907.75 472.44 1905.45 470.08C1903.15 467.72 1901.38 464.83 1900.16 461.42C1898.93 458.01 1898.5 454 1898.87 449.4L1916.75 450.81C1916.54 453.53 1916.74 455.83 1917.36 457.71C1917.98 459.59 1918.88 461.13 1920.08 462.32C1921.27 463.51 1922.66 464.39 1924.26 464.96C1925.85 465.53 1927.5 465.88 1929.19 466.01C1931.13 466.16 1932.85 466.05 1934.35 465.67C1935.85 465.29 1937.14 464.7 1938.19 463.89C1939.25 463.09 1940.07 462.1 1940.66 460.93C1941.22 459.77 1941.57 458.48 1941.69 457.06Z" fill="#FFA412"/>
<path d="M1733.93 582.87C1733.38 551.79 1758.13 526.16 1789.2 525.61C1820.27 525.06 1845.91 549.81 1846.46 580.88C1847.01 611.95 1822.26 637.59 1791.19 638.14C1760.12 638.69 1734.48 613.94 1733.93 582.87Z" fill="#FFB93E"/>
<path d="M1791.11 633.8C1777.42 634.04 1764.45 628.94 1754.6 619.43C1744.75 609.92 1739.19 597.14 1738.94 583.45C1738.7 569.76 1743.8 556.79 1753.31 546.94C1762.82 537.09 1775.6 531.53 1789.29 531.28C1802.98 531.04 1815.95 536.14 1825.8 545.65C1835.65 555.16 1841.21 567.94 1841.46 581.63C1841.7 595.32 1836.6 608.29 1827.08 618.14C1817.59 628 1804.81 633.56 1791.11 633.8ZM1789.36 534.33C1762.78 534.8 1741.54 556.81 1742.01 583.39C1742.48 609.97 1764.49 631.21 1791.07 630.74C1817.65 630.27 1838.89 608.26 1838.42 581.68C1837.94 555.1 1815.94 533.86 1789.36 534.33Z" fill="#FFA412"/>
<path d="M1797.53 597.29C1797.64 596.18 1797.58 595.19 1797.36 594.32C1797.13 593.44 1796.7 592.63 1796.06 591.87C1795.42 591.11 1794.57 590.39 1793.5 589.69C1792.44 589 1791.12 588.29 1789.56 587.57C1786.87 586.31 1784.45 585.04 1782.29 583.74C1780.12 582.44 1778.3 581.01 1776.83 579.45C1775.35 577.89 1774.26 576.13 1773.55 574.16C1772.84 572.2 1772.62 569.92 1772.88 567.34C1773.11 565.1 1773.71 563.09 1774.69 561.33C1775.67 559.56 1776.97 558.07 1778.58 556.85C1780.19 555.63 1782.08 554.69 1784.22 554.04C1786.36 553.39 1788.73 553.08 1791.31 553.1L1792.16 544.63L1798.97 545.32L1798.1 553.91C1800.51 554.47 1802.66 555.34 1804.55 556.52C1806.44 557.7 1808 559.13 1809.24 560.83C1810.47 562.53 1811.36 564.48 1811.9 566.67C1812.44 568.87 1812.57 571.29 1812.31 573.92L1800 572.68C1800.32 569.51 1799.85 567.08 1798.61 565.36C1797.36 563.65 1795.56 562.67 1793.2 562.44C1791.92 562.31 1790.8 562.38 1789.85 562.64C1788.89 562.9 1788.08 563.31 1787.42 563.87C1786.76 564.43 1786.25 565.12 1785.88 565.93C1785.51 566.74 1785.28 567.64 1785.18 568.62C1785.08 569.6 1785.13 570.49 1785.34 571.31C1785.54 572.13 1785.96 572.91 1786.59 573.65C1787.22 574.39 1788.08 575.12 1789.17 575.83C1790.26 576.54 1791.63 577.3 1793.27 578.1C1795.92 579.41 1798.32 580.71 1800.47 582.02C1802.62 583.33 1804.43 584.77 1805.91 586.35C1807.39 587.93 1808.48 589.69 1809.18 591.66C1809.89 593.62 1810.11 595.88 1809.85 598.44C1809.62 600.76 1809 602.8 1808.01 604.57C1807.01 606.34 1805.71 607.82 1804.1 609.01C1802.49 610.21 1800.6 611.11 1798.43 611.72C1796.26 612.33 1793.89 612.62 1791.31 612.6L1790.52 620.47L1783.75 619.79L1784.54 611.96C1782.21 611.49 1779.98 610.74 1777.86 609.73C1775.74 608.72 1773.9 607.38 1772.35 605.72C1770.8 604.06 1769.62 602.04 1768.83 599.67C1768.04 597.3 1767.8 594.53 1768.12 591.37L1780.43 592.61C1780.24 594.48 1780.35 596.07 1780.75 597.38C1781.15 598.68 1781.75 599.76 1782.56 600.6C1783.37 601.44 1784.31 602.07 1785.4 602.48C1786.49 602.9 1787.62 603.16 1788.78 603.28C1790.11 603.41 1791.3 603.36 1792.35 603.12C1793.39 602.88 1794.29 602.49 1795.03 601.95C1795.77 601.41 1796.36 600.74 1796.78 599.95C1797.17 599.15 1797.43 598.27 1797.53 597.29Z" fill="#FFA412"/>
<path d="M1636.62 503.013C1712.29 497.871 1769.46 432.364 1764.31 356.699C1759.17 281.033 1693.66 223.863 1618 229.005C1542.33 234.147 1485.16 299.654 1490.31 375.319C1495.45 450.984 1560.95 508.155 1636.62 503.013Z" fill="#FFB93E"/>
<path d="M1667.15 486.31C1635.43 496.81 1601.51 494.34 1571.65 479.33C1541.79 464.33 1519.56 438.59 1509.05 406.87C1498.55 375.15 1501.02 341.23 1516.03 311.37C1531.03 281.51 1556.77 259.28 1588.49 248.77C1620.21 238.26 1654.13 240.74 1683.99 255.75C1713.85 270.75 1736.08 296.49 1746.58 328.21C1757.08 359.93 1754.61 393.85 1739.6 423.71C1724.61 453.58 1698.88 475.81 1667.15 486.31ZM1590.84 255.86C1529.26 276.25 1495.75 342.94 1516.14 404.53C1536.53 466.11 1603.22 499.62 1664.81 479.23C1726.39 458.84 1759.9 392.15 1739.51 330.57C1719.12 268.98 1652.42 235.47 1590.84 255.86Z" fill="#FFA412"/>
<path d="M1655.59 396.6C1655.05 393.94 1654.19 391.67 1653.03 389.8C1651.86 387.92 1650.26 386.34 1648.22 385.04C1646.18 383.74 1643.67 382.67 1640.69 381.83C1637.71 380.99 1634.14 380.3 1629.98 379.76C1622.81 378.78 1616.24 377.57 1610.26 376.12C1604.27 374.67 1599 372.66 1594.42 370.1C1589.84 367.54 1586.02 364.22 1582.95 360.16C1579.88 356.1 1577.71 350.96 1576.44 344.75C1575.34 339.36 1575.29 334.26 1576.29 329.43C1577.29 324.6 1579.23 320.18 1582.11 316.16C1584.98 312.14 1588.68 308.59 1593.21 305.52C1597.74 302.45 1603.01 300 1609.04 298.18L1604.88 277.83L1621.26 274.48L1625.48 295.11C1631.5 294.67 1637.14 295.14 1642.4 296.5C1647.65 297.87 1652.34 300.08 1656.44 303.14C1660.55 306.2 1664.03 310.09 1666.88 314.82C1669.73 319.55 1671.8 325.09 1673.1 331.43L1643.52 337.48C1641.97 329.87 1639.11 324.53 1634.96 321.45C1630.81 318.37 1625.91 317.41 1620.24 318.57C1617.17 319.2 1614.61 320.17 1612.57 321.48C1610.53 322.79 1608.94 324.33 1607.81 326.12C1606.68 327.9 1605.98 329.88 1605.72 332.05C1605.45 334.22 1605.56 336.47 1606.04 338.82C1606.52 341.16 1607.29 343.22 1608.37 344.98C1609.44 346.74 1610.98 348.26 1612.98 349.53C1614.98 350.8 1617.51 351.87 1620.56 352.73C1623.61 353.59 1627.34 354.36 1631.75 355.05C1638.87 356.17 1645.41 357.47 1651.37 358.96C1657.33 360.45 1662.6 362.49 1667.18 365.09C1671.76 367.69 1675.59 371.02 1678.66 375.07C1681.73 379.13 1683.89 384.24 1685.15 390.39C1686.29 395.97 1686.34 401.17 1685.3 406.01C1684.26 410.85 1682.3 415.24 1679.41 419.2C1676.52 423.16 1672.77 426.63 1668.16 429.62C1663.55 432.61 1658.23 435.02 1652.2 436.84L1656.07 455.76L1639.8 459.09L1635.95 440.27C1630.17 440.86 1624.44 440.74 1618.77 439.92C1613.09 439.1 1607.84 437.32 1603.02 434.57C1598.19 431.83 1594 427.98 1590.43 423.03C1586.86 418.08 1584.3 411.8 1582.74 404.2L1612.32 398.15C1613.24 402.65 1614.64 406.28 1616.52 409.03C1618.4 411.78 1620.58 413.85 1623.06 415.22C1625.54 416.6 1628.21 417.37 1631.05 417.55C1633.89 417.73 1636.71 417.53 1639.51 416.96C1642.72 416.3 1645.45 415.32 1647.7 414C1649.95 412.68 1651.75 411.13 1653.09 409.33C1654.43 407.54 1655.3 405.56 1655.72 403.39C1656.1 401.2 1656.07 398.95 1655.59 396.6Z" fill="#FFA412"/>
<path d="M1085.36 328.25C1073.02 331.33 1061.23 334.28 1050.21 336.16C1014.52 342.26 986.95 337.23 975.06 289.65C963.18 242.07 985.14 224.66 1019.51 213.26C1030.12 209.74 1041.91 206.8 1054.25 203.72C1080.63 197.13 1109.83 200.04 1133.08 207.67C1155.95 215.19 1173.07 227.28 1176.11 239.43C1179.57 253.26 1170.15 272 1153.39 288.96C1136.36 306.23 1111.74 321.66 1085.36 328.25Z" fill="#36AD98"/>
<path d="M1019.51 213.27L978.98 186.79L914.98 200.43L981.45 247.13L1019.51 213.27Z" fill="#00715D"/>
<path d="M1050.11 335.77L1026.78 378.19L963.89 396.25L1000.6 323.78L1050.11 335.77Z" fill="#00715D"/>
<path d="M1050.21 336.16C1014.52 342.26 986.95 337.23 975.06 289.65C963.18 242.07 985.14 224.66 1019.51 213.26L1050.21 336.16Z" fill="#00715D"/>
<path d="M891.74 310.46C891.74 310.46 909.55 268.95 940.74 275.34C972.55 281.86 968.54 316.14 944.67 319.28C920.79 322.43 905.66 306.98 891.74 310.46Z" fill="#F77D48"/>
<path d="M1081.45 229.42C1097.93 225.3 1114.63 235.33 1118.75 251.81C1122.87 268.29 1112.84 284.99 1096.36 289.11C1079.88 293.23 1063.18 283.2 1059.06 266.72C1054.95 250.24 1064.97 233.54 1081.45 229.42Z" fill="#163560"/>
<path d="M1088.91 292.08C1074.21 292.08 1060.8 282.11 1057.08 267.22C1052.7 249.67 1063.41 231.82 1080.96 227.44C1098.51 223.05 1116.36 233.77 1120.74 251.32C1122.86 259.82 1121.55 268.64 1117.04 276.16C1112.53 283.67 1105.36 288.98 1096.86 291.11C1094.2 291.76 1091.53 292.08 1088.91 292.08ZM1088.9 230.55C1086.6 230.55 1084.27 230.83 1081.95 231.41C1074.51 233.27 1068.24 237.91 1064.29 244.49C1060.34 251.06 1059.19 258.78 1061.05 266.22C1064.89 281.58 1080.5 290.95 1095.86 287.12C1103.3 285.26 1109.57 280.62 1113.52 274.04C1117.47 267.46 1118.62 259.75 1116.76 252.31C1113.5 239.28 1101.77 230.55 1088.9 230.55Z" fill="#BDD1F9"/>
<path d="M1153.39 288.97L1133.09 207.68C1155.96 215.2 1173.08 227.29 1176.12 239.44C1179.57 253.27 1170.15 272 1153.39 288.97Z" fill="#F77D48"/>
<path d="M2073.23 735.35C2073.23 735.35 2135.38 799.79 2138.32 824.05C2141.26 848.3 2108.55 886.17 2108.55 886.17L2073.23 735.35Z" fill="#ED7D2B"/>
<path d="M2045.15 1403.22C2045.15 1403.22 2042.96 1437.4 2036.34 1437.88C2035.46 1437.94 2002.79 1437.87 2002.79 1437.87L1961.09 1437.54C1961.09 1437.54 1961.38 1427.49 1973.58 1425.39C1985.77 1423.29 2006.2 1414.77 2013.61 1398.68C2021.42 1381.74 2045.15 1403.22 2045.15 1403.22Z" fill="#2E5A99"/>
<path d="M2138.03 1403.42C2138.03 1403.42 2135.84 1437.6 2129.22 1438.08C2128.34 1438.14 2095.67 1438.07 2095.67 1438.07L2053.97 1437.74C2053.97 1437.74 2054.26 1427.69 2066.46 1425.6C2078.65 1423.5 2099.08 1414.98 2106.49 1398.89C2114.3 1381.95 2138.03 1403.42 2138.03 1403.42Z" fill="#18417C"/>
<path d="M1999.76 1035.7C1999.76 1035.7 2010.51 1105.48 2050.93 1229.39C2091.35 1353.3 2096.77 1406.93 2096.77 1406.93L2140.42 1405.8C2140.42 1405.8 2141.09 1270.48 2122.47 1208.17C2103.85 1145.86 2118.91 983.68 2118.91 983.68L1999.76 1035.7Z" fill="#163560"/>
<path d="M1978.63 987.2C1978.63 987.2 1976.86 1092.31 1994.76 1221.41C2012.67 1350.51 2006.38 1405.28 2006.38 1405.28L2049.94 1406.82C2049.94 1406.82 2076.25 1277.77 2068.93 1213.15C2061.61 1148.54 2105.06 991.56 2105.06 991.56L1978.63 987.2Z" fill="#1C468A"/>
<path d="M2063.48 741.41L2040.24 756.57L2006.71 750.25C2007.18 747.54 2009.42 736.33 2011.46 726.17C2011.58 725.57 2011.71 724.97 2011.82 724.39C2013.57 715.74 2015.07 708.32 2015.07 708.32L2046.43 694.57L2058.12 689.44C2058.09 689.62 2057.19 699.03 2057.07 700.41C2054.83 724.8 2063.48 741.41 2063.48 741.41Z" fill="#FFB27D"/>
<path d="M2015.34 733.63C2015.99 733.36 2055.76 721.72 2060.07 723.15C2064.38 724.58 2066.92 732.94 2066.92 732.94L2001.89 747.49C2001.89 747.49 2007.03 737.1 2015.34 733.63Z" fill="#ED7D2B"/>
<path d="M2121.77 1000.49C2114.97 1031.2 2002.86 1034.6 1974.02 1006.65C1970.74 1003.46 1970.61 988.67 1971.89 968.73C1974.4 929.77 1982.31 871.17 1982.68 841.22C1982.86 826.76 1984.88 811.97 1987.56 798.55C1993.25 769.94 2001.89 747.49 2001.89 747.49C2001.89 747.49 2056.68 729.91 2066.92 732.94C2116.25 747.55 2128.58 969.78 2121.77 1000.49Z" fill="#F99746"/>
<path d="M1971.9 968.73C1974.41 929.77 1982.32 871.17 1982.69 841.22C1982.87 826.76 1984.89 811.97 1987.57 798.55L2020.52 792.81C2020.51 792.81 2052.43 924.42 1971.9 968.73Z" fill="#ED7D2B"/>
<path d="M1989.85 914.46C1989.85 914.46 1992.08 919.83 1987.36 923.42C1982.64 927.01 1979.57 932.84 1980.64 937.11C1981.71 941.38 1992.04 948.36 1995.63 947.25C1999.22 946.14 2006.53 940.53 2005.75 938.28C2004.97 936.03 2010.7 918.54 2001.97 911.79C1993.24 905.03 1989.85 914.46 1989.85 914.46Z" fill="#FFB27D"/>
<path d="M2027.06 739.66C2027.06 739.66 1994.92 745.6 1969.25 783.27C1943.57 820.93 1926.67 848.94 1931.36 862.55C1936.04 876.16 1978.92 923.4 1986.33 923.42C1993.74 923.44 2005.71 918.07 2006.41 905.95C2006.41 905.95 1976.25 860.53 1982.23 853.75C1984.78 850.85 2021.58 821.11 2026.8 834.59C2035.42 856.89 2027.06 739.66 2027.06 739.66Z" fill="#F99746"/>
<path d="M2054.72 700.83C2047.82 712.47 2022.16 722.49 2011.46 726.17C2011.58 725.57 2011.71 724.97 2011.82 724.39C2013.57 715.74 2015.07 708.32 2015.07 708.32L2046.43 694.57C2053.36 694.48 2057.57 696.04 2054.72 700.83Z" fill="#FCA56B"/>
<path d="M2003.28 706.38C2003.28 706.38 2053.71 722.23 2063.09 690.67C2072.48 659.12 2085.31 639.91 2053.51 628.46C2021.71 617.01 2011.84 627.18 2006.15 636.95C2000.45 646.72 1990.4 701.44 2003.28 706.38Z" fill="#FFB27D"/>
<path d="M2008.14 633.91C2008.14 633.91 2011.28 670.66 2018.88 669.08C2026.48 667.5 2033.38 666.33 2032.24 677.41C2031.1 688.49 2020.54 701.25 2043.95 703.26C2067.36 705.27 2101.16 644.95 2094.75 633.5C2076.26 600.47 1981.4 593.6 2008.14 633.91Z" fill="#163560"/>
<path d="M1763.62 1416.67V1429.89C1763.62 1430.94 1763.24 1431.92 1762.58 1432.73C1761.89 1433.58 1760.9 1434.26 1759.74 1434.63C1759.38 1434.76 1759.01 1434.84 1758.63 1434.9C1758.28 1434.95 1757.92 1434.98 1757.56 1434.98H1506.84C1503.81 1434.98 1501.28 1433.09 1500.83 1430.65C1500.81 1430.49 1500.78 1430.32 1500.78 1430.15C1500.78 1430.06 1500.77 1429.98 1500.77 1429.89V1416.67C1500.77 1416.58 1500.78 1416.5 1500.78 1416.41C1500.79 1416.24 1500.81 1416.07 1500.83 1415.91C1501.28 1413.47 1503.81 1411.58 1506.84 1411.58H1757.56C1757.93 1411.58 1758.28 1411.6 1758.63 1411.66C1759.01 1411.71 1759.38 1411.81 1759.74 1411.93C1760.9 1412.31 1761.89 1412.98 1762.58 1413.83C1763.23 1414.64 1763.62 1415.62 1763.62 1416.67Z" fill="#FFB93E"/>
<path d="M1640.5 1434.98H1506.18C1503.69 1434.98 1501.59 1433.37 1500.97 1431.21C1500.91 1431.03 1500.86 1430.84 1500.82 1430.65C1500.8 1430.49 1500.77 1430.32 1500.77 1430.15C1500.77 1430.06 1500.76 1429.98 1500.76 1429.89V1416.67C1500.76 1416.58 1500.77 1416.5 1500.77 1416.41C1500.78 1416.24 1500.8 1416.07 1500.82 1415.91C1500.86 1415.72 1500.91 1415.53 1500.97 1415.35C1501.6 1413.19 1503.69 1411.58 1506.18 1411.58H1624.01C1625.89 1418.47 1630.27 1427.99 1640.5 1434.98Z" fill="#FFA412"/>
<path d="M1733.11 1411.57H1730.26V1434.98H1733.11V1411.57Z" fill="#FFA412"/>
<path d="M1723.46 1411.57H1720.61V1434.98H1723.46V1411.57Z" fill="#FFA412"/>
<path d="M1711.9 1411.57H1709.05V1434.98H1711.9V1411.57Z" fill="#FFA412"/>
<path d="M1694.17 1411.57H1691.32V1434.98H1694.17V1411.57Z" fill="#FFA412"/>
<path d="M1675.42 1411.57H1672.57V1434.98H1675.42V1411.57Z" fill="#FFA412"/>
<path d="M1646.68 1411.57H1643.83V1434.98H1646.68V1411.57Z" fill="#FFA412"/>
<path d="M1619.76 1411.57H1616.91V1434.98H1619.76V1411.57Z" fill="#FFA412"/>
<path d="M1595.73 1411.57H1592.88V1434.98H1595.73V1411.57Z" fill="#FFA412"/>
<path d="M1742.29 1411.57H1739.44V1434.98H1742.29V1411.57Z" fill="#FFA412"/>
<path d="M1748.36 1411.57H1745.51V1434.98H1748.36V1411.57Z" fill="#FFA412"/>
<path d="M1754.21 1411.57H1751.36V1434.98H1754.21V1411.57Z" fill="#FFA412"/>
<path d="M1758.62 1411.66V1434.9C1758.27 1434.95 1757.91 1434.98 1757.55 1434.98H1755.77V1411.57H1757.55C1757.92 1411.57 1758.27 1411.6 1758.62 1411.66Z" fill="#FFA412"/>
<path d="M1762.58 1413.82V1432.73C1761.89 1433.59 1760.9 1434.26 1759.73 1434.64V1411.92C1760.89 1412.29 1761.89 1412.97 1762.58 1413.82Z" fill="#FFA412"/>
<path d="M1736.81 1393.26V1406.47C1736.81 1407.53 1736.43 1408.51 1735.78 1409.32C1735.61 1409.53 1735.41 1409.74 1735.21 1409.92C1734.58 1410.48 1733.81 1410.94 1732.93 1411.22C1732.58 1411.34 1732.2 1411.42 1731.82 1411.48C1731.48 1411.53 1731.11 1411.57 1730.75 1411.57H1480.02C1477 1411.57 1474.47 1409.67 1474.02 1407.23C1474 1407.07 1473.97 1406.9 1473.97 1406.74C1473.96 1406.65 1473.96 1406.57 1473.96 1406.47V1393.26C1473.96 1393.17 1473.96 1393.08 1473.97 1392.99C1473.98 1392.82 1474 1392.66 1474.02 1392.5C1474.47 1390.06 1477 1388.16 1480.02 1388.16H1730.75C1730.91 1388.16 1731.07 1388.17 1731.23 1388.18C1731.29 1388.18 1731.35 1388.19 1731.4 1388.2C1731.41 1388.19 1731.42 1388.19 1731.43 1388.2C1731.5 1388.2 1731.58 1388.21 1731.66 1388.22C1731.71 1388.23 1731.76 1388.24 1731.82 1388.24C1732.2 1388.3 1732.58 1388.38 1732.93 1388.5C1733.14 1388.57 1733.35 1388.65 1733.54 1388.74H1733.55C1733.68 1388.8 1733.82 1388.87 1733.94 1388.93C1734.01 1388.97 1734.09 1389.02 1734.16 1389.06C1734.23 1389.1 1734.3 1389.14 1734.36 1389.18C1734.63 1389.34 1734.87 1389.52 1735.1 1389.72C1735.18 1389.78 1735.24 1389.85 1735.31 1389.92C1735.36 1389.96 1735.39 1390 1735.44 1390.04C1735.46 1390.06 1735.49 1390.09 1735.5 1390.11L1735.55 1390.16C1735.63 1390.24 1735.71 1390.32 1735.78 1390.42C1736.42 1391.24 1736.81 1392.21 1736.81 1393.26Z" fill="#FFB93E"/>
<path d="M1613.69 1411.58H1479.37C1476.88 1411.58 1474.79 1409.96 1474.17 1407.8C1474.11 1407.62 1474.06 1407.43 1474.02 1407.24C1474 1407.08 1473.97 1406.91 1473.97 1406.75C1473.96 1406.66 1473.96 1406.58 1473.96 1406.48V1393.27C1473.96 1393.18 1473.96 1393.09 1473.97 1393C1473.98 1392.83 1474 1392.67 1474.02 1392.51C1474.05 1392.32 1474.11 1392.13 1474.17 1391.95C1474.79 1389.79 1476.88 1388.17 1479.37 1388.17H1597.2C1597.25 1388.37 1597.3 1388.55 1597.37 1388.75C1599.33 1395.58 1603.75 1404.79 1613.69 1411.58Z" fill="#FFA412"/>
<path d="M1706.3 1388.17H1703.45V1411.58H1706.3V1388.17Z" fill="#FFA412"/>
<path d="M1696.66 1388.17H1693.81V1411.58H1696.66V1388.17Z" fill="#FFA412"/>
<path d="M1685.09 1388.17H1682.24V1411.58H1685.09V1388.17Z" fill="#FFA412"/>
<path d="M1667.36 1388.17H1664.51V1411.58H1667.36V1388.17Z" fill="#FFA412"/>
<path d="M1648.61 1388.17H1645.76V1411.58H1648.61V1388.17Z" fill="#FFA412"/>
<path d="M1619.87 1388.17H1617.02V1411.58H1619.87V1388.17Z" fill="#FFA412"/>
<path d="M1592.96 1388.17H1590.11V1411.58H1592.96V1388.17Z" fill="#FFA412"/>
<path d="M1568.93 1388.17H1566.08V1411.58H1568.93V1388.17Z" fill="#FFA412"/>
<path d="M1715.48 1388.17H1712.63V1411.58H1715.48V1388.17Z" fill="#FFA412"/>
<path d="M1721.55 1388.17H1718.7V1411.58H1721.55V1388.17Z" fill="#FFA412"/>
<path d="M1727.41 1388.17H1724.56V1411.58H1727.41V1388.17Z" fill="#FFA412"/>
<path d="M1731.81 1388.25V1411.49C1731.46 1411.54 1731.1 1411.57 1730.74 1411.57H1728.96V1388.16H1730.74C1731.11 1388.17 1731.47 1388.2 1731.81 1388.25Z" fill="#FFA412"/>
<path d="M1735.77 1390.42V1409.33C1735.08 1410.19 1734.09 1410.86 1732.92 1411.24V1388.52C1734.09 1388.89 1735.08 1389.56 1735.77 1390.42Z" fill="#FFA412"/>
<path d="M1749.76 1370.43V1383.65C1749.76 1384.7 1749.38 1385.68 1748.72 1386.49C1748.03 1387.34 1747.04 1388.02 1745.88 1388.39C1745.53 1388.51 1745.15 1388.59 1744.77 1388.66C1744.43 1388.71 1744.07 1388.74 1743.71 1388.74H1492.98C1491.98 1388.74 1491.02 1388.53 1490.18 1388.16C1488.52 1387.43 1487.3 1386.07 1486.98 1384.46C1486.96 1384.35 1486.95 1384.24 1486.93 1384.13C1486.92 1384.06 1486.92 1383.98 1486.92 1383.9C1486.91 1383.81 1486.91 1383.73 1486.91 1383.64V1370.42C1486.91 1370.33 1486.91 1370.25 1486.92 1370.16C1486.93 1370 1486.94 1369.82 1486.97 1369.67C1487.42 1367.22 1489.95 1365.33 1492.97 1365.33H1743.7C1744.06 1365.33 1744.42 1365.35 1744.76 1365.41C1745.14 1365.46 1745.52 1365.55 1745.87 1365.67C1747.04 1366.05 1748.03 1366.73 1748.71 1367.58C1749.38 1368.4 1749.76 1369.38 1749.76 1370.43Z" fill="#FFB93E"/>
<path d="M1626.65 1388.74H1492.33C1491.43 1388.74 1490.58 1388.53 1489.84 1388.16C1488.35 1387.43 1487.26 1386.07 1486.99 1384.46C1486.97 1384.35 1486.96 1384.24 1486.94 1384.13C1486.93 1384.06 1486.93 1383.98 1486.93 1383.9C1486.92 1383.81 1486.92 1383.73 1486.92 1383.64V1370.42C1486.92 1370.33 1486.92 1370.25 1486.93 1370.16C1486.94 1370 1486.95 1369.82 1486.98 1369.67C1487.01 1369.48 1487.06 1369.3 1487.12 1369.12C1487.73 1366.94 1489.83 1365.33 1492.33 1365.33H1610.16C1611.99 1372.03 1616.19 1381.23 1625.83 1388.15C1626.09 1388.36 1626.37 1388.56 1626.65 1388.74Z" fill="#FFA412"/>
<path d="M1719.26 1365.34H1716.41V1388.75H1719.26V1365.34Z" fill="#FFA412"/>
<path d="M1709.61 1365.34H1706.76V1388.75H1709.61V1365.34Z" fill="#FFA412"/>
<path d="M1698.04 1365.34H1695.19V1388.75H1698.04V1365.34Z" fill="#FFA412"/>
<path d="M1680.31 1365.34H1677.46V1388.75H1680.31V1365.34Z" fill="#FFA412"/>
<path d="M1661.57 1365.34H1658.72V1388.75H1661.57V1365.34Z" fill="#FFA412"/>
<path d="M1632.82 1365.34H1629.97V1388.75H1632.82V1365.34Z" fill="#FFA412"/>
<path d="M1605.91 1365.34H1603.06V1388.75H1605.91V1365.34Z" fill="#FFA412"/>
<path d="M1581.88 1365.34H1579.03V1388.75H1581.88V1365.34Z" fill="#FFA412"/>
<path d="M1728.44 1365.34H1725.59V1388.75H1728.44V1365.34Z" fill="#FFA412"/>
<path d="M1734.5 1365.34H1731.65V1388.75H1734.5V1365.34Z" fill="#FFA412"/>
<path d="M1740.36 1365.34H1737.51V1388.75H1740.36V1365.34Z" fill="#FFA412"/>
<path d="M1744.77 1365.42V1388.66C1744.42 1388.71 1744.07 1388.74 1743.7 1388.74H1741.92V1365.33H1743.7C1744.06 1365.34 1744.42 1365.37 1744.77 1365.42Z" fill="#FFA412"/>
<path d="M1748.73 1367.59V1386.5C1748.04 1387.36 1747.05 1388.03 1745.88 1388.41V1365.69C1747.04 1366.06 1748.03 1366.73 1748.73 1367.59Z" fill="#FFA412"/>
<path d="M1755.77 1347.03V1360.24C1755.77 1361.3 1755.39 1362.27 1754.73 1363.08C1754.65 1363.19 1754.55 1363.29 1754.46 1363.39C1753.98 1363.9 1753.39 1364.33 1752.73 1364.65C1752.46 1364.78 1752.18 1364.89 1751.89 1364.99C1751.53 1365.11 1751.16 1365.19 1750.78 1365.25C1750.61 1365.27 1750.44 1365.3 1750.26 1365.31C1750.08 1365.33 1749.89 1365.33 1749.71 1365.33H1498.99C1495.96 1365.33 1493.43 1363.43 1492.98 1360.99C1492.96 1360.82 1492.93 1360.66 1492.93 1360.5V1346.75C1493.09 1344.27 1495.37 1342.25 1498.27 1341.96C1498.5 1341.94 1498.75 1341.92 1498.99 1341.92H1749.71C1749.89 1341.92 1750.08 1341.93 1750.26 1341.94C1750.44 1341.95 1750.61 1341.97 1750.78 1342C1751.16 1342.05 1751.53 1342.14 1751.89 1342.26C1753.05 1342.64 1754.04 1343.31 1754.73 1344.16C1755.39 1344.99 1755.77 1345.97 1755.77 1347.03Z" fill="#FFB93E"/>
<path d="M1632.66 1365.34H1498.34C1495.85 1365.34 1493.75 1363.72 1493.13 1361.56C1493.07 1361.38 1493.02 1361.19 1492.98 1361C1492.96 1360.83 1492.93 1360.67 1492.93 1360.51V1346.76C1493.07 1344.29 1495.11 1342.26 1497.7 1341.97C1497.91 1341.95 1498.12 1341.93 1498.34 1341.93H1616.17C1616.17 1341.95 1616.18 1341.95 1616.18 1341.97C1618.06 1348.85 1622.44 1358.36 1632.66 1365.34Z" fill="#FFA412"/>
<path d="M1725.26 1341.93H1722.41V1365.34H1725.26V1341.93Z" fill="#FFA412"/>
<path d="M1715.62 1341.93H1712.77V1365.34H1715.62V1341.93Z" fill="#FFA412"/>
<path d="M1704.05 1341.93H1701.2V1365.34H1704.05V1341.93Z" fill="#FFA412"/>
<path d="M1686.32 1341.93H1683.47V1365.34H1686.32V1341.93Z" fill="#FFA412"/>
<path d="M1667.57 1341.93H1664.72V1365.34H1667.57V1341.93Z" fill="#FFA412"/>
<path d="M1638.83 1341.93H1635.98V1365.34H1638.83V1341.93Z" fill="#FFA412"/>
<path d="M1611.92 1341.93H1609.07V1365.34H1611.92V1341.93Z" fill="#FFA412"/>
<path d="M1587.89 1341.93H1585.04V1365.34H1587.89V1341.93Z" fill="#FFA412"/>
<path d="M1734.44 1341.93H1731.59V1365.34H1734.44V1341.93Z" fill="#FFA412"/>
<path d="M1740.51 1341.93H1737.66V1365.34H1740.51V1341.93Z" fill="#FFA412"/>
<path d="M1746.37 1341.93H1743.52V1365.34H1746.37V1341.93Z" fill="#FFA412"/>
<path d="M1750.77 1342.01V1365.25C1750.42 1365.3 1750.07 1365.33 1749.7 1365.33H1747.92V1341.92H1749.7C1750.07 1341.93 1750.43 1341.96 1750.77 1342.01Z" fill="#FFA412"/>
<path d="M1754.73 1344.18V1363.09C1754.04 1363.95 1753.05 1364.62 1751.88 1365V1342.28C1753.05 1342.65 1754.04 1343.33 1754.73 1344.18Z" fill="#FFA412"/>
<path d="M1737.33 1323.66V1336.87C1737.33 1337.93 1736.95 1338.9 1736.3 1339.71C1735.61 1340.57 1734.62 1341.25 1733.45 1341.62C1733.1 1341.74 1732.72 1341.82 1732.34 1341.88C1732.22 1341.9 1732.11 1341.92 1731.99 1341.93H1731.94C1731.88 1341.94 1731.81 1341.95 1731.75 1341.95C1731.7 1341.96 1731.65 1341.96 1731.59 1341.97C1731.48 1341.97 1731.38 1341.98 1731.27 1341.98H1480.55C1477.32 1341.98 1474.65 1339.83 1474.49 1337.15C1474.48 1337.06 1474.48 1336.98 1474.48 1336.88V1323.67C1474.48 1323.58 1474.48 1323.49 1474.49 1323.4C1474.49 1323.33 1474.5 1323.26 1474.5 1323.19C1474.74 1321.04 1476.61 1319.25 1479.05 1318.73C1479.1 1318.72 1479.17 1318.7 1479.23 1318.69C1479.65 1318.61 1480.09 1318.56 1480.55 1318.56H1731.27C1731.46 1318.56 1731.63 1318.57 1731.81 1318.58C1731.89 1318.59 1731.97 1318.59 1732.04 1318.6C1732.05 1318.6 1732.05 1318.6 1732.06 1318.6H1732.07C1732.16 1318.61 1732.26 1318.62 1732.35 1318.64C1732.73 1318.69 1733.1 1318.78 1733.46 1318.9C1734.63 1319.28 1735.62 1319.95 1736.31 1320.81C1736.96 1321.63 1737.33 1322.6 1737.33 1323.66Z" fill="#FFB93E"/>
<path d="M1614.22 1341.97H1479.9C1477.01 1341.97 1474.64 1339.82 1474.49 1337.14C1474.48 1337.05 1474.48 1336.97 1474.48 1336.87V1323.66C1474.48 1323.57 1474.48 1323.48 1474.49 1323.39C1474.49 1323.32 1474.5 1323.25 1474.5 1323.18C1474.72 1320.97 1476.45 1319.17 1478.71 1318.69C1478.78 1318.67 1478.86 1318.65 1478.94 1318.64C1479.25 1318.59 1479.58 1318.55 1479.9 1318.55H1597.72C1597.73 1318.61 1597.75 1318.66 1597.77 1318.72C1599.67 1325.58 1604.06 1334.99 1614.16 1341.92C1614.18 1341.95 1614.2 1341.96 1614.22 1341.97Z" fill="#FFA412"/>
<path d="M1706.83 1318.56H1703.98V1341.97H1706.83V1318.56Z" fill="#FFA412"/>
<path d="M1697.18 1318.56H1694.33V1341.97H1697.18V1318.56Z" fill="#FFA412"/>
<path d="M1685.62 1318.56H1682.77V1341.97H1685.62V1318.56Z" fill="#FFA412"/>
<path d="M1667.89 1318.56H1665.04V1341.97H1667.89V1318.56Z" fill="#FFA412"/>
<path d="M1649.14 1318.56H1646.29V1341.97H1649.14V1318.56Z" fill="#FFA412"/>
<path d="M1620.4 1318.56H1617.55V1341.97H1620.4V1318.56Z" fill="#FFA412"/>
<path d="M1593.48 1318.56H1590.63V1341.97H1593.48V1318.56Z" fill="#FFA412"/>
<path d="M1569.45 1318.56H1566.6V1341.97H1569.45V1318.56Z" fill="#FFA412"/>
<path d="M1716.01 1318.56H1713.16V1341.97H1716.01V1318.56Z" fill="#FFA412"/>
<path d="M1722.08 1318.56H1719.23V1341.97H1722.08V1318.56Z" fill="#FFA412"/>
<path d="M1727.93 1318.56H1725.08V1341.97H1727.93V1318.56Z" fill="#FFA412"/>
<path d="M1732.34 1318.64V1341.88C1731.99 1341.93 1731.64 1341.96 1731.27 1341.96H1729.49V1318.55H1731.27C1731.64 1318.56 1731.99 1318.59 1732.34 1318.64Z" fill="#FFA412"/>
<path d="M1736.3 1320.81V1339.72C1735.61 1340.58 1734.62 1341.25 1733.45 1341.63V1318.91C1734.61 1319.28 1735.61 1319.96 1736.3 1320.81Z" fill="#FFA412"/>
<path d="M1736.81 1300.42V1313.63C1736.81 1314.69 1736.43 1315.66 1735.78 1316.47C1735.61 1316.68 1735.41 1316.89 1735.21 1317.08C1734.58 1317.64 1733.81 1318.1 1732.93 1318.38C1732.65 1318.47 1732.36 1318.55 1732.07 1318.6H1732.06C1732.05 1318.6 1732.05 1318.6 1732.04 1318.6C1731.96 1318.61 1731.89 1318.63 1731.81 1318.64C1731.47 1318.69 1731.1 1318.73 1730.74 1318.73H1480.01C1479.75 1318.73 1479.49 1318.71 1479.23 1318.68C1479.13 1318.67 1479.03 1318.66 1478.93 1318.64C1476.38 1318.25 1474.36 1316.5 1474 1314.33C1473.98 1314.18 1473.96 1314.04 1473.95 1313.89C1473.94 1313.8 1473.94 1313.71 1473.94 1313.62V1300.41C1473.94 1300.32 1473.94 1300.23 1473.95 1300.14C1473.96 1299.98 1473.98 1299.81 1474 1299.65C1474.45 1297.21 1476.98 1295.31 1480 1295.31H1730.73C1730.89 1295.31 1731.05 1295.32 1731.21 1295.33C1731.23 1295.33 1731.26 1295.34 1731.27 1295.34C1731.32 1295.35 1731.36 1295.35 1731.41 1295.35C1731.48 1295.36 1731.56 1295.37 1731.64 1295.38C1731.69 1295.38 1731.74 1295.39 1731.8 1295.4C1732.18 1295.45 1732.56 1295.54 1732.91 1295.66C1733.12 1295.73 1733.33 1295.81 1733.52 1295.89H1733.53C1734.31 1296.24 1734.99 1296.72 1735.53 1297.3C1735.61 1297.39 1735.69 1297.47 1735.76 1297.56C1736.42 1298.38 1736.81 1299.36 1736.81 1300.42Z" fill="#FFB93E"/>
<path d="M1613.69 1318.73H1479.37C1479.27 1318.73 1479.16 1318.72 1479.06 1318.72C1478.94 1318.71 1478.83 1318.7 1478.72 1318.69C1476.29 1318.4 1474.35 1316.6 1474.02 1314.34C1474 1314.19 1473.98 1314.05 1473.97 1313.9C1473.96 1313.81 1473.96 1313.72 1473.96 1313.63V1300.42C1473.96 1300.33 1473.96 1300.24 1473.97 1300.15C1473.98 1299.99 1474 1299.82 1474.02 1299.66C1474.05 1299.47 1474.11 1299.28 1474.17 1299.1C1474.79 1296.94 1476.88 1295.32 1479.37 1295.32H1597.2C1597.25 1295.52 1597.3 1295.7 1597.37 1295.9C1599.32 1302.68 1603.68 1311.78 1613.46 1318.56C1613.53 1318.62 1613.62 1318.67 1613.69 1318.73Z" fill="#FFA412"/>
<path d="M1706.3 1295.32H1703.45V1318.73H1706.3V1295.32Z" fill="#FFA412"/>
<path d="M1696.66 1295.32H1693.81V1318.73H1696.66V1295.32Z" fill="#FFA412"/>
<path d="M1685.09 1295.32H1682.24V1318.73H1685.09V1295.32Z" fill="#FFA412"/>
<path d="M1667.36 1295.32H1664.51V1318.73H1667.36V1295.32Z" fill="#FFA412"/>
<path d="M1648.61 1295.32H1645.76V1318.73H1648.61V1295.32Z" fill="#FFA412"/>
<path d="M1619.87 1295.32H1617.02V1318.73H1619.87V1295.32Z" fill="#FFA412"/>
<path d="M1592.96 1295.32H1590.11V1318.73H1592.96V1295.32Z" fill="#FFA412"/>
<path d="M1568.93 1295.32H1566.08V1318.73H1568.93V1295.32Z" fill="#FFA412"/>
<path d="M1715.48 1295.32H1712.63V1318.73H1715.48V1295.32Z" fill="#FFA412"/>
<path d="M1721.55 1295.32H1718.7V1318.73H1721.55V1295.32Z" fill="#FFA412"/>
<path d="M1727.41 1295.32H1724.56V1318.73H1727.41V1295.32Z" fill="#FFA412"/>
<path d="M1731.81 1295.41V1318.65C1731.46 1318.7 1731.1 1318.73 1730.74 1318.73H1728.96V1295.32H1730.74C1731.11 1295.32 1731.47 1295.35 1731.81 1295.41Z" fill="#FFA412"/>
<path d="M1735.77 1297.57V1316.48C1735.08 1317.34 1734.09 1318.01 1732.92 1318.39V1295.67C1734.09 1296.04 1735.08 1296.72 1735.77 1297.57Z" fill="#FFA412"/>
<path d="M1749.76 1277.59V1290.8C1749.76 1291.86 1749.38 1292.84 1748.72 1293.65C1748.03 1294.5 1747.04 1295.18 1745.88 1295.55C1745.53 1295.67 1745.15 1295.75 1744.77 1295.81C1744.43 1295.86 1744.07 1295.89 1743.71 1295.89H1492.98C1491.98 1295.89 1491.02 1295.68 1490.18 1295.31C1488.52 1294.58 1487.3 1293.22 1486.98 1291.61C1486.96 1291.5 1486.95 1291.39 1486.93 1291.28C1486.92 1291.2 1486.92 1291.13 1486.92 1291.05C1486.91 1290.96 1486.91 1290.88 1486.91 1290.78V1277.57C1486.91 1277.48 1486.91 1277.39 1486.92 1277.3C1486.93 1277.13 1486.94 1276.97 1486.97 1276.81C1487.42 1274.37 1489.95 1272.47 1492.97 1272.47H1743.7C1744.06 1272.47 1744.42 1272.5 1744.76 1272.56C1745.14 1272.61 1745.52 1272.7 1745.87 1272.82C1747.04 1273.2 1748.03 1273.87 1748.71 1274.73C1749.38 1275.56 1749.76 1276.53 1749.76 1277.59Z" fill="#FFB93E"/>
<path d="M1626.65 1295.9H1492.33C1491.43 1295.9 1490.58 1295.69 1489.84 1295.32C1488.35 1294.59 1487.26 1293.23 1486.99 1291.62C1486.97 1291.51 1486.96 1291.4 1486.94 1291.29C1486.93 1291.21 1486.93 1291.14 1486.93 1291.06C1486.92 1290.97 1486.92 1290.89 1486.92 1290.79V1277.58C1486.92 1277.49 1486.92 1277.4 1486.93 1277.31C1486.94 1277.14 1486.95 1276.98 1486.98 1276.82C1487.01 1276.63 1487.06 1276.45 1487.12 1276.28C1487.73 1274.11 1489.83 1272.48 1492.33 1272.48H1610.16C1611.99 1279.19 1616.19 1288.39 1625.83 1295.31C1626.09 1295.52 1626.37 1295.71 1626.65 1295.9Z" fill="#FFA412"/>
<path d="M1719.26 1272.5H1716.41V1295.91H1719.26V1272.5Z" fill="#FFA412"/>
<path d="M1709.61 1272.5H1706.76V1295.91H1709.61V1272.5Z" fill="#FFA412"/>
<path d="M1698.04 1272.5H1695.19V1295.91H1698.04V1272.5Z" fill="#FFA412"/>
<path d="M1680.31 1272.5H1677.46V1295.91H1680.31V1272.5Z" fill="#FFA412"/>
<path d="M1661.57 1272.5H1658.72V1295.91H1661.57V1272.5Z" fill="#FFA412"/>
<path d="M1632.82 1272.5H1629.97V1295.91H1632.82V1272.5Z" fill="#FFA412"/>
<path d="M1605.91 1272.5H1603.06V1295.91H1605.91V1272.5Z" fill="#FFA412"/>
<path d="M1581.88 1272.5H1579.03V1295.91H1581.88V1272.5Z" fill="#FFA412"/>
<path d="M1728.44 1272.5H1725.59V1295.91H1728.44V1272.5Z" fill="#FFA412"/>
<path d="M1734.5 1272.5H1731.65V1295.91H1734.5V1272.5Z" fill="#FFA412"/>
<path d="M1740.36 1272.5H1737.51V1295.91H1740.36V1272.5Z" fill="#FFA412"/>
<path d="M1744.77 1272.58V1295.82C1744.42 1295.87 1744.07 1295.9 1743.7 1295.9H1741.92V1272.49H1743.7C1744.06 1272.49 1744.42 1272.52 1744.77 1272.58Z" fill="#FFA412"/>
<path d="M1748.73 1274.74V1293.65C1748.04 1294.51 1747.05 1295.18 1745.88 1295.56V1272.84C1747.04 1273.21 1748.03 1273.89 1748.73 1274.74Z" fill="#FFA412"/>
<path d="M1770.25 1254.18V1267.4C1770.25 1268.45 1769.87 1269.42 1769.22 1270.24L1769.21 1270.25C1769.12 1270.36 1769.03 1270.46 1768.94 1270.56C1768.56 1270.97 1768.11 1271.32 1767.6 1271.61C1767.35 1271.75 1767.08 1271.88 1766.8 1271.99C1766.79 1271.99 1766.79 1272 1766.79 1272C1766.66 1272.05 1766.52 1272.11 1766.37 1272.16C1766.02 1272.28 1765.64 1272.36 1765.26 1272.42C1764.92 1272.47 1764.55 1272.5 1764.19 1272.5H1513.46C1510.44 1272.5 1507.91 1270.61 1507.46 1268.17C1507.43 1268 1507.41 1267.84 1507.41 1267.67C1507.4 1267.58 1507.4 1267.5 1507.4 1267.41V1254.19C1507.4 1254.1 1507.4 1254.02 1507.41 1253.93C1507.56 1251.45 1509.85 1249.43 1512.75 1249.14C1512.99 1249.11 1513.22 1249.1 1513.46 1249.1H1764.19C1764.55 1249.1 1764.91 1249.13 1765.26 1249.18C1765.64 1249.24 1766.02 1249.33 1766.37 1249.45C1767.39 1249.78 1768.26 1250.33 1768.94 1251.04C1769.03 1251.14 1769.13 1251.24 1769.21 1251.35L1769.22 1251.36C1769.87 1252.16 1770.25 1253.13 1770.25 1254.18Z" fill="#FFB93E"/>
<path d="M1647.14 1272.49H1512.82C1510.32 1272.49 1508.22 1270.87 1507.61 1268.7C1507.55 1268.52 1507.5 1268.34 1507.47 1268.16C1507.44 1267.99 1507.42 1267.83 1507.42 1267.66C1507.41 1267.57 1507.41 1267.49 1507.41 1267.4V1254.18C1507.41 1254.09 1507.41 1254.01 1507.42 1253.92C1507.55 1251.44 1509.6 1249.42 1512.18 1249.13C1512.39 1249.1 1512.6 1249.09 1512.82 1249.09H1630.65C1630.65 1249.1 1630.66 1249.11 1630.66 1249.13C1632.54 1256.01 1636.92 1265.52 1647.14 1272.49Z" fill="#FFA412"/>
<path d="M1739.75 1249.09H1736.9V1272.5H1739.75V1249.09Z" fill="#FFA412"/>
<path d="M1730.1 1249.09H1727.25V1272.5H1730.1V1249.09Z" fill="#FFA412"/>
<path d="M1718.53 1249.09H1715.68V1272.5H1718.53V1249.09Z" fill="#FFA412"/>
<path d="M1700.8 1249.09H1697.95V1272.5H1700.8V1249.09Z" fill="#FFA412"/>
<path d="M1682.06 1249.09H1679.21V1272.5H1682.06V1249.09Z" fill="#FFA412"/>
<path d="M1653.31 1249.09H1650.46V1272.5H1653.31V1249.09Z" fill="#FFA412"/>
<path d="M1626.4 1249.09H1623.55V1272.5H1626.4V1249.09Z" fill="#FFA412"/>
<path d="M1602.37 1249.09H1599.52V1272.5H1602.37V1249.09Z" fill="#FFA412"/>
<path d="M1748.93 1249.09H1746.08V1272.5H1748.93V1249.09Z" fill="#FFA412"/>
<path d="M1754.99 1249.09H1752.14V1272.5H1754.99V1249.09Z" fill="#FFA412"/>
<path d="M1760.85 1249.09H1758V1272.5H1760.85V1249.09Z" fill="#FFA412"/>
<path d="M1765.26 1249.17V1272.41C1764.91 1272.46 1764.55 1272.49 1764.19 1272.49H1762.41V1249.08H1764.19C1764.55 1249.09 1764.91 1249.12 1765.26 1249.17Z" fill="#FFA412"/>
<path d="M1769.21 1251.34V1270.25C1768.52 1271.11 1767.53 1271.78 1766.36 1272.16V1249.44C1767.53 1249.81 1768.52 1250.48 1769.21 1251.34Z" fill="#FFA412"/>
<path d="M1737.33 1230.82V1244.03C1737.33 1245.09 1736.95 1246.06 1736.3 1246.87C1735.61 1247.73 1734.62 1248.41 1733.45 1248.78C1733.1 1248.9 1732.72 1248.98 1732.34 1249.04C1732.22 1249.06 1732.11 1249.07 1731.99 1249.09H1731.94C1731.86 1249.11 1731.78 1249.11 1731.7 1249.11C1731.65 1249.11 1731.61 1249.12 1731.56 1249.12C1731.46 1249.12 1731.37 1249.13 1731.26 1249.13H1480.54C1478.36 1249.13 1476.44 1248.16 1475.38 1246.7C1474.86 1245.99 1474.53 1245.17 1474.48 1244.3C1474.47 1244.21 1474.47 1244.12 1474.47 1244.03V1230.82C1474.47 1230.73 1474.47 1230.64 1474.48 1230.55C1474.61 1228.38 1476.39 1226.55 1478.78 1225.94C1479.34 1225.79 1479.93 1225.71 1480.54 1225.71H1731.26C1731.37 1225.71 1731.47 1225.72 1731.58 1225.72C1731.64 1225.72 1731.69 1225.73 1731.74 1225.74C1731.94 1225.75 1732.14 1225.77 1732.33 1225.8C1732.71 1225.85 1733.08 1225.94 1733.44 1226.06C1733.62 1226.11 1733.79 1226.18 1733.96 1226.26H1733.97C1734.64 1226.53 1735.23 1226.91 1735.72 1227.36C1735.73 1227.37 1735.74 1227.38 1735.74 1227.39C1735.76 1227.41 1735.79 1227.43 1735.81 1227.45C1735.98 1227.61 1736.14 1227.78 1736.29 1227.96C1736.96 1228.78 1737.33 1229.76 1737.33 1230.82Z" fill="#FFB93E"/>
<path d="M1614.22 1249.13H1479.9C1478.01 1249.13 1476.34 1248.21 1475.37 1246.82C1474.85 1246.08 1474.53 1245.22 1474.49 1244.3C1474.48 1244.21 1474.48 1244.12 1474.48 1244.03V1230.82C1474.48 1230.73 1474.48 1230.64 1474.49 1230.55C1474.62 1228.22 1476.43 1226.29 1478.8 1225.83C1479.15 1225.76 1479.52 1225.72 1479.9 1225.72H1597.72C1597.77 1225.9 1597.82 1226.08 1597.88 1226.26C1599.83 1233.09 1604.24 1242.29 1614.16 1249.09C1614.18 1249.1 1614.2 1249.11 1614.22 1249.13Z" fill="#FFA412"/>
<path d="M1706.83 1225.72H1703.98V1249.13H1706.83V1225.72Z" fill="#FFA412"/>
<path d="M1697.18 1225.72H1694.33V1249.13H1697.18V1225.72Z" fill="#FFA412"/>
<path d="M1685.62 1225.72H1682.77V1249.13H1685.62V1225.72Z" fill="#FFA412"/>
<path d="M1667.89 1225.72H1665.04V1249.13H1667.89V1225.72Z" fill="#FFA412"/>
<path d="M1649.14 1225.72H1646.29V1249.13H1649.14V1225.72Z" fill="#FFA412"/>
<path d="M1620.4 1225.72H1617.55V1249.13H1620.4V1225.72Z" fill="#FFA412"/>
<path d="M1593.48 1225.72H1590.63V1249.13H1593.48V1225.72Z" fill="#FFA412"/>
<path d="M1569.45 1225.72H1566.6V1249.13H1569.45V1225.72Z" fill="#FFA412"/>
<path d="M1716.01 1225.72H1713.16V1249.13H1716.01V1225.72Z" fill="#FFA412"/>
<path d="M1722.08 1225.72H1719.23V1249.13H1722.08V1225.72Z" fill="#FFA412"/>
<path d="M1727.93 1225.72H1725.08V1249.13H1727.93V1225.72Z" fill="#FFA412"/>
<path d="M1732.34 1225.8V1249.04C1731.99 1249.09 1731.64 1249.12 1731.27 1249.12H1729.49V1225.71H1731.27C1731.64 1225.72 1731.99 1225.75 1732.34 1225.8Z" fill="#FFA412"/>
<path d="M1736.3 1227.97V1246.88C1735.61 1247.74 1734.62 1248.41 1733.45 1248.79V1226.07C1734.61 1226.44 1735.61 1227.11 1736.3 1227.97Z" fill="#FFA412"/>
<path d="M1755.77 1207.95V1221.17C1755.77 1222.22 1755.39 1223.2 1754.73 1224.01C1754.04 1224.87 1753.05 1225.54 1751.88 1225.92C1751.52 1226.04 1751.15 1226.13 1750.77 1226.18C1750.42 1226.23 1750.07 1226.26 1749.7 1226.26H1498.98C1498.01 1226.26 1497.08 1226.07 1496.27 1225.72C1494.44 1224.95 1493.13 1223.42 1492.94 1221.64C1492.93 1221.57 1492.93 1221.5 1492.92 1221.43C1492.92 1221.34 1492.91 1221.26 1492.91 1221.17V1207.95C1492.91 1207.86 1492.91 1207.78 1492.92 1207.69C1493.07 1205.21 1495.36 1203.18 1498.26 1202.89C1498.49 1202.86 1498.73 1202.85 1498.98 1202.85H1749.7C1750.07 1202.85 1750.42 1202.88 1750.77 1202.93C1751.15 1202.99 1751.52 1203.07 1751.88 1203.19C1753.04 1203.57 1754.04 1204.24 1754.73 1205.1C1755.39 1205.92 1755.77 1206.89 1755.77 1207.95Z" fill="#FFB93E"/>
<path d="M1632.65 1226.26H1498.33C1497.46 1226.26 1496.64 1226.07 1495.91 1225.72C1494.28 1224.95 1493.11 1223.42 1492.94 1221.64C1492.93 1221.57 1492.93 1221.5 1492.92 1221.43C1492.92 1221.34 1492.91 1221.26 1492.91 1221.17V1207.95C1492.91 1207.86 1492.91 1207.78 1492.92 1207.69C1493.05 1205.21 1495.1 1203.18 1497.69 1202.89C1497.9 1202.86 1498.11 1202.85 1498.33 1202.85H1616.15C1616.15 1202.86 1616.16 1202.88 1616.16 1202.89C1618 1209.6 1622.21 1218.8 1631.87 1225.72C1632.13 1225.9 1632.39 1226.08 1632.65 1226.26Z" fill="#FFA412"/>
<path d="M1725.26 1202.85H1722.41V1226.26H1725.26V1202.85Z" fill="#FFA412"/>
<path d="M1715.62 1202.85H1712.77V1226.26H1715.62V1202.85Z" fill="#FFA412"/>
<path d="M1704.05 1202.85H1701.2V1226.26H1704.05V1202.85Z" fill="#FFA412"/>
<path d="M1686.32 1202.85H1683.47V1226.26H1686.32V1202.85Z" fill="#FFA412"/>
<path d="M1667.57 1202.85H1664.72V1226.26H1667.57V1202.85Z" fill="#FFA412"/>
<path d="M1638.83 1202.85H1635.98V1226.26H1638.83V1202.85Z" fill="#FFA412"/>
<path d="M1611.92 1202.85H1609.07V1226.26H1611.92V1202.85Z" fill="#FFA412"/>
<path d="M1587.89 1202.85H1585.04V1226.26H1587.89V1202.85Z" fill="#FFA412"/>
<path d="M1734.44 1202.85H1731.59V1226.26H1734.44V1202.85Z" fill="#FFA412"/>
<path d="M1740.51 1202.85H1737.66V1226.26H1740.51V1202.85Z" fill="#FFA412"/>
<path d="M1746.37 1202.85H1743.52V1226.26H1746.37V1202.85Z" fill="#FFA412"/>
<path d="M1750.77 1202.93V1226.17C1750.42 1226.22 1750.07 1226.25 1749.7 1226.25H1747.92V1202.84H1749.7C1750.07 1202.85 1750.43 1202.88 1750.77 1202.93Z" fill="#FFA412"/>
<path d="M1754.73 1205.1V1224.01C1754.04 1224.87 1753.05 1225.54 1751.88 1225.92V1203.2C1753.05 1203.57 1754.04 1204.25 1754.73 1205.1Z" fill="#FFA412"/>
<path d="M1763.62 1184.58V1197.8C1763.62 1198.85 1763.24 1199.83 1762.58 1200.64C1761.89 1201.5 1760.9 1202.17 1759.73 1202.55C1759.37 1202.67 1759 1202.76 1758.62 1202.81C1758.5 1202.83 1758.39 1202.84 1758.27 1202.85C1758.21 1202.85 1758.14 1202.86 1758.07 1202.87C1758.01 1202.88 1757.94 1202.88 1757.87 1202.88C1757.76 1202.89 1757.66 1202.89 1757.55 1202.89H1506.83C1503.6 1202.89 1500.94 1200.74 1500.77 1198.06C1500.77 1197.97 1500.76 1197.89 1500.76 1197.8V1184.58C1500.76 1184.49 1500.76 1184.41 1500.77 1184.32C1500.93 1181.64 1503.6 1179.49 1506.83 1179.49H1757.55C1757.92 1179.49 1758.27 1179.52 1758.62 1179.57C1759 1179.63 1759.37 1179.71 1759.73 1179.83C1760.89 1180.21 1761.89 1180.88 1762.58 1181.74C1763.24 1182.55 1763.62 1183.52 1763.62 1184.58Z" fill="#FFB93E"/>
<path d="M1640.5 1202.89H1506.18C1503.3 1202.89 1500.92 1200.74 1500.77 1198.06C1500.77 1197.97 1500.76 1197.89 1500.76 1197.8V1184.58C1500.76 1184.49 1500.76 1184.41 1500.77 1184.32C1500.92 1181.64 1503.3 1179.49 1506.18 1179.49H1624C1625.88 1186.37 1630.25 1195.88 1640.44 1202.86C1640.46 1202.86 1640.48 1202.88 1640.5 1202.89Z" fill="#FFA412"/>
<path d="M1733.11 1179.48H1730.26V1202.89H1733.11V1179.48Z" fill="#FFA412"/>
<path d="M1723.46 1179.48H1720.61V1202.89H1723.46V1179.48Z" fill="#FFA412"/>
<path d="M1711.9 1179.48H1709.05V1202.89H1711.9V1179.48Z" fill="#FFA412"/>
<path d="M1694.17 1179.48H1691.32V1202.89H1694.17V1179.48Z" fill="#FFA412"/>
<path d="M1675.42 1179.48H1672.57V1202.89H1675.42V1179.48Z" fill="#FFA412"/>
<path d="M1646.68 1179.48H1643.83V1202.89H1646.68V1179.48Z" fill="#FFA412"/>
<path d="M1619.76 1179.48H1616.91V1202.89H1619.76V1179.48Z" fill="#FFA412"/>
<path d="M1595.73 1179.48H1592.88V1202.89H1595.73V1179.48Z" fill="#FFA412"/>
<path d="M1742.29 1179.48H1739.44V1202.89H1742.29V1179.48Z" fill="#FFA412"/>
<path d="M1748.36 1179.48H1745.51V1202.89H1748.36V1179.48Z" fill="#FFA412"/>
<path d="M1754.21 1179.48H1751.36V1202.89H1754.21V1179.48Z" fill="#FFA412"/>
<path d="M1758.62 1179.56V1202.8C1758.27 1202.85 1757.92 1202.88 1757.55 1202.88H1755.77V1179.47H1757.55C1757.92 1179.48 1758.27 1179.51 1758.62 1179.56Z" fill="#FFA412"/>
<path d="M1762.58 1181.73V1200.64C1761.89 1201.5 1760.9 1202.17 1759.73 1202.55V1179.83C1760.89 1180.2 1761.89 1180.88 1762.58 1181.73Z" fill="#FFA412"/>
<path d="M1684.14 1046.1C1684.14 1046.1 1670.97 1064.64 1658.9 1064.9C1646.83 1065.16 1628.46 1056.31 1628.46 1056.31C1628.46 1056.31 1617.38 1031.61 1624.89 1021.94C1624.89 1021.94 1632.43 1018.63 1640.31 1024.47C1641.66 1025.48 1643.04 1026.75 1644.39 1028.38C1646.3 1030.68 1648.45 1031.99 1650.73 1032.68C1659.35 1035.3 1669.57 1029.14 1673.4 1035.09C1675.63 1038.55 1678.06 1041.15 1680.06 1042.97C1682.43 1045.07 1684.14 1046.1 1684.14 1046.1Z" fill="#FFEDDC"/>
<path d="M1512.46 1179.83C1512.46 1179.83 1559.01 1067.05 1642.79 1064.9C1642.79 1064.9 1720.13 1073.49 1724.42 1179.83H1512.46Z" fill="#FFEDDC"/>
<path d="M1619.84 1068.34C1619.84 1068.34 1653.42 1075.81 1663.78 1071.42C1663.78 1071.42 1665.35 1057.38 1651.2 1059.35C1641.52 1060.7 1635.22 1056.05 1631.51 1054.16C1626.26 1051.48 1618.44 1062.46 1619.84 1068.34Z" fill="#DB6A1D"/>
<path d="M1649.06 1047.17C1646.91 1048.78 1640.32 1024.46 1640.32 1024.46C1641.67 1025.47 1643.05 1026.74 1644.4 1028.37C1646.31 1030.67 1648.46 1031.98 1650.74 1032.67C1650.76 1033.38 1651.15 1045.6 1649.06 1047.17Z" fill="#E5C1A1"/>
<path d="M1680.06 1042.96C1679.59 1043.24 1664.06 1052.54 1661.95 1052.54C1659.8 1052.54 1673.4 1035.07 1673.4 1035.07C1675.64 1038.54 1678.06 1041.13 1680.06 1042.96Z" fill="#E5C1A1"/>
<path d="M1557.93 1148.32C1557.07 1147.58 1590.87 1098.55 1600.18 1098.19C1609.49 1097.83 1630.4 1108.93 1645.55 1110.36C1660.69 1111.79 1675.37 1107.5 1678.24 1116.45C1681.1 1125.4 1688.98 1157.13 1684.15 1162.21C1679.31 1167.29 1576.52 1164.2 1557.93 1148.32Z" fill="#F9DDBF"/>
<path opacity="0.5" d="M1589.77 1318.56C1589.76 1318.62 1589.76 1318.68 1589.75 1318.73C1589.31 1326.59 1588.05 1334.36 1585.99 1341.93C1585.99 1341.94 1585.98 1341.95 1585.98 1341.97C1585.68 1343.07 1585.37 1344.16 1585.03 1345.25C1582.93 1352.16 1580.17 1358.89 1576.77 1365.34C1572.5 1373.45 1567.24 1381.12 1561.02 1388.16C1560.85 1388.36 1560.68 1388.55 1560.51 1388.74C1552.74 1397.44 1543.52 1405.17 1532.97 1411.57C1530.75 1412.92 1528.47 1414.22 1526.12 1415.45C1524.54 1416.28 1522.95 1417.06 1521.35 1417.82C1519.82 1418.7 1518.21 1419.46 1516.69 1420.4C1512.27 1423.1 1506.76 1425.25 1500.76 1426.96V1416.67C1500.76 1416.58 1500.77 1416.5 1500.77 1416.41C1500.78 1416.24 1500.8 1416.07 1500.82 1415.91C1500.86 1415.72 1500.91 1415.53 1500.97 1415.35C1501.6 1413.19 1503.69 1411.58 1506.18 1411.58H1479.37C1476.88 1411.58 1474.79 1409.96 1474.17 1407.8C1474.11 1407.62 1474.06 1407.43 1474.02 1407.24C1474 1407.08 1473.97 1406.91 1473.97 1406.75C1473.96 1406.66 1473.96 1406.58 1473.96 1406.48V1393.27C1473.96 1393.18 1473.96 1393.09 1473.97 1393C1473.98 1392.83 1474 1392.67 1474.02 1392.51C1474.05 1392.32 1474.11 1392.13 1474.17 1391.95C1474.79 1389.79 1476.88 1388.17 1479.37 1388.17H1489.83C1488.34 1387.44 1487.25 1386.08 1486.98 1384.47C1486.96 1384.36 1486.95 1384.25 1486.93 1384.14C1486.92 1384.07 1486.92 1383.99 1486.92 1383.91C1486.91 1383.82 1486.91 1383.74 1486.91 1383.65V1370.43C1486.91 1370.34 1486.91 1370.26 1486.92 1370.17C1486.93 1370.01 1486.94 1369.83 1486.97 1369.68C1487 1369.49 1487.05 1369.31 1487.11 1369.13C1487.72 1366.95 1489.82 1365.34 1492.32 1365.34H1498.33C1495.84 1365.34 1493.74 1363.72 1493.12 1361.56C1493.06 1361.38 1493.01 1361.19 1492.97 1361C1492.95 1360.83 1492.92 1360.67 1492.92 1360.51V1346.76C1493.06 1344.29 1495.1 1342.26 1497.69 1341.97H1479.9C1477.01 1341.97 1474.64 1339.82 1474.49 1337.14C1474.48 1337.05 1474.48 1336.97 1474.48 1336.87V1323.66C1474.48 1323.57 1474.48 1323.48 1474.49 1323.39C1474.49 1323.32 1474.5 1323.25 1474.5 1323.18C1474.72 1320.97 1476.45 1319.17 1478.71 1318.69C1476.28 1318.4 1474.34 1316.6 1474.01 1314.34C1473.99 1314.19 1473.97 1314.05 1473.96 1313.9C1473.95 1313.81 1473.95 1313.72 1473.95 1313.63V1300.42C1473.95 1300.33 1473.95 1300.24 1473.96 1300.15C1473.97 1299.99 1473.99 1299.82 1474.01 1299.66C1474.04 1299.47 1474.1 1299.28 1474.16 1299.1C1474.78 1296.94 1476.87 1295.32 1479.36 1295.32H1489.82C1488.33 1294.59 1487.24 1293.23 1486.97 1291.62C1486.95 1291.51 1486.94 1291.4 1486.92 1291.29C1486.91 1291.21 1486.91 1291.14 1486.91 1291.06C1486.9 1290.97 1486.9 1290.89 1486.9 1290.79V1277.58C1486.9 1277.49 1486.9 1277.4 1486.91 1277.31C1486.92 1277.14 1486.93 1276.98 1486.96 1276.82C1486.99 1276.63 1487.04 1276.45 1487.1 1276.28C1487.71 1274.11 1489.81 1272.48 1492.31 1272.48H1512.8C1510.3 1272.48 1508.2 1270.86 1507.59 1268.69C1507.53 1268.51 1507.48 1268.33 1507.45 1268.15C1507.42 1267.98 1507.4 1267.82 1507.4 1267.65C1507.39 1267.56 1507.39 1267.48 1507.39 1267.39V1254.17C1507.39 1254.08 1507.39 1254 1507.4 1253.91C1507.53 1251.43 1509.58 1249.41 1512.16 1249.12H1479.89C1478 1249.12 1476.33 1248.2 1475.36 1246.81L1475.38 1246.69L1478.78 1225.94L1478.79 1225.82L1483.63 1196.21C1489.25 1196.96 1494.8 1198.08 1500.24 1199.55C1500.56 1199.64 1500.87 1199.72 1501.2 1199.81C1501.22 1199.82 1501.24 1199.83 1501.26 1199.83C1504.43 1200.71 1507.57 1201.72 1510.65 1202.85C1510.68 1202.86 1510.7 1202.87 1510.74 1202.88C1524.95 1208.06 1538.18 1215.74 1549.67 1225.71C1549.87 1225.88 1550.08 1226.06 1550.27 1226.25C1556.24 1231.49 1561.72 1237.36 1566.59 1243.83C1567.57 1245.12 1568.52 1246.42 1569.43 1247.75C1569.74 1248.19 1570.04 1248.63 1570.33 1249.07C1570.35 1249.08 1570.35 1249.09 1570.35 1249.11C1571.83 1251.3 1573.23 1253.53 1574.56 1255.84C1577.7 1261.27 1580.34 1266.83 1582.49 1272.48C1585.36 1279.98 1587.38 1287.62 1588.57 1295.31C1588.61 1295.51 1588.63 1295.69 1588.66 1295.89C1589.83 1303.46 1590.17 1311.05 1589.77 1318.56Z" fill="#E2810E"/>
<path d="M1330.78 1366.02C1297.9 1306.37 1319.6 1231.36 1379.25 1198.48C1438.9 1165.6 1513.91 1187.3 1546.79 1246.95C1579.67 1306.6 1557.97 1381.61 1498.33 1414.49C1438.67 1447.36 1363.66 1425.66 1330.78 1366.02Z" fill="#E2810E"/>
<path d="M1493.53 1416.99C1492.01 1417.92 1490.47 1418.81 1488.9 1419.68C1488.37 1419.97 1487.84 1420.26 1487.3 1420.54C1486.08 1421.19 1484.87 1421.81 1483.64 1422.42C1424.91 1451.26 1353.28 1429.13 1321.35 1371.21C1290.9 1315.97 1307.27 1247.55 1357.23 1211.62C1361.22 1208.75 1365.41 1206.09 1369.81 1203.67C1371.39 1202.8 1372.99 1201.96 1374.59 1201.17C1376.14 1200.39 1377.72 1199.66 1379.29 1198.96C1384.12 1196.81 1389.02 1194.99 1393.98 1193.51C1401.34 1191.29 1408.82 1189.8 1416.31 1189.01C1439.54 1186.55 1462.91 1190.79 1483.64 1200.93C1505.63 1211.68 1524.64 1229.07 1537.36 1252.14C1569.38 1310.22 1549.65 1382.85 1493.53 1416.99Z" fill="#FFB93E"/>
<path d="M1430.22 1423.5C1419.91 1423.5 1409.54 1422.04 1399.36 1419.1C1371.01 1410.9 1347.54 1392.15 1333.3 1366.3C1319.05 1340.45 1315.72 1310.6 1323.92 1282.25C1332.12 1253.9 1350.87 1230.43 1376.72 1216.19C1430.08 1186.77 1497.42 1206.26 1526.84 1259.61C1556.25 1312.97 1536.77 1380.31 1483.41 1409.73C1466.84 1418.85 1448.63 1423.5 1430.22 1423.5ZM1429.88 1205.45C1412.34 1205.45 1394.57 1209.74 1378.15 1218.79C1353 1232.65 1334.75 1255.48 1326.77 1283.07C1318.79 1310.66 1322.03 1339.7 1335.89 1364.85C1349.75 1390 1372.58 1408.25 1400.17 1416.23C1427.76 1424.21 1456.8 1420.97 1481.95 1407.1C1533.87 1378.48 1552.83 1312.95 1524.2 1261.03C1504.65 1225.54 1467.82 1205.45 1429.88 1205.45Z" fill="#FFA412"/>
<path d="M1484.41 1323.68C1484.17 1323.07 1483.91 1322.48 1483.65 1321.91C1481.65 1317.51 1479.16 1313.95 1476.17 1311.22C1472.79 1308.14 1468.87 1305.83 1464.39 1304.29C1459.92 1302.75 1454.93 1301.81 1449.43 1301.48C1443.93 1301.14 1437.93 1301.06 1431.46 1301.25C1427.46 1301.37 1424.04 1301.3 1421.2 1301.04C1418.36 1300.78 1415.95 1300.25 1413.98 1299.46C1412 1298.67 1410.39 1297.58 1409.16 1296.19C1407.92 1294.81 1406.91 1293.13 1406.1 1291.14C1405.29 1289.15 1404.83 1287.17 1404.71 1285.21C1404.59 1283.26 1404.88 1281.4 1405.59 1279.63C1406.29 1277.87 1407.44 1276.25 1409.03 1274.76C1410.61 1273.27 1412.71 1271.99 1415.32 1270.93C1420.13 1268.97 1424.62 1269.02 1428.79 1271.06C1432.96 1273.1 1436.35 1277.35 1438.97 1283.81L1464.1 1273.61C1461.91 1268.23 1459.17 1263.68 1455.88 1259.97C1452.59 1256.26 1448.88 1253.4 1444.74 1251.37C1440.61 1249.35 1436.11 1248.16 1431.25 1247.82C1426.39 1247.48 1421.33 1247.99 1416.09 1249.37L1408.97 1231.85L1395.06 1237.5L1402.07 1254.78C1397.05 1257.38 1392.8 1260.41 1389.3 1263.87C1385.81 1267.33 1383.13 1271.07 1381.25 1275.09C1379.37 1279.12 1378.39 1283.34 1378.29 1287.77C1378.2 1292.2 1379.08 1296.7 1380.94 1301.27C1383.08 1306.55 1385.84 1310.73 1389.22 1313.81C1392.6 1316.89 1396.52 1319.19 1400.98 1320.7C1405.44 1322.21 1410.43 1323.12 1415.95 1323.41C1421.47 1323.71 1427.48 1323.7 1433.96 1323.39C1437.72 1323.18 1440.99 1323.2 1443.76 1323.46C1446.53 1323.71 1448.92 1324.25 1450.94 1325.06C1452.96 1325.87 1454.63 1327.01 1455.97 1328.47C1457.31 1329.93 1458.44 1331.8 1459.35 1334.06C1460.16 1336.06 1460.56 1338.04 1460.55 1340.02C1460.55 1342 1460.1 1343.89 1459.21 1345.69C1458.32 1347.49 1456.99 1349.16 1455.22 1350.7C1453.45 1352.23 1451.2 1353.55 1448.47 1354.66C1446.09 1355.62 1443.64 1356.26 1441.1 1356.58C1438.56 1356.89 1436.08 1356.64 1433.66 1355.83C1431.24 1355.03 1428.98 1353.56 1426.87 1351.44C1424.76 1349.32 1422.92 1346.35 1421.37 1342.53L1396.25 1352.73C1398.87 1359.19 1402.17 1364.31 1406.13 1368.09C1410.1 1371.87 1414.44 1374.58 1419.15 1376.21C1423.86 1377.84 1428.79 1378.55 1433.94 1378.34C1439.09 1378.13 1444.17 1377.3 1449.17 1375.82L1455.66 1391.81L1469.48 1386.2L1462.96 1370.14C1467.98 1367.54 1472.28 1364.53 1475.86 1361.14C1479.18 1358 1481.77 1354.61 1483.64 1350.98C1483.79 1350.69 1483.94 1350.39 1484.08 1350.09C1485.97 1346.13 1486.99 1341.92 1487.11 1337.48C1487.23 1333.01 1486.33 1328.42 1484.41 1323.68Z" fill="#FFA412"/>
<g opacity="0.7">
<path d="M2310.32 1298.78C2310.32 1298.78 2334.02 1271.13 2311.78 1253.57C2311.78 1253.57 2295.54 1243.74 2282.29 1244.53C2282.29 1244.53 2301.06 1276 2294.99 1279.13C2288.92 1282.26 2276.61 1242.55 2276.61 1242.55C2276.61 1242.55 2239.65 1238.97 2227.76 1244.68C2227.76 1244.68 2259.36 1270.54 2252.7 1272.08C2246.05 1273.62 2211.91 1248.24 2211.91 1248.24C2211.91 1248.24 2177.51 1254.09 2179.34 1275.08C2181.17 1296.07 2193.03 1302.55 2198.24 1301.99C2203.45 1301.43 2233.93 1289.8 2234.59 1294.07C2235.25 1298.34 2216.91 1312.29 2204.06 1312.94C2204.06 1312.94 2228.31 1339.69 2244.44 1331.97C2260.56 1324.25 2261.94 1312.01 2271.98 1307.42C2282.03 1302.83 2290.61 1302.84 2286.46 1307.52C2282.31 1312.2 2264.13 1316.75 2258.38 1326.91C2252.63 1337.07 2247.48 1343.93 2264.16 1341.42C2280.84 1338.91 2307.95 1326.71 2309.14 1312.73C2310.32 1298.78 2310.32 1298.78 2310.32 1298.78Z" fill="#77A4E5"/>
<path d="M2196.25 1275.66C2196.25 1275.66 2289.69 1272.06 2310.33 1298.78C2310.33 1298.78 2314.89 1312.45 2328.94 1324.89L2331.13 1330.86C2331.13 1330.86 2314.94 1313.79 2309.14 1312.75C2309.13 1312.75 2318.19 1279.65 2196.25 1275.66Z" fill="#77A4E5"/>
<path d="M2328.93 1324.89C2328.93 1324.89 2348.99 1339.72 2350.38 1366.22L2346.74 1366.55C2346.74 1366.55 2340.33 1339.15 2328.76 1328.43C2317.18 1317.72 2328.93 1324.89 2328.93 1324.89Z" fill="#77A4E5"/>
<path d="M2383.4 1276.16C2383.4 1276.16 2350.17 1257.55 2365.68 1232.29C2365.68 1232.29 2378.09 1216.78 2391.38 1212.79C2391.38 1212.79 2384.29 1250.45 2391.38 1251.34C2398.47 1252.23 2396.25 1208.8 2396.25 1208.8C2396.25 1208.8 2431.25 1191.96 2444.99 1193.29C2444.99 1193.29 2423.28 1230.07 2430.37 1229.18C2437.46 1228.29 2461.83 1191.07 2461.83 1191.07C2461.83 1191.07 2497.72 1184.42 2503.48 1205.69C2509.24 1226.96 2499.94 1237.59 2494.62 1238.92C2489.3 1240.25 2455.18 1239.81 2456.07 1244.24C2456.96 1248.67 2480 1255.76 2492.85 1251.77C2492.85 1251.77 2478.67 1286.77 2460.06 1285C2441.45 1283.23 2435.69 1271.71 2424.17 1270.82C2412.65 1269.93 2404.23 1273.04 2409.99 1276.14C2415.75 1279.24 2435.25 1277.16 2444.55 1285.07C2453.86 1292.98 2461.39 1297.85 2444.11 1301.4C2426.83 1304.94 2395.81 1302.73 2389.61 1289.44C2383.4 1276.16 2383.4 1276.16 2383.4 1276.16Z" fill="#77A4E5"/>
<path d="M2487.08 1212.35C2487.08 1212.35 2394.03 1242.48 2383.39 1276.16C2383.39 1276.16 2383.83 1291.23 2374.53 1308.51V1315.16C2374.53 1315.16 2384.28 1292.56 2389.6 1289.46C2389.6 1289.45 2368.78 1260.21 2487.08 1212.35Z" fill="#77A4E5"/>
<path d="M2374.54 1308.5C2374.54 1308.5 2360.19 1330.29 2368.37 1356.82L2372.06 1355.83C2372.06 1355.83 2368.48 1326.61 2375.98 1311.92C2383.49 1297.22 2374.54 1308.5 2374.54 1308.5Z" fill="#77A4E5"/>
<path d="M2333.21 1234.89C2333.21 1234.89 2382.9 1207.06 2359.71 1169.29C2359.71 1169.29 2341.16 1146.1 2321.28 1140.14C2321.28 1140.14 2331.88 1196.46 2321.28 1197.79C2310.68 1199.11 2313.99 1134.18 2313.99 1134.18C2313.99 1134.18 2261.65 1109 2241.11 1110.99C2241.11 1110.99 2273.58 1165.98 2262.98 1164.66C2252.38 1163.34 2215.94 1107.68 2215.94 1107.68C2215.94 1107.68 2162.27 1097.74 2153.66 1129.55C2145.05 1161.35 2158.96 1177.26 2166.91 1179.24C2174.86 1181.23 2225.88 1180.57 2224.56 1187.19C2223.23 1193.82 2188.78 1204.42 2169.56 1198.45C2169.56 1198.45 2190.76 1250.79 2218.59 1248.14C2246.42 1245.49 2255.03 1228.26 2272.26 1226.94C2289.49 1225.61 2302.08 1230.25 2293.46 1234.89C2284.85 1239.53 2255.69 1236.41 2241.78 1248.24C2227.87 1260.07 2216.6 1267.36 2242.44 1272.66C2268.28 1277.96 2314.66 1274.65 2323.94 1254.77C2333.21 1234.89 2333.21 1234.89 2333.21 1234.89Z" fill="#9FC1F4"/>
<path d="M2178.16 1139.48C2178.16 1139.48 2317.3 1184.54 2333.2 1234.89C2333.2 1234.89 2332.54 1257.42 2346.45 1283.26V1293.2C2346.45 1293.2 2331.87 1259.41 2323.92 1254.77C2323.93 1254.77 2355.07 1211.04 2178.16 1139.48Z" fill="#9FC1F4"/>
<path d="M2346.46 1283.26C2346.46 1283.26 2367.92 1315.85 2355.68 1355.51L2350.16 1354.03C2350.16 1354.03 2355.52 1310.34 2344.29 1288.37C2333.07 1266.39 2346.46 1283.26 2346.46 1283.26Z" fill="#9FC1F4"/>
<path d="M2332.01 1432.65C2284.62 1432.65 2246.2 1394.23 2246.2 1346.84H2417.82C2417.82 1394.23 2379.4 1432.65 2332.01 1432.65Z" fill="#9FC1F4"/>
<path d="M2244.25 1349.47H2420.64V1346.84H2244.25V1349.47Z" fill="#77A4E5"/>
<path d="M2368.65 1432.65H2288.31C2288.31 1428.85 2291.39 1425.77 2295.19 1425.77H2361.77C2365.57 1425.76 2368.65 1428.85 2368.65 1432.65Z" fill="#77A4E5"/>
</g>
<path d="M1808.98 856.52C1698.57 946.42 1566.29 1015.52 1415.81 1061.91C1293.58 1099.58 1158.16 1122.66 1013.3 1130.53C973.8 1132.68 935.32 1133.61 898.28 1133.61C823.39 1133.61 754.33 1129.8 694.15 1124.5L718.5 1009.29C801.48 1016.05 900.59 1019.6 1007.66 1013.79C1143.99 1006.41 1270.96 984.82 1385.01 949.67C1522.25 907.35 1642.29 844.84 1741.76 763.83L1808.98 856.52Z" fill="#F77D48"/>
<path d="M985.75 626.79C970.4 618.83 958.09 623.83 958.09 623.83C911.11 618.31 897.41 673.1 898.05 691.95C898.68 710.8 900.84 731.05 879.86 755.54C819.26 826.28 946.18 829.4 946.18 829.4C947.25 772.88 1015.01 793.5 1012.04 799.23C1098.88 820.08 1020.67 644.9 985.75 626.79Z" fill="#163560"/>
<path d="M804.54 862.42C804.54 862.42 796.28 849.84 789.62 849.6C782.96 849.35 770.63 845.9 771.62 848.37C772.61 850.84 780.25 851.08 780.99 852.56C781.73 854.04 769.65 856.26 766.19 856.51C762.74 856.76 754.6 856.51 754.85 858.24C755.1 859.97 769.52 867.12 779.69 866.13C789.87 865.14 802.44 869.09 802.44 869.09L804.54 862.42Z" fill="#FFB27D"/>
<path d="M924.01 866.49C924.01 866.49 919.52 875.38 911.37 885.6C901.55 897.9 886.42 912.1 867.41 914.9C858.33 916.24 849.45 914.29 841.29 910.66C841.27 910.65 841.26 910.65 841.26 910.65C818.18 900.4 800.82 876.84 800.82 876.84C796.75 865.74 803.41 858.22 803.41 858.22C803.41 858.22 850.02 868.7 854.46 866.48C858.9 864.26 884.79 789.67 890.96 780.29C897.13 770.92 918.14 766.05 918.14 766.05L924.01 866.49Z" fill="#F99746"/>
<path d="M911.38 885.6C901.56 897.9 886.43 912.1 867.42 914.9C858.34 916.24 849.46 914.29 841.3 910.66C842.2 910.78 865.26 913.63 874.44 897.19C883.81 880.42 893.95 853.79 907.87 862.66C913.89 866.5 913.62 876.02 911.38 885.6Z" fill="#ED7D2B"/>
<path d="M1097.9 1369.6C1097.9 1369.6 1112.12 1382.58 1109.35 1391.8C1106.58 1401.02 1093.74 1407.17 1092.01 1418.44C1090.27 1429.71 1083.34 1435.86 1077.09 1435.86C1070.85 1435.86 1047.32 1435.86 1047.32 1435.86C1047.32 1435.86 1042.72 1427.93 1053.82 1425.54C1064.92 1423.15 1069.11 1409.91 1068.41 1397.61C1067.72 1385.31 1069.45 1368.92 1069.45 1368.92L1093.04 1363.46L1097.9 1369.6Z" fill="#36599E"/>
<path d="M977.53 1375.11C977.53 1375.11 982.65 1430.09 976.4 1433.17L896.49 1433.01C896.49 1433.01 896.49 1423.79 909.32 1421.74C922.15 1419.69 944.7 1412.18 948.52 1395.44C952.34 1378.69 977.53 1375.11 977.53 1375.11Z" fill="#2B478B"/>
<path d="M1034.47 980.65C1018.03 943.77 1007.97 933.19 1009.89 921.74C1011.32 913.22 1005.54 762.91 1005.54 762.91C1003.59 762.31 999.68 761.76 997.54 761.29C990.79 759.79 985.21 755.06 982.89 748.55C980.09 740.71 977.87 729.14 977.92 714.64L975.81 715.05L940.39 722.06C940.39 722.06 941.2 733.21 941.22 743.71C941.22 743.8 941.22 743.88 941.22 743.97C941.26 753.09 935.28 761.14 926.52 763.67C922.05 764.96 918.15 766.06 918.15 766.06C918.15 766.06 905.14 803.19 902.66 841.33C900.18 879.47 926.31 896.04 902.46 972.26C878.12 1050.11 1043.55 1001.02 1034.47 980.65Z" fill="#FFB27D"/>
<path d="M940.39 722.06C940.39 722.06 941.2 733.21 941.22 743.71C961.04 743.15 971.51 725.07 975.81 715.05L940.39 722.06Z" fill="#E8945B"/>
<path d="M933.77 732C933.77 732 980.66 732.77 980.69 703.56C980.72 674.35 986.8 654.78 956.86 653.05C926.92 651.32 921.09 662.46 918.71 672.21C916.33 681.96 921.57 731.05 933.77 732Z" fill="#FFB27D"/>
<path d="M935.5 652.35C935.5 652.35 948.34 686.62 968.04 691.68C987.74 696.75 996.29 691.47 996.29 691.47C996.29 691.47 981.18 679.46 978.04 658.51C978.04 658.5 945.19 636.04 935.5 652.35Z" fill="#163560"/>
<path d="M938.69 655.13C938.69 655.13 929.17 658.69 925.25 665.63C921.42 672.42 918.15 681.41 918.91 692.44C918.91 692.44 909.24 669.15 920.11 655.97C931.63 642.01 938.69 655.13 938.69 655.13Z" fill="#163560"/>
<path d="M943.97 713.88C943.97 713.88 940.73 718.14 934.26 717.83C929.05 717.58 927.04 713.06 927.04 713.06C927.04 713.06 936.61 710.76 943.97 713.88Z" fill="#EBF3FA"/>
<path d="M1039 829.4C1039 829.4 1040.19 846.19 1039 866.33C1038.21 879.68 1024.7 897.57 1022.78 901.99C1017.97 913.09 1012.55 914.89 1012.55 914.89L970.59 925.17L955.84 928.78L909.32 914.89C909.32 914.89 888.13 855.75 896.64 822.46C905.15 789.17 918.15 766.05 918.15 766.05C918.15 766.05 956.11 803.22 1005.54 762.9L1039 829.4Z" fill="#F99746"/>
<path d="M912.28 923.88C912.28 923.88 889.24 995.59 887.76 1020C886.28 1044.41 931.8 1366.82 933.63 1378.07C935.36 1388.67 948.52 1395.43 948.52 1395.43C948.52 1395.43 954.58 1399 963.22 1396.56C975.21 1393.17 979 1389.12 979 1389.12C979 1389.12 996.93 1159.18 985.84 1077.04C974.74 994.9 974.61 923.87 974.61 923.87H912.28V923.88Z" fill="#233862"/>
<path d="M1009.89 921.74C1009.89 921.74 1045.03 968.89 1048.31 1000.76C1051.59 1032.63 1053.45 1144.59 1060.43 1175.66C1067.41 1206.73 1093.05 1266.53 1093.05 1363.44C1093.05 1363.44 1090.38 1368.99 1082.15 1371.95C1079.52 1372.9 1075.99 1373.81 1072.57 1374.6C1065.78 1376.16 1058.82 1372.84 1055.72 1366.6C1038.38 1331.69 983.16 1219.11 980.33 1195.74C978.33 1179.2 960.89 1069.74 922.85 1005.52C913.72 990.1 928.45 928.78 928.45 928.78L1009.89 921.74Z" fill="#2B478B"/>
<path d="M942.93 714.67C942.93 714.67 942.12 718.11 933.56 717.58C933.56 717.58 926.37 717.13 926.59 713.35C926.59 713.35 933.56 710.66 942.93 714.67Z" fill="white"/>
<path d="M908.6 912.81C908.6 912.81 917.85 920.13 936.22 920.5C958.17 920.94 1012.54 914.91 1012.54 914.91C1012.54 914.91 1014.96 921.66 1014.86 928.79C1014.86 928.79 948.44 945.54 909.96 931.24C909.97 931.22 905 921.89 908.6 912.81Z" fill="#233862"/>
<path d="M930.96 939.41C925.44 939.41 920.95 934.33 920.95 928.08C920.95 921.83 925.44 916.75 930.96 916.75C936.48 916.75 940.97 921.83 940.97 928.08C940.97 934.32 936.48 939.41 930.96 939.41ZM930.96 920.06C927.27 920.06 924.26 923.65 924.26 928.07C924.26 932.49 927.26 936.09 930.96 936.09C934.65 936.09 937.66 932.49 937.66 928.07C937.65 923.65 934.65 920.06 930.96 920.06Z" fill="white"/>
<path d="M1002.99 832.68L934.948 891.927L1016.05 985.071L1084.09 925.823L1002.99 832.68Z" fill="#B5453C"/>
<path d="M997.2 926C997.2 926 972.27 928.92 972.35 934.83C972.43 940.75 978.56 952.91 981.64 953.45C984.72 953.99 1001.93 937.01 1001.93 937.01L997.2 926Z" fill="#FFB27D"/>
<path d="M1005.53 762.91C1005.53 762.91 1038.82 765.24 1051.57 796.26C1064.33 827.28 1088.54 879.35 1088.54 888.11C1088.54 896.87 1075.02 923.88 1002.39 939.4C1002.39 939.4 994.88 931.5 995.33 925.25C995.33 925.25 1040.66 886.31 1040.54 881.76C1040.31 873.15 1033.11 861.79 993.31 821.97C982.5 811.15 1005.53 762.91 1005.53 762.91Z" fill="#F99746"/>
<path d="M285.53 1435.78H285.2C283.26 1435.78 281.7 1434.19 281.75 1432.25L286.98 1205.39L302.4 1203.59L289.25 1432.27C289.14 1434.24 287.51 1435.78 285.53 1435.78Z" fill="#95C0F4"/>
<path d="M533.46 1435.78H533.79C535.73 1435.78 537.29 1434.19 537.24 1432.25L532.01 1205.39L516.59 1203.59L529.74 1432.27C529.85 1434.24 531.49 1435.78 533.46 1435.78Z" fill="#B0D4FF"/>
<path d="M275.32 1191.32V1035.86C275.32 1008.51 297.49 986.33 324.85 986.33H436.85C464.2 986.33 486.38 1008.5 486.38 1035.86V1197.26L275.32 1191.32Z" fill="#B0D4FF"/>
<path d="M506.45 1215.86H290.19C281.98 1215.86 275.32 1209.2 275.32 1200.99V1191.32H506.45V1215.86Z" fill="#95C0F4"/>
<path d="M532.36 1215.86H368.75C362.68 1215.86 357.75 1210.94 357.75 1204.86V1202.31C357.75 1196.24 362.67 1191.31 368.75 1191.31H532.36C538.43 1191.31 543.36 1196.23 543.36 1202.31V1204.86C543.36 1210.94 538.44 1215.86 532.36 1215.86Z" fill="#B0D4FF"/>
<path d="M526.01 1152.58C509.96 1180.51 489.78 1191.29 489.78 1191.29H405.82C405.82 1191.29 538.25 1131.28 526.01 1152.58Z" fill="#233862"/>
<path d="M461.53 1368.65C459.34 1371.16 459.06 1373.96 460.15 1376.95C460.15 1376.96 460.16 1376.98 460.17 1376.99C462.17 1382.52 468.79 1388.7 476.47 1394.87C477.45 1395.66 478.33 1396.38 479.09 1397.05C479.29 1397.22 479.49 1397.4 479.68 1397.58C479.83 1397.72 479.98 1397.86 480.13 1397.99C487.3 1404.6 484.6 1406.11 497.47 1419.51C512.15 1434.78 522.26 1435.06 525.13 1433.67C527.56 1432.48 522.62 1424.38 517.14 1415.28C516.87 1414.84 516.61 1414.4 516.34 1413.95C515.61 1412.74 514.89 1411.51 514.16 1410.29C507.74 1399.33 509.39 1394.19 510.91 1377.88C512.15 1364.63 531.53 1303.84 531.53 1303.84L503.4 1298.99C503.4 1298.99 494.93 1347.39 485.59 1354.85C480.6 1358.82 475.01 1358.87 470.21 1361.82C469.87 1362.03 469.54 1362.24 469.21 1362.45C466.5 1364.27 463.72 1366.14 461.53 1368.65Z" fill="#FFB27D"/>
<path d="M461.53 1368.65C459.34 1371.16 459.06 1373.96 460.15 1376.95C460.15 1376.96 460.16 1376.98 460.17 1376.99C462.62 1382.52 469.07 1388.67 476.5 1394.82C477.47 1395.63 478.33 1396.37 479.09 1397.06C479.29 1397.23 479.49 1397.41 479.68 1397.59C479.83 1397.73 479.98 1397.87 480.13 1398C487.3 1404.61 484.6 1406.12 497.47 1419.52C512.15 1434.79 522.26 1435.07 525.13 1433.68C527.56 1432.49 522.62 1424.39 517.14 1415.29C514.28 1414.24 501.01 1408.85 490.97 1396.01C482.13 1384.73 476.24 1370.24 470.22 1361.84C469.88 1362.05 469.55 1362.26 469.22 1362.47C466.5 1364.27 463.72 1366.14 461.53 1368.65Z" fill="#233862"/>
<path d="M688.37 1351.08C690.11 1359.76 702.48 1358.32 716.31 1354.94C730.14 1351.56 726.85 1355.58 746.53 1353.4C766.21 1351.22 772.17 1343.88 772.77 1340.96C773.31 1338.36 763.58 1337.45 753.15 1336.25C751.84 1336.1 750.52 1335.94 749.2 1335.78C737.42 1334.3 728.8 1326.7 718.1 1320.46C707.97 1314.55 692.85 1290.46 692.85 1290.46L665.86 1292.6C665.86 1292.6 680.02 1314.11 685.5 1323.47C688.72 1328.97 688.55 1336.25 688.15 1341.86C687.95 1344.9 687.75 1348.02 688.37 1351.08Z" fill="#FFB27D"/>
<path d="M716.31 1354.94C730.14 1351.56 726.85 1355.58 746.53 1353.4C766.21 1351.22 772.17 1343.88 772.77 1340.96C773.31 1338.36 763.58 1337.45 753.15 1336.25L753.05 1336.45C753.05 1336.45 741.25 1344.82 724.86 1345.21C711.51 1345.53 697.36 1341.71 688.14 1341.86C687.93 1344.91 687.73 1348.03 688.35 1351.09C690.1 1359.77 702.48 1358.32 716.31 1354.94Z" fill="#233862"/>
<path d="M584.93 1178.49L559.7 1246.39L526.76 1335.04C526.76 1335.04 517.82 1335.9 509.26 1333.44C501.38 1331.16 492.33 1325.2 492.33 1325.2C492.33 1325.2 501.48 1230.01 518.54 1175.37C522.91 1161.34 527.81 1150 533.22 1143.61C559.67 1112.36 584.93 1178.49 584.93 1178.49Z" fill="#233862"/>
<path d="M559.27 1070.66C542.74 1065.33 495.59 1072.17 448.23 1081.45L438.31 1065.09L336.01 1057.1C336.01 1057.1 302.25 1131.96 320.73 1179.66C323.45 1186.67 328.84 1191.17 338.04 1191.31C338.04 1191.31 339.53 1191.31 339.54 1191.31C339.54 1191.31 400.42 1191.27 420.2 1191.27C471.07 1191.27 527.87 1156.3 535.21 1154.83C547.24 1152.42 552.05 1176.48 564.07 1201.73C576.09 1226.98 677.11 1313.57 677.11 1313.57C677.11 1313.57 692.64 1313.72 699.05 1311.32C705.95 1308.73 708.47 1305.37 708.47 1305.37C708.47 1305.37 596.55 1082.69 559.27 1070.66Z" fill="#2B478B"/>
<path d="M434.29 767.22C421.18 760.34 401.25 759.41 398.01 758.97C359.25 753.76 335.92 810.09 334.54 827.16C332.01 858.62 315.37 863.42 291.94 883.12C244.97 922.62 258.74 968.53 284.43 985.59C299.84 995.83 327 985.59 327 985.59C327.38 985.86 401.28 944.28 437.71 924.22C492.33 916.45 467.69 784.76 434.29 767.22Z" fill="#B5453C"/>
<path d="M407.18 907.14C407.34 907.24 389.26 913.42 377.17 908.06C365.79 903.03 357.18 884.32 357.35 884.31C362.52 884.07 368.21 879.55 372.58 849.86L374.78 850.65L411.83 863.98C411.83 863.98 409.15 875.87 407.41 887.19C405.95 896.69 405.16 905.8 407.18 907.14Z" fill="#FFB27D"/>
<path d="M411.83 863.99C411.83 863.99 409.15 875.88 407.41 887.2C386.13 883.37 377.78 862.17 374.78 850.66L411.83 863.99Z" fill="#ED975D"/>
<path d="M417.35 875.78C417.35 875.78 366.66 868.98 371.38 837.47C376.1 805.97 372.74 783.87 405.3 786.89C437.86 789.9 442.34 802.86 443.32 813.76C444.3 824.66 430.65 876.74 417.35 875.78Z" fill="#FFB27D"/>
<path d="M441.47 796.5C441.47 796.5 409.02 824.46 386.95 826.72C364.88 828.97 356.52 821.89 356.52 821.89C356.52 821.89 369.53 811.09 377.36 793.66C379.67 788.52 384.54 785 390.15 784.51C405.92 783.14 435.79 782.52 441.47 796.5Z" fill="#B5453C"/>
<path d="M421.19 793.99C421.19 793.99 432.05 804.49 435.46 812.27C438.76 819.78 439.75 837.75 437.12 844.89C437.12 844.89 454.03 812 444.46 796.02C434.31 779.08 421.19 793.99 421.19 793.99Z" fill="#B5453C"/>
<path d="M449.87 981.81C448.34 1084.42 449.45 1062.98 438.22 1072.71C435.51 1075.05 427.91 1076.45 417.91 1077.11C386.45 1079.2 331.14 1074.01 329.03 1068.2C321.77 1048.08 326.9 1041.83 320.84 1011.03C320.21 1007.75 319.43 1004.21 318.51 1000.35C313.46 979.19 308.55 972 326.46 938.01C342.7 907.22 359.58 882.24 361.09 883.14C403.94 908.58 407.4 887.2 407.4 887.2C407.4 887.2 450.62 931.76 449.87 981.81Z" fill="#00715D"/>
<path d="M559.69 1246.39L526.75 1335.04C526.75 1335.04 517.81 1335.9 509.25 1333.44C501.37 1331.16 492.32 1325.2 492.32 1325.2C492.32 1325.2 501.47 1230.01 518.53 1175.37L559.69 1246.39Z" fill="#2B478B"/>
<path d="M407.41 887.19C407.41 887.19 451.5 894.67 456.68 913.65C461.86 932.64 492.33 1044.24 492.33 1044.24C492.33 1044.24 469.91 1048.27 459.56 1037.91C449.2 1027.55 423.53 941.84 423.53 941.84L407.41 887.19Z" fill="#00715D"/>
<path d="M417.91 1077.12C386.45 1079.21 331.14 1074.02 329.03 1068.21C321.77 1048.09 326.9 1041.84 320.84 1011.04L336.02 968.31C336.02 968.31 333.51 1015.9 347.54 1028.41C361.56 1040.93 405 1052.57 411.82 1063.03C415.11 1068.04 417.28 1073.08 417.91 1077.12Z" fill="#05836C"/>
<path d="M381.86 1057.1C381.86 1057.1 412.9 1050.19 417.91 1052.94C422.92 1055.69 435.16 1065.73 436.69 1069.22C438.22 1072.71 425.54 1066.57 421.41 1065.46C418.74 1064.74 411.7 1067.19 408.22 1068.35C393.57 1073.23 384.59 1070.72 384.59 1070.72L381.86 1057.1Z" fill="#FFB27D"/>
<path d="M361.07 883.12C361.07 883.12 319.39 885.69 304.96 905.81C284.65 934.14 244.36 1054.86 267.45 1070.97C293.45 1089.1 385.8 1075.71 385.8 1075.71C385.8 1075.71 388.87 1061.35 384.6 1054.4C380.32 1047.45 310.84 1036.23 307.63 1033.02C304.42 1029.81 347.72 970.48 347.72 960.86C347.72 951.24 361.07 883.12 361.07 883.12Z" fill="#00715D"/>
<path d="M419.41 1061.59C419.41 1061.59 425.91 1069.98 428.05 1070.98C430.18 1071.98 431.56 1071.73 431.56 1071.73L427.18 1063.84L419.41 1061.59Z" fill="#FFB27D"/>
<path d="M417.91 1052.95L436.82 1062.13C436.82 1062.13 436.02 1063.45 433.69 1063.34C431.36 1063.23 425.49 1061.09 425.49 1061.09L417.91 1052.95Z" fill="#FFB27D"/>
<path d="M421.21 1083.83H580.74L628.73 971.94H469.44L421.21 1083.83Z" fill="#F77D48"/>
<path d="M582.61 1076.58H371.94V1083.65H580.74L582.61 1076.58Z" fill="#F77D48"/>
<path d="M540.47 1027.88C541.67 1023.95 539.25 1020.76 535.05 1020.76C530.85 1020.76 526.48 1023.95 525.28 1027.88C524.08 1031.81 526.5 1035 530.7 1035C534.89 1035.01 539.27 1031.82 540.47 1027.88Z" fill="#EBF3FA"/>
<path d="M816.63 1438.9H817.07C819.63 1438.9 821.69 1436.57 821.63 1433.75L814.71 1102.74L794.32 1100.11L811.71 1433.77C811.85 1436.65 814.01 1438.9 816.63 1438.9Z" fill="#233862"/>
<path d="M386.82 1438.9H386.39C383.83 1438.9 381.77 1436.57 381.83 1433.75L388.75 1102.74L409.14 1100.11L391.75 1433.77C391.59 1436.65 389.43 1438.9 386.82 1438.9Z" fill="#233862"/>
<path d="M824.66 1107.52H360.17C356.07 1107.52 352.74 1104.19 352.74 1100.09V1091.26C352.74 1087.16 356.07 1083.83 360.17 1083.83H824.65C828.75 1083.83 832.08 1087.16 832.08 1091.26V1100.09C832.09 1104.19 828.76 1107.52 824.66 1107.52Z" fill="#233862"/>
<path d="M2522.62 1443.42H4.81995C2.81995 1443.42 1.18994 1441.79 1.18994 1439.79V1436.28C1.18994 1434.28 2.81995 1432.65 4.81995 1432.65H2522.61C2524.61 1432.65 2526.24 1434.28 2526.24 1436.28V1439.79C2526.24 1441.78 2524.61 1443.42 2522.62 1443.42Z" fill="#2E3552"/>
</svg>
