<svg width="1830" height="1626" viewBox="0 0 1830 1626" fill="none" xmlns="http://www.w3.org/2000/svg">
<path d="M1664.14 1625.48H146.04C106.5 1625.48 76.78 1614.21 57.72 1591.99C29.84 1559.49 34.89 1515.36 35.63 1509.96V224.58H47.63V1510.84L47.5599 1511.3C47.4999 1511.72 41.3599 1554.57 66.8899 1584.24C83.58 1603.64 110.21 1613.47 146.04 1613.47H1664.17L1664.14 1625.48Z" fill="#00715D" fill-opacity="0.82"/>
<path d="M1652.1 1622.61V663.55H1664.1V1623.5L1652.1 1622.61Z" fill="#00715D" fill-opacity="0.82"/>
<path d="M104.2 1415.95H41.6299V1427.95H104.2V1415.95Z" fill="#00715D" fill-opacity="0.82"/>
<path d="M104.2 1239.13H41.6299V1251.13H104.2V1239.13Z" fill="#00715D" fill-opacity="0.82"/>
<path d="M104.2 1068.92H41.6299V1080.92H104.2V1068.92Z" fill="#00715D" fill-opacity="0.82"/>
<path d="M104.2 898.71H41.6299V910.71H104.2V898.71Z" fill="#00715D" fill-opacity="0.82"/>
<path d="M104.2 728.5H41.6299V740.5H104.2V728.5Z" fill="#00715D" fill-opacity="0.82"/>
<path d="M104.2 558.29H41.6299V570.29H104.2V558.29Z" fill="#00715D" fill-opacity="0.82"/>
<path d="M104.2 388.08H41.6299V400.08H104.2V388.08Z" fill="#00715D" fill-opacity="0.82"/>
<path d="M41.6299 242.79C51.687 242.79 59.8399 234.637 59.8399 224.58C59.8399 214.523 51.687 206.37 41.6299 206.37C31.5728 206.37 23.4199 214.523 23.4199 224.58C23.4199 234.637 31.5728 242.79 41.6299 242.79Z" fill="#00715D" fill-opacity="0.82"/>
<path d="M1414.16 282.66V211.17L1455.41 202.92L1414.16 282.66Z" fill="#00715D" fill-opacity="0.82"/>
<path d="M1652.5 427.82L1716.46 409.54L1772.12 427.82L1722.28 439.45L1652.5 427.82Z" fill="#00715D" fill-opacity="0.82"/>
<path d="M1630.48 326.69L1652.91 305.09L1674.51 315.89L1630.48 326.69Z" fill="#00715D" fill-opacity="0.82"/>
<path d="M1269.39 161.83L1227.75 135.24L1233.67 196.72L1269.39 161.83Z" fill="#00715D" fill-opacity="0.82"/>
<path d="M1496.73 195.43L1523.32 231.15L1539.43 177.16L1496.73 154.79V195.43Z" fill="#00715D" fill-opacity="0.82"/>
<path d="M1382.58 154.79L1362.15 182.97L1340.56 148.99L1382.58 154.79Z" fill="#00715D" fill-opacity="0.82"/>
<path d="M1701.22 533.19L1714.82 593.66L1783.18 581.44L1701.22 533.19Z" fill="#00715D" fill-opacity="0.82"/>
<path d="M1291.71 241.44L1205.82 296.27L1233.41 305.09L1291.71 241.44Z" fill="#00715D" fill-opacity="0.82"/>
<path d="M1658.45 0.219971L1684.65 49.07L1690.57 34.47L1658.45 0.219971Z" fill="#00715D" fill-opacity="0.82"/>
<path d="M1780.75 326.69L1740.33 364.23L1798.04 372.73L1809.93 349.71L1780.75 326.69Z" fill="#00715D" fill-opacity="0.82"/>
<path d="M1649.65 374.62H1611.32V405.35L1649.65 374.62Z" fill="#00715D" fill-opacity="0.5"/>
<path d="M1668.81 167.6H1630.48V198.34L1668.81 167.6Z" fill="#00715D" fill-opacity="0.5"/>
<path d="M1092.84 54.74L1084.92 102.98L1140.86 47.53L1092.84 54.74Z" fill="#00715D" fill-opacity="0.5"/>
<path d="M1332.16 273.26L1316.07 305.09H1361.57L1332.16 273.26Z" fill="#00715D" fill-opacity="0.5"/>
<path d="M1775.13 493.31L1789.72 525.73L1829.51 521.04L1809.93 493.31H1775.13Z" fill="#00715D" fill-opacity="0.5"/>
<path d="M1564.12 0.219971L1538.68 25.05L1556.73 60.81L1576.06 32.91L1564.12 0.219971Z" fill="#00715D" fill-opacity="0.5"/>
<path d="M1385.87 75.2599L1362.51 95.27L1393.72 110.2L1419.85 95.27L1385.87 75.2599Z" fill="#00715D" fill-opacity="0.5"/>
<path d="M1768.24 698.93V745.27L1798.12 737.57V670.97L1768.24 698.93Z" fill="#00715D" fill-opacity="0.82"/>
<path d="M1808.06 137.91H1742.2L1758.19 160.07L1808.06 137.91Z" fill="#00715D" fill-opacity="0.82"/>
<path d="M1170.16 196.891L969.003 251.28L972.135 262.864L1173.29 208.474L1170.16 196.891Z" fill="#00715D" fill-opacity="0.82"/>
<path d="M986.207 267.042C992.062 258.863 990.178 247.488 981.999 241.633C973.821 235.779 962.445 237.663 956.591 245.842C950.736 254.02 952.621 265.396 960.799 271.25C968.978 277.104 980.353 275.22 986.207 267.042Z" fill="#00715D" fill-opacity="0.82"/>
<path d="M1552.99 681.03C1552.99 681.03 1584.31 779.93 1493.65 820.57C1493.65 820.57 1562.67 788.77 1552.99 681.03Z" fill="#00715D" fill-opacity="0.99"/>
<path d="M281.31 606.49C281.31 606.49 380.93 577.55 419.39 669.17C419.38 669.17 389.25 599.4 281.31 606.49Z" fill="#00715D" fill-opacity="0.99"/>
<path d="M996.77 395.33C996.77 395.33 1096.4 366.39 1134.85 458.01C1134.85 458 1104.72 388.24 996.77 395.33Z" fill="#00715D" fill-opacity="0.99"/>
<path d="M589.63 688.74C589.63 688.74 585.07 585.1 683.18 569.4C683.18 569.4 608.27 582.18 589.63 688.74Z" fill="#00715D" fill-opacity="0.99"/>
<path d="M41.6301 1079.04C41.6301 1079.04 1053.63 1433.32 1357.29 476.09L1529.63 547.41C1529.63 547.41 1172.19 1693.27 41.6301 1079.04Z" fill="#00715D" fill-opacity="0.99"/>
<path d="M1395.27 525.71L1516.93 582.98C1525.56 560.45 1529.63 547.42 1529.63 547.42L1357.29 476.1C1162.05 1091.57 673.98 1164.84 350.35 1138.71C672.19 1181.95 1169.22 1136 1395.27 525.71Z" fill="#00604F"/>
<path d="M1503.3 536.52C1472.72 627.03 1135.69 1546.35 187.17 1150.46C1203.11 1594.12 1529.64 547.41 1529.64 547.41L1503.3 536.52Z" fill="#00604F"/>
<path d="M1529.63 547.41L1357.29 476.09C1349.38 501.01 1340.99 525.03 1332.15 548.21C1358.02 566.93 1416.48 603.16 1501.6 620.87C1520.82 575.65 1529.63 547.41 1529.63 547.41Z" fill="#00604F"/>
<path d="M1217.63 445.43C1217.63 445.43 1454.39 624.55 1636.01 615.76L1549.63 272.96L1217.63 445.43Z" fill="#00715D" fill-opacity="0.99"/>
<path d="M1540.45 299.84L1452.88 548.48C1452.88 548.48 1488.12 572.43 1560.3 587.07L1540.45 299.84Z" fill="#00604F"/>
<path d="M1517.66 304.88L1303.82 475.09C1303.82 475.09 1263.72 450.46 1260.22 443.46L1517.66 304.88Z" fill="#00604F"/>
<path d="M82.9401 1080.92C82.9401 1103.73 64.4501 1122.22 41.6401 1122.22C18.8301 1122.22 0.340088 1103.73 0.340088 1080.92C0.340088 1058.11 18.8301 1039.62 41.6401 1039.62C64.4501 1039.62 82.9401 1058.11 82.9401 1080.92Z" fill="#00715D" fill-opacity="0.99"/>
<path d="M66.8402 1080.92C66.8402 1094.84 55.5502 1106.13 41.6302 1106.13C27.7102 1106.13 16.4202 1094.84 16.4202 1080.92C16.4202 1067 27.7102 1055.71 41.6302 1055.71C55.5602 1055.71 66.8402 1066.99 66.8402 1080.92Z" fill="#00604F"/>
<path d="M54.6201 1080.92C54.6201 1088.09 48.8001 1093.91 41.6301 1093.91C34.4601 1093.91 28.6401 1088.1 28.6401 1080.92C28.6401 1073.75 34.4501 1067.94 41.6301 1067.94C48.8001 1067.93 54.6201 1073.74 54.6201 1080.92Z" fill="white"/>
<path d="M204.35 863.72L195.56 825.52H183.06L181.99 850.13L148.54 863.72L159.64 890.41L164.26 896.22L204.35 863.72Z" fill="#FCDC59"/>
<path d="M332.91 1158.47L323.58 1141.75C323.58 1141.75 306.99 1147.85 306.99 1158.47C306.99 1158.47 314.37 1164.48 305.45 1164.79C305.45 1164.79 295.92 1185.69 310.67 1188.15C310.67 1188.15 321.04 1162.9 332.91 1158.47Z" fill="#231F20"/>
<path d="M476.6 1143.01L446.45 1115.99C446.45 1115.99 413.51 1193.78 387.17 1200.6C360.83 1207.43 321.58 1166.48 321.58 1166.48L332.37 1156.93C332.37 1156.93 358.92 1181.49 361.65 1176.04C364.38 1170.58 361.65 1109.16 361.65 1109.16L514.24 1062.17C514.24 1062.17 528.97 1109.34 533.37 1140.98L476.6 1143.01Z" fill="#00604F"/>
<path d="M326.48 993.79L316.29 1109.29C316.29 1109.29 454.4 1120.16 539.95 1042.24L462.4 900.95L326.48 993.79Z" fill="#00715D" fill-opacity="0.99"/>
<path d="M429.62 873.97C429.62 873.97 491.86 827.31 492.79 726.96H535.54C535.54 726.96 565.28 885.86 470.49 911.88C470.49 911.88 424.06 917.84 429.62 873.97Z" fill="#00715D" fill-opacity="0.99"/>
<path d="M339.75 966.09C339.75 966.09 262.03 962.96 204.35 880.83L169.14 905.07C169.14 905.07 234.76 1052.81 327.58 1020.49C327.58 1020.49 369.21 999.07 339.75 966.09Z" fill="#00715D" fill-opacity="0.99"/>
<path d="M419.1 1003.88H464.27L466.77 1086.42L472.52 1084.12V997.59H435.89L419.1 1003.88Z" fill="#00604F"/>
<path d="M455.32 1028.8C455.32 1036.02 449.46 1041.88 442.24 1041.88C435.01 1041.88 429.16 1036.02 429.16 1028.8C429.16 1021.57 435.02 1015.71 442.24 1015.71C449.47 1015.72 455.32 1021.58 455.32 1028.8Z" fill="#00604F"/>
<path d="M457.69 1024.48C457.69 1031.71 451.83 1037.57 444.61 1037.57C437.38 1037.57 431.52 1031.71 431.52 1024.48C431.52 1017.26 437.38 1011.4 444.61 1011.4C451.83 1011.39 457.69 1017.25 457.69 1024.48Z" fill="white"/>
<path d="M461.82 985.19L463.91 997.59H472.52L470.67 977.98L461.82 985.19Z" fill="#00604F"/>
<path d="M452.02 989.82C452.02 989.82 470.74 1040.44 559.46 1011.39L568.56 994.26L554.91 987.78C554.91 987.79 493.58 1030.28 452.02 989.82Z" fill="white"/>
<path d="M204.35 880.83V863.72L200.68 864.93C200.68 864.93 176.02 844.52 174 845.12L169.15 849.97L177.64 876.25L159.65 890.4L170.54 904.11L204.35 880.83Z" fill="#FFEC9C"/>
<path d="M492.79 726.96L500.56 691.17H510.29V700.93L534.6 704.47L535.53 726.96H492.79Z" fill="#FFEC9C"/>
<path d="M177.63 876.26L180.58 885.8L164.26 896.22L159.64 890.41L177.63 876.26Z" fill="#FCDC59"/>
<path d="M510.29 700.93V709.07L535.05 715.32L534.6 704.47L510.29 700.93Z" fill="#FCDC59"/>
<path d="M472.84 880.89L502.96 870.47C502.96 870.47 566.41 930.63 443.74 994.26C321.08 1057.9 300.37 882.73 300.37 882.73L424.42 794.65L472.84 880.89Z" fill="#FFEC9C"/>
<path d="M309.63 908.93C309.63 908.93 252.15 893.72 244.11 939.92C236.54 983.4 304.3 1020.81 350.29 969.3L309.63 908.93Z" fill="#FFEC9C"/>
<path d="M424.42 794.66L337.46 659.9V735.38L273.8 699.94L289.55 766.89L228.51 743.26L252.14 805.61L208.17 791.35C208.17 791.35 252.8 856.73 277.09 907.3C277.09 907.3 301.79 906.63 311.43 911.57L304.37 879.9L424.42 794.66Z" fill="#F6921E"/>
<path d="M424.42 794.66L381.72 728.48L377.65 785.73L321.99 757.45L338.09 824.31L276.13 804.01L290.13 861.42L244.39 848.05C255.85 867.04 267.91 888.23 277.07 907.31C277.07 907.31 301.77 906.64 311.41 911.58L304.35 879.91L424.42 794.66Z" fill="#EF7700"/>
<path d="M424.56 864.29C436.15 883.48 432.92 906.66 417.36 916.06C401.8 925.46 379.78 917.52 368.2 898.33C356.61 879.14 359.84 855.96 375.4 846.56C390.96 837.16 412.98 845.1 424.56 864.29Z" fill="#231F20"/>
<path d="M424.42 794.66L429.16 803.1L310.41 881.31L311.42 911.57L304.36 879.9L424.42 794.66Z" fill="#FCDC59"/>
<path d="M500.56 928.47H461.82L472.52 956.59L500.56 928.47Z" fill="#C47206"/>
<path d="M401.96 853.12L396.38 877.82L419.85 871.23C419.85 871.22 414.2 857.92 401.96 853.12Z" fill="#58595B"/>
<path d="M275.12 933.69L269.3 963.42L307.44 955.02L275.12 933.69Z" fill="#FCDC59"/>
<path d="M1266.53 837.79L1276.86 857.09C1276.86 857.09 1295.95 850.45 1296.15 838.3C1296.15 838.3 1287.84 831.28 1298.03 831.1C1298.03 831.1 1309.33 807.4 1292.52 804.3C1292.53 804.31 1280.18 832.96 1266.53 837.79Z" fill="#231F20"/>
<path d="M1029.02 731.67L1068.66 840.63C1068.66 840.63 1198.4 792.05 1242.94 685.23L1112.89 590.03L1029.02 731.67Z" fill="#00715D" fill-opacity="0.99"/>
<path d="M1135.21 576.11C1135.21 576.11 1206.38 607.49 1294.31 559.11L1315.26 596.37C1315.26 596.37 1191.33 700.17 1122.19 630.31C1122.19 630.31 1094.24 592.77 1135.21 576.11Z" fill="#00715D" fill-opacity="0.99"/>
<path d="M1117.21 701.63L1158.14 682.51L1195.33 756.24L1199.57 751.72L1162.96 673.32L1129.77 688.82L1117.21 701.63Z" fill="#00604F"/>
<path d="M1160.58 708.88C1163.64 715.43 1160.81 723.21 1154.26 726.27C1147.71 729.33 1139.92 726.5 1136.86 719.95C1133.81 713.4 1136.64 705.62 1143.18 702.56C1149.74 699.5 1157.52 702.33 1160.58 708.88Z" fill="#00604F"/>
<path d="M1160.89 703.96C1163.95 710.51 1161.12 718.3 1154.57 721.35C1148.02 724.41 1140.24 721.58 1137.18 715.03C1134.12 708.48 1136.95 700.7 1143.5 697.64C1150.05 694.58 1157.83 697.41 1160.89 703.96Z" fill="white"/>
<path d="M1148.01 666.62L1155.16 676.96L1162.96 673.32L1152.98 656.34L1148.01 666.62Z" fill="#00604F"/>
<path d="M1141.09 674.96C1141.09 674.96 1179.47 712.9 1247.56 649.04L1248.56 629.67L1233.45 629.58C1233.45 629.58 1195.87 694.03 1141.09 674.96Z" fill="white"/>
<path d="M1294.31 559.12L1329.31 548.36L1334.08 556.83L1325.58 561.61L1332.7 585.5L1315.26 596.38L1294.31 559.12Z" fill="#FFCA9F"/>
<path d="M1325.58 561.61L1318.48 565.6L1325.17 590.25L1332.7 585.5L1325.58 561.61Z" fill="#FCA05B"/>
<path d="M1251.45 716.76L1241.2 710.31L1236.07 699.1L1083.97 830.58C1083.97 830.58 1089.7 894.07 1148.45 863.99C1207.2 833.9 1210.25 823.04 1210.25 823.04L1272.19 845.25L1278.1 830.53C1278.1 830.53 1214.57 790.16 1207.47 786.71C1207.47 786.71 1243.92 730.5 1251.45 716.76Z" fill="#00604F"/>
<path d="M1113.86 567.45L1136.74 545.26C1136.74 545.26 1219.68 572.92 1135.47 682.48C1051.25 792.04 958.37 642.1 958.37 642.1L1033.5 509.8L1113.86 567.45Z" fill="#FFCA9F"/>
<path d="M977.85 661.91C977.85 661.91 919.34 672.46 931.59 717.72C943.13 760.32 1020.36 765.55 1040.23 699.41L977.85 661.91Z" fill="#FFCA9F"/>
<path d="M1033.5 509.8L897.69 424.49L929.63 492.88L856.96 487.71L899.55 541.7L834.26 546.12L882.04 592.62L836.17 598.31C836.17 598.31 904.26 638.66 947.67 674.21C947.67 674.21 969.76 663.15 980.59 663.55L960.79 637.84L1033.5 509.8Z" fill="#3B2314"/>
<path d="M1033.5 509.8L966.81 467.91L987.35 521.51L924.95 519.44L967.83 573.2L903.1 581.02L940.08 627.11L892.98 634.35C911.41 646.7 931.29 660.8 947.67 674.21C947.67 674.21 969.76 663.15 980.59 663.55L960.79 637.84L1033.5 509.8Z" fill="#28150B"/>
<path d="M1063.1 572.84C1081.72 585.33 1088.61 607.69 1078.48 622.79C1068.35 637.89 1045.05 640.01 1026.43 627.53C1007.81 615.05 1000.92 592.68 1011.05 577.58C1021.17 562.47 1044.48 560.35 1063.1 572.84Z" fill="#231F20"/>
<path d="M1033.5 509.8L1041.36 515.45L966.86 636.56L980.58 663.55L960.79 637.84L1033.5 509.8Z" fill="#FCA05B"/>
<path d="M1159.11 598.83L1124 615.22L1145.61 636.17L1159.11 598.83Z" fill="#C47206"/>
<path d="M1037.89 572.27L1043.28 597.01L1061.76 581.11C1061.76 581.11 1051.01 571.45 1037.89 572.27Z" fill="#58595B"/>
<path d="M957.06 698.95L964.37 728.35L995.37 704.6L957.06 698.95Z" fill="#FCA05B"/>
<path d="M1027.1 731.45C1027.1 731.45 1020.86 653.91 936.48 599.58L959.29 563.43C959.29 563.43 1109.54 623.08 1080.97 717.12C1080.97 717.12 1061.23 759.57 1027.1 731.45Z" fill="#00715D" fill-opacity="0.99"/>
<path d="M936.48 599.58L919.39 600.27L920.45 596.55C920.45 596.55 899.06 572.73 899.58 570.68L904.24 565.64L930.83 573.07L944.25 554.52L958.38 564.85L936.48 599.58Z" fill="#FFEC9C"/>
<path d="M930.83 573.07L940.5 575.64L950.25 558.91L944.25 554.52L930.83 573.07Z" fill="#FCDC59"/>
<path d="M912.73 1131.19L912.07 1153.07C912.07 1153.07 931.93 1156.82 938.16 1146.39C938.16 1146.39 934.45 1136.17 943.38 1141.09C943.38 1141.09 964.99 1126.17 951.95 1115.1C951.95 1115.11 926.97 1133.81 912.73 1131.19Z" fill="#231F20"/>
<path d="M959.95 1018.74L954.28 1008.04L955.41 995.76L758.02 1034C758.02 1034 731.36 1091.91 797.29 1095.09C863.22 1098.27 871.28 1090.38 871.28 1090.38L913.93 1140.49L926.38 1130.67C926.38 1130.67 891.42 1064.02 886.97 1057.5C886.96 1057.48 946.57 1026.9 959.95 1018.74Z" fill="#00604F"/>
<path d="M758.32 922.22L738.33 1036.43C738.33 1036.43 875.01 1059.03 966.9 988.67L901.67 841.29L758.32 922.22Z" fill="#00715D" fill-opacity="0.99"/>
<path d="M923.76 833.91C923.76 833.91 965.05 899.84 1064.98 909.16L1061.41 951.75C1061.41 951.75 900.57 968.09 882.58 871.46C882.57 871.46 880.51 824.7 923.76 833.91Z" fill="#00715D" fill-opacity="0.99"/>
<path d="M763.1 903.91C763.1 903.91 701.6 951.54 604.59 925.8L593.25 967.01C593.25 967.01 738.56 1037.84 788.8 953.36C788.79 953.37 806.87 910.2 763.1 903.91Z" fill="#00715D" fill-opacity="0.99"/>
<path d="M849.74 940.17L894.75 944.02L890.21 1026.46L896.13 1024.66L903.5 938.45L867.01 935.33L849.74 940.17Z" fill="#00604F"/>
<path d="M883.71 968.09C883.1 975.29 876.76 980.63 869.56 980.01C862.36 979.39 857.02 973.06 857.64 965.86C858.26 958.66 864.59 953.32 871.79 953.94C878.98 954.55 884.32 960.88 883.71 968.09Z" fill="#00604F"/>
<path d="M886.43 963.97C885.81 971.17 879.48 976.51 872.28 975.9C865.08 975.28 859.74 968.95 860.36 961.74C860.98 954.54 867.31 949.2 874.51 949.82C881.71 950.44 887.05 956.78 886.43 963.97Z" fill="white"/>
<path d="M893.89 925.19L894.93 937.72L903.5 938.45L903.33 918.75L893.89 925.19Z" fill="#00604F"/>
<path d="M883.73 928.96C883.73 928.96 898.07 980.99 988.94 959.6L999.46 943.31L986.41 935.69C986.43 935.71 921.7 972.82 883.73 928.96Z" fill="white"/>
<path d="M604.59 925.81L593.58 912.71L591.55 916C591.55 916 559.54 916.25 558.38 918.02L552.16 930.93L581.2 939.5L576.54 961.91L593.7 965.39L604.59 925.81Z" fill="#FFB583"/>
<path d="M1064.98 909.15L1099.98 919.89L1099.17 929.58L1089.45 928.77L1083.88 952.7L1061.4 951.75L1064.98 909.15Z" fill="#FFB583"/>
<path d="M581.19 939.5L589.6 944.91L583.81 963.38L576.53 961.91L581.19 939.5Z" fill="#F99755"/>
<path d="M1089.45 928.77L1081.34 928.09L1073.04 952.24L1083.88 952.7L1089.45 928.77Z" fill="#F99755"/>
<path d="M913.76 822.2L944.66 814.39C944.66 814.39 1002.75 879.73 875.11 932.69C747.47 985.64 741.76 809.35 741.76 809.35L872.86 732.16L913.76 822.2Z" fill="#FFB583"/>
<path d="M748.76 836.23C748.76 836.23 692.78 816.18 680.83 861.52C669.58 904.2 733.91 947.25 784.12 899.84L748.76 836.23Z" fill="#FFB583"/>
<path d="M872.86 732.16L797.7 590.48L791.27 665.68L730.86 624.94L740.85 692.98L682.05 664.23L700.28 728.37L657.68 710.42C657.68 710.42 696.58 779.36 716.47 831.82C716.47 831.82 741.13 833.25 750.32 839L745.99 806.84L872.86 732.16Z" fill="#404041"/>
<path d="M872.86 732.16L835.95 662.59L827.02 719.29L773.97 686.37L784.32 754.35L724.32 728.84L733.38 787.23L688.95 770.01C698.76 789.91 708.96 812.04 716.47 831.84C716.47 831.84 741.13 833.27 750.32 839.02L745.99 806.86L872.86 732.16Z" fill="#231F20"/>
<path d="M867.08 801.55C876.99 821.66 871.8 844.48 855.5 852.52C839.19 860.56 817.93 850.77 808.02 830.66C798.11 810.55 803.3 787.73 819.6 779.7C835.91 771.66 857.17 781.44 867.08 801.55Z" fill="#231F20"/>
<path d="M872.86 732.16L876.87 740.97L751.88 808.78L750.31 839.02L745.98 806.86L872.86 732.16Z" fill="#F99755"/>
<path d="M937.32 871.97L898.72 868.67L907 897.6L937.32 871.97Z" fill="#C47206"/>
<path d="M845.51 788.49L837.85 812.62L861.8 808.05C861.79 808.05 857.29 794.32 845.51 788.49Z" fill="#58595B"/>
<path d="M712.26 857.96L703.93 887.09L742.65 881.97L712.26 857.96Z" fill="#F99755"/>
</svg>
