<svg width="24" height="23" viewBox="0 0 24 23" fill="none" xmlns="http://www.w3.org/2000/svg">
<g clip-path="url(#clip0_7_2)">
<path d="M11.924 22.712C18.5094 22.712 23.848 17.6277 23.848 11.356C23.848 5.08425 18.5094 0 11.924 0C5.33856 0 0 5.08425 0 11.356C0 17.6277 5.33856 22.712 11.924 22.712Z" fill="#00715D"/>
<path d="M18.718 7.25L17.636 6.135C17.614 6.11144 17.5874 6.0927 17.5578 6.07996C17.5282 6.06722 17.4963 6.06078 17.464 6.06101C17.4317 6.06014 17.3996 6.0663 17.3699 6.07908C17.3402 6.09185 17.3136 6.11093 17.292 6.135L9.79204 13.704L7.06204 10.969C7.0399 10.9456 7.01323 10.927 6.98366 10.9143C6.95409 10.9016 6.92223 10.8951 6.89005 10.8951C6.85786 10.8951 6.826 10.9016 6.79643 10.9143C6.76686 10.927 6.74018 10.9456 6.71803 10.969L5.62404 12.069C5.60073 12.0919 5.5822 12.1192 5.56956 12.1493C5.55693 12.1795 5.55042 12.2118 5.55042 12.2445C5.55042 12.2772 5.55693 12.3095 5.56956 12.3397C5.5822 12.3698 5.60073 12.3971 5.62404 12.42L9.06705 15.869C9.25343 16.0731 9.51049 16.1986 9.78604 16.22C10.0565 16.1955 10.3093 16.0753 10.499 15.881H10.505L18.724 7.603C18.7668 7.5538 18.7898 7.49053 18.7887 7.42536C18.7876 7.36019 18.7624 7.29772 18.718 7.25Z" fill="white"/>
</g>
<defs>
<clipPath id="clip0_7_2">
<rect width="23.847" height="22.712" fill="white"/>
</clipPath>
</defs>
</svg>
